<svg width="2990" height="2990" viewBox="0 0 2990 2990" fill="none" xmlns="http://www.w3.org/2000/svg">
<path style="mix-blend-mode:screen" d="M2242.5 2242.5C2655.33 1829.67 2655.33 1160.33 2242.5 747.5C1829.67 334.667 1160.33 334.667 747.5 747.5C334.667 1160.33 334.667 1829.67 747.5 2242.5C1160.33 2655.33 1829.67 2655.33 2242.5 2242.5Z" fill="url(#paint0_radial_1268_96)"/>
<path style="mix-blend-mode:screen" d="M1580.61 2276.22C2009.03 2276.22 2356.34 1928.91 2356.34 1500.48C2356.34 1072.06 2009.03 724.747 1580.61 724.747C1152.18 724.747 804.871 1072.06 804.871 1500.48C804.871 1928.91 1152.18 2276.22 1580.61 2276.22Z" fill="url(#paint1_radial_1268_96)"/>
<mask id="mask0_1268_96" style="mask-type:luminance" maskUnits="userSpaceOnUse" x="835" y="863" width="1362" height="1363">
<path d="M1516.11 2225.38C1892.05 2225.38 2196.81 1920.62 2196.81 1544.68C2196.81 1168.74 1892.05 863.979 1516.11 863.979C1140.17 863.979 835.408 1168.74 835.408 1544.68C835.408 1920.62 1140.17 2225.38 1516.11 2225.38Z" fill="white"/>
</mask>
<g mask="url(#mask0_1268_96)">
<path d="M2196.8 863.981H835.393V2225.39H2196.8V863.981Z" fill="#4B193F"/>
<path fill-rule="evenodd" clip-rule="evenodd" d="M2139.16 1342.69C2214.74 1554.32 2196.68 1776.79 2106.43 1965.39C2061.3 2059.69 1998.11 2145.54 1919.55 2217.29C1909.73 2226.27 1899.66 2235.02 1889.39 2243.55V2229.1H848.148V2251.75C837.924 2243.51 827.92 2235.02 818.1 2226.3H831.708V1019.63H814.018C892.577 947.833 986.51 890.127 1093.13 852.061V860.299H1646.91V851.656C1671.55 860.483 1695.75 870.45 1719.44 881.521C1908.74 970.305 2063.58 1131.03 2139.16 1342.65V1342.69Z" fill="#4B193F"/>
<path fill-rule="evenodd" clip-rule="evenodd" d="M2135.33 1344.05C2210.51 1554.65 2192.56 1776.02 2102.78 1963.66C2057.88 2057.49 1995.02 2142.89 1916.87 2214.31C1907.08 2223.25 1897.08 2231.96 1886.86 2240.42V2229.06H850.722V2248.55C840.571 2240.35 830.604 2231.93 820.821 2223.21H831.708V1022.6H816.775C894.93 951.179 988.422 893.767 1094.53 855.848V860.298H1645.55V855.443C1670.08 864.197 1694.17 874.127 1717.71 885.161C1906.05 973.503 2060.16 1133.45 2135.33 1344.01V1344.05Z" fill="#4A183E"/>
<path fill-rule="evenodd" clip-rule="evenodd" d="M2131.51 1345.42C2206.32 1554.95 2188.48 1775.22 2099.11 1961.95C2054.42 2055.33 1991.86 2140.29 1914.11 2211.34C1904.4 2220.24 1894.44 2228.89 1884.25 2237.35V2229.07H853.302V2245.44C843.188 2237.27 833.257 2228.89 823.548 2220.24H831.713V1025.56H819.502C897.289 954.499 990.303 897.345 1095.86 859.647V860.272H1569.68V836.55C1620.1 849.312 1669.09 866.819 1715.95 888.813C1903.37 976.714 2056.71 1135.86 2131.51 1345.38V1345.42Z" fill="#48173D"/>
<path fill-rule="evenodd" clip-rule="evenodd" d="M2127.69 1346.78C2202.13 1555.28 2184.37 1774.44 2095.47 1960.21C2051.01 2053.12 1988.78 2137.67 1911.4 2208.36C1901.72 2217.19 1891.83 2225.83 1881.68 2234.21V2229.07H855.879V2242.31C845.802 2234.21 835.945 2225.83 826.272 2217.22H831.716V1028.53H822.227C899.609 957.805 992.145 900.945 1097.22 863.43C1123.48 854.051 1149.93 846.107 1176.41 839.561V860.304H1568.69V840.517C1618.86 853.206 1667.59 870.639 1714.22 892.485C1900.69 979.945 2053.25 1138.28 2127.69 1346.78Z" fill="#47173C"/>
<path fill-rule="evenodd" clip-rule="evenodd" d="M2123.88 1348.14C2197.95 1555.57 2180.26 1773.63 2091.8 1958.48C2047.56 2050.91 1985.66 2135.06 1908.65 2205.38C1899.01 2214.17 1889.15 2222.74 1879.08 2231.09V2229.03H858.463V2239.1C848.459 2231.05 838.639 2222.7 829.003 2214.17H831.725V1031.51H824.994C902.009 961.151 994.066 904.585 1098.59 867.254C1124.74 857.912 1151 850.005 1177.37 843.495V860.303H1567.67V844.415C1617.58 857.03 1666.09 874.389 1712.47 896.126C1898.02 983.144 2049.8 1140.7 2123.88 1348.14Z" fill="#45163B"/>
<path fill-rule="evenodd" clip-rule="evenodd" d="M2120.04 1349.5C2193.74 1555.9 2176.13 1772.86 2088.11 1956.79C2044.09 2048.73 1982.48 2132.44 1905.87 2202.47C1886.71 2219.98 1866.63 2236.6 1845.63 2252.31V2229.1H860.988V2236.05C851.021 2228.03 841.237 2219.76 831.675 2211.22V1034.45H827.666C904.276 964.458 995.892 908.149 1099.9 871.039C1125.91 861.771 1152.06 853.9 1178.28 847.391V860.3H1566.59V848.31C1616.24 860.852 1664.49 878.138 1710.65 899.764C1895.25 986.341 2046.3 1143.09 2119.96 1349.5H2120.04Z" fill="#44153A"/>
<path fill-rule="evenodd" clip-rule="evenodd" d="M2116.23 1350.86C2189.56 1556.19 2172.06 1772.05 2084.49 1955.06C2040.72 2046.57 1979.41 2129.83 1903.17 2199.49C1884.12 2216.89 1864.11 2233.48 1843.25 2249.07V2229.06H863.576V2232.89C853.683 2224.91 843.936 2216.67 834.411 2208.17C824.885 2199.71 815.543 2190.96 806.422 2182.02H831.726V1037.43H830.475C906.681 967.769 997.856 911.792 1101.31 874.829C1153.06 856.366 1205.44 843.53 1257.73 836.027V860.301H1565.65V852.247C1615.04 864.752 1663.07 881.927 1708.97 903.443C1892.65 989.579 2042.89 1145.56 2116.23 1350.89V1350.86Z" fill="#431439"/>
<path fill-rule="evenodd" clip-rule="evenodd" d="M2112.4 1352.21C2185.33 1556.52 2167.93 1771.27 2080.8 1953.33C2037.26 2044.35 1976.24 2127.22 1900.44 2196.51C1881.5 2213.83 1861.6 2230.31 1840.82 2245.83V2229.06H896.267V2252.85C875.855 2237.96 856.105 2222.07 837.127 2205.19C827.638 2196.76 818.37 2188.08 809.285 2179.18H831.72V1053.53H819.142C823.776 1049.08 828.447 1044.7 833.191 1040.36C909.029 971.073 999.689 915.353 1102.63 878.611C1154.09 860.222 1206.2 847.459 1258.24 839.993V860.295H1564.61V856.139C1613.79 868.57 1661.52 885.636 1707.2 907.078C1889.92 992.772 2039.43 1147.94 2112.36 1352.25L2112.4 1352.21Z" fill="#411438"/>
<path fill-rule="evenodd" clip-rule="evenodd" d="M2108.57 1353.62C2181.14 1556.86 2163.81 1770.51 2077.16 1951.64C2033.84 2042.19 1973.15 2124.65 1897.72 2193.58C1878.85 2210.83 1859.06 2227.19 1838.39 2242.68V2229.1H898.657V2249.63C878.318 2234.8 858.715 2218.99 839.848 2202.22C830.432 2193.83 821.164 2185.19 812.153 2176.33H831.719V1069.84H808.328C817.302 1060.82 826.497 1052 835.912 1043.35C911.346 974.431 1001.56 919.006 1103.99 882.411C1155.19 864.132 1207.05 851.406 1258.83 843.977V860.27H1413.38V837.136C1515.4 842.689 1614.59 868.067 1705.47 910.693C1887.27 995.947 2036.01 1150.31 2108.57 1353.58V1353.62Z" fill="#401337"/>
<path fill-rule="evenodd" clip-rule="evenodd" d="M2104.74 1354.98C2176.94 1557.19 2159.69 1769.73 2073.48 1949.91C2030.37 2040.02 1970.02 2122 1894.95 2190.59C1876.2 2207.73 1856.52 2224.02 1835.96 2239.43V2229.1H901.079V2246.39C880.851 2231.64 861.321 2215.9 842.564 2199.2C833.185 2190.85 823.991 2182.28 814.98 2173.45H831.714V1072.66H811.229C820.129 1063.69 829.287 1054.9 838.666 1046.33C913.731 977.737 1003.47 922.605 1105.35 886.231C1207.23 849.857 1311.6 835.697 1413.15 841.214C1514.66 846.731 1613.3 871.961 1703.74 914.404C1884.58 999.216 2032.54 1152.8 2104.74 1355.01V1354.98Z" fill="#3F1236"/>
<path fill-rule="evenodd" clip-rule="evenodd" d="M2100.92 1356.35C2172.74 1557.49 2155.61 1768.97 2069.8 1948.19C2026.92 2037.82 1966.86 2119.4 1892.2 2187.62C1873.51 2204.69 1853.95 2220.91 1833.5 2236.21V2229.07H903.507V2243.09C883.389 2228.41 863.97 2212.78 845.286 2196.16C835.944 2187.84 826.786 2179.31 817.849 2170.52H831.715V1075.51H814.098C822.961 1066.57 832.083 1057.85 841.424 1049.32C916.085 981.094 1005.38 926.22 1106.75 890.03C1208.11 853.839 1311.94 839.753 1412.93 845.233C1513.93 850.75 1612.05 875.833 1702.01 918.018C1881.93 1002.39 2029.12 1155.17 2100.95 1356.35H2100.92Z" fill="#3E1135"/>
<path fill-rule="evenodd" clip-rule="evenodd" d="M2097.09 1357.7C2168.55 1557.81 2151.48 1768.15 2066.16 1946.49C2023.49 2035.65 1963.76 2116.82 1889.47 2184.67C1870.9 2201.63 1851.44 2217.77 1831.07 2233V2229.1H905.894V2239.88C885.886 2225.28 866.54 2209.72 847.967 2193.21C838.662 2184.93 829.578 2176.44 820.677 2167.72H831.674V1078.33H816.926C825.753 1069.43 834.8 1060.75 844.105 1052.25C918.399 984.396 1007.22 929.816 1108.03 893.81C1208.84 857.803 1312.15 843.791 1412.63 849.271C1513.11 854.751 1610.72 879.724 1700.21 921.688C1879.17 1005.62 2025.63 1157.62 2097.05 1357.7H2097.09Z" fill="#3C1134"/>
<path fill-rule="evenodd" clip-rule="evenodd" d="M2093.26 1359.06C2164.35 1558.1 2147.36 1767.38 2062.47 1944.76C2020.03 2033.47 1960.6 2114.2 1886.71 2181.69C1868.25 2198.57 1848.86 2214.61 1828.63 2229.76V2229.06H908.318V2236.56C888.421 2222.04 869.185 2206.55 850.722 2190.11C841.491 2181.91 832.443 2173.45 823.58 2164.77H831.708V1081.16H819.828C828.618 1072.33 837.629 1063.69 846.861 1055.23C920.749 987.7 1009.09 933.415 1109.42 897.629C1209.72 861.806 1312.48 847.867 1412.41 853.311C1512.34 858.754 1609.47 883.58 1698.47 925.36C1876.52 1008.89 2022.17 1160.05 2093.26 1359.09V1359.06Z" fill="#3B1033"/>
<path fill-rule="evenodd" clip-rule="evenodd" d="M2089.44 1360.42C2160.13 1558.44 2143.24 1766.57 2058.84 1943.03C2016.61 2031.26 1957.51 2111.55 1883.99 2178.71C1865.6 2195.48 1846.33 2211.48 1826.21 2226.52C1816.13 2234.06 1805.87 2241.35 1795.35 2248.44V2229.06H910.748V2233.33C890.961 2218.87 871.836 2203.46 853.447 2187.13C844.252 2178.97 835.241 2170.55 826.451 2161.9H831.747V1083.99H822.773C831.49 1075.2 840.464 1066.59 849.659 1058.21C923.143 991.049 1011.04 937.058 1110.83 901.419C1210.61 865.78 1312.81 851.915 1412.23 857.321C1511.64 862.728 1608.26 887.443 1696.79 928.966C1873.88 1012.05 2018.78 1162.4 2089.47 1360.42H2089.44Z" fill="#3A0F32"/>
<path fill-rule="evenodd" clip-rule="evenodd" d="M2085.62 1361.78C2155.94 1558.73 2139.17 1765.8 2055.16 1941.3C2013.16 2029.06 1954.35 2108.94 1881.27 2175.73C1863 2192.43 1843.83 2208.32 1823.79 2223.29C1813.79 2230.79 1803.56 2238.04 1793.12 2245.06V2229.03H913.145V2230.02C893.468 2215.67 874.417 2200.34 856.138 2184.08C846.98 2175.95 838.043 2167.6 829.289 2159H831.717V1086.78H825.611C834.291 1078.03 843.228 1069.5 852.35 1061.15C925.466 994.36 1012.89 940.626 1112.12 905.208C1211.35 869.753 1313.04 855.961 1411.94 861.368C1510.84 866.737 1606.9 891.342 1694.99 932.645C1871.16 1015.29 2015.3 1164.87 2085.62 1361.82V1361.78Z" fill="#390F31"/>
<path fill-rule="evenodd" clip-rule="evenodd" d="M2081.79 1363.17C2151.74 1559.09 2135.04 1765.02 2051.48 1939.61C2009.7 2026.88 1951.22 2106.36 1878.51 2172.78C1860.34 2189.41 1841.25 2205.19 1821.36 2220.08C1811.39 2227.55 1801.24 2234.76 1790.83 2241.74V2229.02H945.43V2247.48C935.316 2240.83 925.349 2233.91 915.566 2226.78C876.396 2198.2 839.875 2165.8 806.627 2129.79H831.747V1089.61H828.51C837.153 1080.89 846.017 1072.4 855.101 1064.09C927.813 997.627 1014.8 944.224 1113.51 908.953C1310.94 838.448 1518.04 854.042 1693.29 936.243C1868.51 1018.44 2011.87 1167.21 2081.82 1363.13L2081.79 1363.17Z" fill="#370E30"/>
<path fill-rule="evenodd" clip-rule="evenodd" d="M2077.97 1364.54C2147.55 1559.39 2130.93 1764.25 2047.85 1937.89C2006.29 2024.72 1948.14 2103.76 1875.79 2169.81C1857.7 2186.33 1838.76 2202.03 1818.93 2216.89C1809.04 2224.32 1798.89 2231.49 1788.59 2238.44V2229.06H947.68V2244.14C937.603 2237.52 927.709 2230.64 917.963 2223.55C879.014 2195.12 842.676 2162.86 809.575 2127.08H831.679V1119H806.229C822.522 1100.95 839.697 1083.62 857.792 1067.11C930.136 1001.02 1016.6 947.872 1114.8 912.822C1311.2 842.685 1517.16 858.205 1691.46 939.965C1865.75 1021.72 2008.34 1169.72 2077.93 1364.58L2077.97 1364.54Z" fill="#360D2F"/>
<path fill-rule="evenodd" clip-rule="evenodd" d="M2074.15 1365.9C2143.36 1559.73 2126.81 1763.44 2044.17 1936.19C2002.83 2022.55 1944.98 2101.15 1873.04 2166.91C1855.05 2183.35 1836.19 2198.98 1816.47 2213.73C1806.62 2221.08 1796.54 2228.26 1786.28 2235.17V2229.14H949.927V2240.87C939.924 2234.29 930.067 2227.45 920.394 2220.38C881.629 2192.14 845.512 2160.03 812.595 2124.43H831.72V1121.69H809.285C825.468 1103.74 842.57 1086.49 860.555 1070.05C932.494 1004.33 1018.52 951.441 1116.2 916.575C1311.54 846.842 1516.43 862.253 1689.77 943.571C1863.11 1024.89 2004.96 1172.08 2074.15 1365.9Z" fill="#350D2F"/>
<path fill-rule="evenodd" clip-rule="evenodd" d="M2070.32 1367.26C2139.13 1560.02 2122.73 1762.67 2040.53 1934.46C1999.41 2020.34 1941.89 2098.53 1870.31 2163.92C1834.53 2196.62 1795.25 2226.12 1752.77 2251.75V2229.1H952.204V2237.45C942.236 2230.9 932.453 2224.09 922.817 2217.07C884.273 2188.97 848.34 2157.05 815.607 2121.67H831.716V1124.37H812.297C828.406 1106.5 845.398 1089.36 863.309 1073.03C934.881 1007.63 1020.43 955.078 1117.56 920.395C1311.83 851.03 1515.62 866.367 1688.04 947.244C1860.46 1028.12 2001.5 1174.54 2070.35 1367.29L2070.32 1367.26Z" fill="#340C2E"/>
<path fill-rule="evenodd" clip-rule="evenodd" d="M2066.5 1368.62C2134.94 1560.35 2118.61 1761.86 2036.85 1932.74C1995.99 2018.17 1938.73 2095.92 1867.56 2160.95C1832 2193.46 1792.9 2222.77 1750.68 2248.3V2229.1H984.575V2252.89C964.199 2240.83 944.375 2227.81 925.214 2213.84C886.89 2185.88 851.141 2154.14 818.592 2118.95H831.722V1127.06H815.318C831.317 1109.29 848.235 1092.23 866.036 1075.97C937.203 1010.95 1022.31 958.648 1118.89 924.149C1312.09 855.152 1514.78 870.415 1686.24 950.85C1857.7 1031.29 1998.02 1176.89 2066.46 1368.62H2066.5Z" fill="#330B2D"/>
<path fill-rule="evenodd" clip-rule="evenodd" d="M2062.66 1369.98C2130.74 1560.64 2114.48 1761.08 2033.16 1931C1992.52 2015.96 1935.59 2093.31 1864.83 2157.96C1829.45 2190.29 1790.57 2219.46 1748.57 2244.84V2229.06H986.659V2249.4C966.394 2237.41 946.68 2224.46 927.629 2210.56C889.489 2182.75 853.961 2151.2 821.596 2116.18H831.71V1129.74H818.322C834.248 1112.09 851.092 1095.09 868.783 1078.95C939.545 1014.29 1024.21 962.285 1120.28 927.97C1312.45 859.341 1513.99 874.531 1684.54 954.524C1855.08 1034.52 1994.62 1179.32 2062.7 1370.02L2062.66 1369.98Z" fill="#320B2C"/>
<path fill-rule="evenodd" clip-rule="evenodd" d="M2058.84 1371.34C2126.55 1560.97 2110.4 1760.31 2029.53 1929.28C1989.11 2013.76 1932.5 2090.66 1862.11 2154.99C1826.91 2187.13 1788.29 2216.15 1746.48 2241.38V2229.06H988.759V2245.91C968.605 2233.99 949.001 2221.08 930.06 2207.25C892.141 2179.59 856.797 2148.22 824.615 2113.39H831.751V1132.43H821.379C837.231 1114.85 853.965 1098 871.545 1081.89C941.94 1017.57 1026.09 965.854 1121.64 931.76C1312.74 863.536 1513.19 878.615 1682.81 958.167C1852.44 1037.72 1991.17 1181.75 2058.88 1371.38L2058.84 1371.34Z" fill="#310A2B"/>
<path fill-rule="evenodd" clip-rule="evenodd" d="M2055.02 1372.7C2122.36 1561.27 2106.29 1759.51 2025.85 1927.55C1985.65 2011.59 1929.34 2088.05 1859.35 2152.01C1824.34 2183.97 1785.94 2212.84 1744.38 2237.93V2229.03H990.859V2242.41C970.815 2230.57 951.322 2217.73 932.454 2203.98C894.756 2176.47 859.595 2145.28 827.598 2110.63H831.717V1135.11H824.361C840.103 1117.64 856.763 1100.87 874.27 1084.87C944.26 1020.91 1027.97 969.498 1123.01 935.551C1313.04 867.694 1512.38 882.7 1681.05 961.811C1849.72 1040.92 1987.71 1184.14 2055.05 1372.7H2055.02Z" fill="#2F092A"/>
<path fill-rule="evenodd" clip-rule="evenodd" d="M2051.19 1374.1C2118.17 1561.64 2102.17 1758.77 2022.21 1925.89C1982.23 2009.45 1926.26 2085.51 1856.63 2149.1C1821.84 2180.92 1783.63 2209.6 1742.29 2234.54V2229.1H992.955V2239.03C973.021 2227.22 953.639 2214.5 934.882 2200.81C897.367 2173.45 862.427 2142.45 830.577 2107.99H831.717V1137.8H827.377C843.045 1120.4 859.595 1103.74 876.992 1087.85C946.614 1024.26 1029.84 973.1 1124.33 939.374C1313.34 871.885 1511.57 886.817 1679.29 965.487C1847.03 1044.16 1984.26 1186.6 2051.19 1374.1Z" fill="#2E092A"/>
<path fill-rule="evenodd" clip-rule="evenodd" d="M2047.36 1375.46C2113.93 1561.93 2098.04 1757.96 2018.53 1924.17C1978.77 2007.25 1923.09 2082.9 1853.87 2146.13C1819.26 2177.76 1781.27 2206.26 1740.19 2231.09V2229.1H995.011V2235.57C975.187 2223.84 955.915 2211.19 937.268 2197.58C899.974 2170.4 865.218 2139.51 833.552 2105.27C825.644 2096.7 817.921 2087.94 810.418 2078.93H831.676V1140.52H830.352C845.91 1123.23 862.386 1106.65 879.673 1090.83C948.89 1027.57 1031.68 976.744 1125.65 943.165C1313.59 876.044 1510.72 890.902 1677.52 969.131C1844.31 1047.36 1980.76 1188.99 2047.36 1375.46Z" fill="#2D0829"/>
<path fill-rule="evenodd" clip-rule="evenodd" d="M2043.58 1376.83C2109.78 1562.27 2094 1757.19 2014.89 1922.44C1975.35 2005.08 1920 2080.26 1851.15 2143.15C1816.72 2174.6 1778.95 2202.95 1738.09 2227.63C1727.87 2233.81 1717.46 2239.73 1706.87 2245.43V2229.07H997.109V2232.04C977.395 2220.39 958.233 2207.77 939.697 2194.27C902.624 2167.24 868.052 2136.53 836.569 2102.47C828.698 2093.98 821.048 2085.22 813.546 2076.32H831.677V1169.47H810.787C818.069 1160.53 825.609 1151.78 833.369 1143.17C848.853 1125.99 865.22 1109.48 882.432 1093.78C951.282 1030.88 1033.56 980.314 1127.01 946.955C1313.88 880.239 1509.92 894.987 1675.79 972.774C1841.66 1050.56 1977.34 1191.39 2043.54 1376.83H2043.58Z" fill="#2C0828"/>
<path fill-rule="evenodd" clip-rule="evenodd" d="M2039.75 1378.19C2105.59 1562.56 2089.88 1756.39 2011.25 1920.72C1971.93 2002.88 1916.88 2077.65 1848.43 2140.18C1814.23 2171.44 1776.64 2199.65 1736 2224.18C1725.85 2230.32 1715.47 2236.21 1704.96 2241.87V2229.03H1029V2245.22C1018.92 2239.88 1008.99 2234.33 999.207 2228.56C979.603 2216.97 960.552 2204.43 942.126 2190.97C905.273 2164.08 870.885 2133.56 839.586 2099.68C831.752 2091.22 824.139 2082.54 816.71 2073.68H831.716V1171.94H813.988C821.234 1163.07 828.737 1154.36 836.423 1145.79C851.834 1128.68 868.09 1112.32 885.192 1096.65C953.638 1034.13 1035.47 983.812 1128.37 950.638C1314.18 884.289 1509.11 898.964 1674.02 976.309C1838.94 1053.66 1973.88 1193.71 2039.72 1378.08L2039.75 1378.19Z" fill="#2B0727"/>
<path fill-rule="evenodd" clip-rule="evenodd" d="M2035.93 1379.55C2101.4 1562.89 2085.77 1755.61 2007.58 1918.98C1968.48 2000.67 1913.75 2075.03 1845.71 2137.19C1811.69 2168.27 1774.32 2196.33 1733.94 2220.71C1713.75 2232.92 1692.78 2244.22 1671.09 2254.51V2229.06H1030.95V2241.72C1020.95 2236.42 1011.05 2230.9 1001.31 2225.13C981.813 2213.62 962.872 2201.15 944.556 2187.76C907.888 2161.02 873.72 2130.68 842.605 2097.03C834.845 2088.6 827.232 2080 819.876 2071.17H831.756V1174.54H817.154C824.363 1165.71 831.792 1157.03 839.479 1148.54C854.779 1131.55 870.962 1115.25 887.99 1099.7C956.031 1037.5 1037.42 987.52 1129.81 954.529C1314.59 888.548 1508.38 903.149 1672.37 980.054C1836.37 1056.96 1970.5 1196.2 2035.97 1379.55H2035.93Z" fill="#2A0626"/>
<path fill-rule="evenodd" clip-rule="evenodd" d="M2032.11 1380.9C2097.21 1563.18 2081.65 1754.8 2003.94 1917.25C1965.06 1998.46 1910.67 2072.42 1842.99 2134.24C1809.16 2165.14 1772.01 2193.05 1731.85 2217.29C1711.77 2229.43 1690.91 2240.64 1669.36 2250.87V2229.06H1063.06V2253.19C981.523 2214.94 907.414 2161.2 845.552 2094.26C837.828 2085.88 830.289 2077.31 822.933 2068.56H831.686V1177.07H820.248C827.42 1168.28 834.813 1159.68 842.426 1151.22C857.652 1134.34 873.725 1118.12 890.643 1102.67C958.316 1040.85 1039.23 991.12 1131.07 958.35C1314.78 892.737 1507.46 907.265 1670.54 983.728C1833.58 1060.19 1966.98 1198.66 2032.07 1380.94L2032.11 1380.9Z" fill="#290626"/>
<path fill-rule="evenodd" clip-rule="evenodd" d="M2028.28 1382.27C2093.01 1563.51 2077.57 1754.03 2000.26 1915.56C1961.6 1996.33 1907.5 2069.81 1840.23 2131.3C1806.58 2162.05 1769.65 2189.75 1729.71 2213.87C1709.74 2225.94 1689.03 2237.08 1667.59 2247.27V2229.1H1064.82V2249.58C983.764 2211.56 910.096 2158.15 848.565 2091.58C840.878 2083.27 833.375 2074.74 826.093 2066.02H831.72V1179.65H823.408C830.543 1170.93 837.899 1162.37 845.476 1153.94C860.628 1137.14 876.59 1121.03 893.435 1105.65C960.704 1044.2 1041.14 994.764 1132.5 962.142C1315.14 896.933 1506.76 911.35 1668.84 987.372C1830.96 1063.39 1963.59 1201.06 2028.28 1382.3V1382.27Z" fill="#280525"/>
<path fill-rule="evenodd" clip-rule="evenodd" d="M2024.45 1383.63C2088.78 1563.8 2073.44 1753.25 1996.57 1913.83C1958.14 1994.12 1904.37 2067.2 1837.47 2128.32C1804.04 2158.89 1767.3 2186.43 1727.61 2210.41C1707.75 2222.4 1687.15 2233.51 1665.86 2243.63V2229.06H1066.55V2245.91C985.965 2208.1 912.702 2154.99 851.539 2088.82C836.239 2072.27 821.711 2054.91 808.029 2036.78H831.715V1182.15H826.529C833.627 1173.47 840.946 1164.94 848.449 1156.59C863.492 1139.89 879.417 1123.86 896.115 1108.59C963.015 1047.47 1042.97 998.33 1133.78 965.928C1496.97 836.246 1895.73 1023.27 2024.42 1383.66L2024.45 1383.63Z" fill="#280524"/>
<path fill-rule="evenodd" clip-rule="evenodd" d="M2020.64 1385.02C2084.6 1564.17 2069.33 1752.48 1992.94 1912.14C1954.73 1991.95 1901.25 2064.62 1834.76 2125.38C1801.51 2155.76 1764.99 2183.16 1725.52 2206.99C1705.77 2218.91 1685.29 2229.94 1664.1 2240.02V2229.1H1068.32V2242.3C988.219 2204.71 915.36 2151.93 854.565 2086.1C839.375 2069.66 824.921 2052.37 811.313 2034.35H831.725V1211.06H809.18C835.624 1175.31 865.635 1141.95 898.883 1111.57C965.379 1050.81 1044.9 1001.97 1135.15 969.714C1496.25 840.805 1892.65 1026.72 2020.6 1385.02H2020.64Z" fill="#270424"/>
<path fill-rule="evenodd" clip-rule="evenodd" d="M2016.8 1386.39C2080.4 1564.48 2065.21 1751.72 1989.26 1910.42C1951.3 1989.79 1898.12 2062.02 1831.99 2122.41C1798.93 2152.61 1762.66 2179.86 1723.42 2203.55C1703.78 2215.39 1683.44 2226.35 1662.37 2236.35V2229.07H1070.04V2238.6C990.381 2201.23 918 2148.75 857.536 2083.32C842.42 2066.95 828.076 2049.81 814.505 2031.86H831.68V1213.39H812.408C838.705 1177.86 868.533 1144.68 901.597 1114.49C967.688 1054.1 1046.76 1005.51 1136.5 973.478C1495.46 845.304 1889.59 1030.15 2016.77 1386.36L2016.8 1386.39Z" fill="#260423"/>
<path fill-rule="evenodd" clip-rule="evenodd" d="M2012.98 1387.75C2076.2 1564.8 2061.12 1750.9 1985.62 1908.68C1947.88 1987.57 1895.03 2059.36 1829.31 2119.42C1796.46 2149.44 1760.38 2176.54 1721.36 2200.08C1701.87 2211.85 1681.6 2222.77 1660.68 2232.7V2229.06H1071.81V2234.95C992.625 2197.8 920.649 2145.61 860.552 2080.59C845.546 2064.33 831.239 2047.26 817.778 2029.43H831.718V1215.77H815.719C841.869 1180.46 871.512 1147.47 904.356 1117.46C970.08 1057.4 1048.68 1009.11 1137.86 977.258C1494.73 849.856 1886.5 1033.6 2012.94 1387.71L2012.98 1387.75Z" fill="#250322"/>
<path fill-rule="evenodd" clip-rule="evenodd" d="M2009.17 1389.1C2072.02 1565.09 2057.02 1750.12 1981.95 1906.95C1944.44 1985.36 1891.88 2056.75 1826.56 2116.44C1793.9 2146.27 1758.04 2173.23 1719.24 2196.62C1699.86 2208.31 1679.74 2219.16 1658.92 2229.06H1073.59V2231.3C994.88 2194.37 923.309 2142.52 863.58 2077.86C848.648 2061.71 834.451 2044.72 821.064 2027.03H831.729V1218.19H819.004C845.007 1183.07 874.466 1150.3 907.126 1120.47C972.445 1060.78 1050.56 1012.78 1139.27 981.114C1494.01 854.447 1883.49 1037.13 2009.17 1389.14V1389.1Z" fill="#240322"/>
<path fill-rule="evenodd" clip-rule="evenodd" d="M2005.33 1390.47C2130.27 1740.38 1945.67 2126.12 1593.04 2252.01V2229.06H1135.25V2252.34C1114.88 2245.06 1094.87 2236.82 1075.3 2227.63C997.073 2190.92 925.943 2139.36 866.545 2075.1C851.686 2059.03 837.6 2042.19 824.286 2024.57H831.716V1220.55H822.227C848.082 1185.64 877.358 1153.06 909.834 1123.41C974.785 1064.09 1052.43 1016.35 1140.58 984.869C1493.22 858.975 1880.35 1040.55 2005.29 1390.47H2005.33Z" fill="#230221"/>
<path fill-rule="evenodd" clip-rule="evenodd" d="M2001.5 1391.83C2125.7 1739.65 1942.21 2123.06 1591.67 2248.22V2229.06H1136.61V2248.55C1116.35 2241.31 1096.48 2233.11 1077.03 2223.99C999.241 2187.5 928.552 2136.23 869.522 2072.38C854.774 2056.42 840.761 2039.65 827.521 2022.14H831.714V1222.94H825.498C851.17 1188.26 880.298 1155.85 912.59 1126.4C977.137 1067.4 1054.34 1019.99 1141.98 988.695C1492.52 863.537 1877.34 1044.05 2001.54 1391.86L2001.5 1391.83Z" fill="#230221"/>
<path fill-rule="evenodd" clip-rule="evenodd" d="M1997.68 1393.2C2121.11 1738.92 1938.76 2120.02 1590.36 2244.44V2229.07H1138.05V2244.77C1117.93 2237.57 1098.15 2229.44 1078.84 2220.35C1001.53 2184.09 931.244 2133.15 872.581 2069.67C857.907 2053.78 843.967 2037.16 830.837 2019.72H831.757V1225.34H828.814C854.339 1190.84 883.284 1158.66 915.355 1129.35C979.534 1070.72 1056.25 1023.57 1143.35 992.491C1491.75 868.105 1874.25 1047.51 1997.72 1393.23L1997.68 1393.2Z" fill="#220220"/>
<path fill-rule="evenodd" clip-rule="evenodd" d="M1993.85 1394.56C2116.55 1738.18 1935.26 2116.97 1588.99 2240.62V2229.07H1139.41V2240.99C1119.4 2233.85 1099.76 2225.73 1080.52 2216.71C1003.69 2180.67 933.849 2130.03 875.518 2066.91C860.954 2051.14 847.088 2034.59 834.031 2017.26C827.485 2008.62 821.159 1999.79 815.054 1990.75H831.714V1253.81H813.619C819.541 1244.98 825.683 1236.26 832.009 1227.69C857.386 1193.42 886.147 1161.42 918.034 1132.29C981.809 1074.03 1058.05 1027.18 1144.63 996.245C1490.94 872.595 1871.12 1050.94 1993.82 1394.56H1993.85Z" fill="#210120"/>
<path fill-rule="evenodd" clip-rule="evenodd" d="M1990.03 1395.94C2111.99 1737.47 1931.81 2113.94 1587.64 2236.86V2229.1H1140.81V2237.19C1120.91 2230.09 1101.38 2222.03 1082.3 2213.06C1005.94 2177.24 936.505 2126.92 878.541 2064.18C864.05 2048.51 850.295 2032.03 837.312 2014.86C830.802 2006.25 824.513 1997.46 818.444 1988.52H831.758V1256.07H817.047C822.931 1247.28 829.037 1238.64 835.326 1230.11C860.556 1196.05 889.133 1164.24 920.837 1135.29C984.207 1077.37 1060.01 1030.8 1146.07 1000.09C1490.25 877.216 1868.11 1054.45 1990.07 1395.94H1990.03Z" fill="#21011F"/>
<path fill-rule="evenodd" clip-rule="evenodd" d="M1986.2 1397.31C2107.38 1736.74 1928.35 2110.93 1586.27 2233.07V2229.1H1202.48V2251.75C1161.65 2241.42 1121.97 2227.22 1084.01 2209.42C1008.1 2173.82 939.105 2123.8 881.509 2061.46C867.129 2045.86 853.41 2029.53 840.538 2012.43C834.101 2003.9 827.812 1995.15 821.78 1986.25H831.711V1258.28H820.383C826.231 1249.53 832.299 1240.92 838.552 1232.46C863.598 1198.63 892.028 1167 923.547 1138.24C986.55 1080.68 1061.87 1034.37 1147.38 1003.85C1489.46 881.703 1865.01 1057.84 1986.2 1397.27V1397.31Z" fill="#20011F"/>
<path fill-rule="evenodd" clip-rule="evenodd" d="M1982.38 1398.67C2102.83 1736 1924.9 2107.88 1584.91 2229.25V2229.06H1203.52V2247.82C1162.91 2237.56 1123.49 2223.47 1085.79 2205.78C1010.35 2170.4 941.798 2120.67 884.533 2058.74C855.919 2027.77 830.137 1993.71 807.739 1956.9H831.719V1286.97H806.967C817.706 1269.1 829.328 1251.7 841.796 1234.89C866.696 1201.24 894.942 1169.83 926.241 1141.25C988.838 1084.06 1063.72 1038.05 1148.72 1007.71C1488.66 886.34 1861.89 1061.37 1982.34 1398.71L1982.38 1398.67Z" fill="#20001E"/>
<path fill-rule="evenodd" clip-rule="evenodd" d="M1978.56 1400.02C2098.27 1735.26 1921.4 2104.81 1583.55 2225.45C1562.44 2232.99 1541.18 2239.39 1519.89 2244.65V2229.05H1204.51V2243.91C1164.16 2233.72 1124.99 2219.71 1087.52 2202.13C1012.56 2166.97 944.409 2117.58 887.513 2056.01C859.083 2025.23 833.448 1991.39 811.197 1954.79H831.719V1289.02H810.461C821.164 1271.26 832.712 1253.97 845.07 1237.28C869.822 1203.84 897.884 1172.62 928.999 1144.22C991.229 1087.36 1065.63 1041.65 1150.08 1011.49C1487.93 890.855 1858.84 1064.82 1978.56 1400.06V1400.02Z" fill="#1F001E"/>
<path fill-rule="evenodd" clip-rule="evenodd" d="M1974.74 1401.39C2093.68 1734.53 1917.95 2101.77 1582.2 2221.67C1540.23 2236.64 1497.75 2247.04 1455.31 2253.15V2229.06H1205.54V2239.98C1165.45 2229.83 1126.51 2215.93 1089.29 2198.46C1014.81 2163.52 947.062 2114.42 890.532 2053.26C862.25 2022.66 836.799 1989.04 814.695 1952.67H831.76V1291.05H813.959C824.588 1273.4 836.063 1256.22 848.347 1239.63C872.952 1206.42 900.831 1175.38 931.762 1147.14C993.587 1090.64 1067.51 1045.22 1151.44 1015.25C1487.2 895.385 1855.79 1068.25 1974.74 1401.39Z" fill="#1F001E"/>
</g>
<path style="mix-blend-mode:multiply" d="M2196.81 1544.69C2196.81 1920.64 1892.06 2225.39 1516.1 2225.39C1140.15 2225.39 835.4 1920.64 835.4 1544.69C835.4 1168.73 1140.15 889.804 1516.1 889.804C1892.06 889.804 2196.81 1168.73 2196.81 1544.69Z" fill="url(#paint2_radial_1268_96)"/>
<path fill-rule="evenodd" clip-rule="evenodd" d="M1527.79 1863.45C1482.34 1893.75 1583.33 1884.63 1595.95 1887.9C1608.56 1891.21 1588.37 1876.06 1623.71 1850.79C1659.06 1825.56 1606.02 1817.99 1585.83 1825.56C1565.64 1833.14 1527.76 1863.45 1527.76 1863.45H1527.79Z" fill="url(#paint3_linear_1268_96)"/>
<g style="mix-blend-mode:soft-light" opacity="0.49">
<path d="M943.127 1897.77C861.588 1717.73 1101.09 1321.22 1414.15 1205.07C1727.22 1088.93 1224.82 1321.04 1070.79 1601.37C1070.79 1601.37 1356.08 1248.25 1687.64 1154.72C2019.2 1061.2 2146.13 1278.71 2169.37 1338.25C2192.58 1397.8 2196.81 1543.04 2196.81 1543.04C2196.81 1543.04 2042.96 1337.22 1635.56 1443.25C1228.16 1549.29 1049.49 2025.72 1049.49 2025.72C1049.49 2025.72 955.043 1935.72 943.127 1897.77Z" fill="#9589C4"/>
</g>
<g style="mix-blend-mode:soft-light" opacity="0.49">
<path d="M1066.85 2048.82C1066.85 2048.82 1246.74 1634.03 1596.8 1501.03C1946.9 1368.08 2172.42 1542.23 2172.42 1542.23C2172.42 1542.23 1837.63 1416.22 1575.83 1526.85C1314.08 1637.48 1147.07 2030.65 1127.87 2096.59L1066.81 2048.82H1066.85Z" fill="#9589C4"/>
</g>
<g style="mix-blend-mode:soft-light" opacity="0.49">
<path d="M1194.54 2149.41C1194.54 2149.41 1243.57 1785.92 1516.13 1593.27C1788.7 1400.59 2160.65 1592.61 2172.45 1664.92C2184.22 1737.23 2089.99 1959.37 1822.35 2067.1C1554.75 2174.82 1979.22 1954.88 2086.61 1781.07C2194 1607.25 1920.44 1477.31 1619.67 1614.94C1318.89 1752.56 1274.05 2181.04 1274.05 2181.04L1194.58 2149.41H1194.54Z" fill="#9589C4"/>
</g>
<g style="mix-blend-mode:multiply" opacity="0.49">
<path d="M1505.07 1738.07C1378.85 1901.33 1371.27 2054.08 1411.65 2116.56C1452.04 2179.05 1978.86 1950.98 2068.08 1762.49C2157.27 1574 1664.36 1534.39 1516.14 1770.47C1367.92 2006.56 1672.56 1955.36 1824.05 1861.46C1975.55 1767.57 1756.45 1704.6 1872.86 1664.96C1989.26 1625.31 2013.91 1867.42 1706.21 1977.65C1398.52 2087.87 1373.7 1942.97 1505.07 1738.07Z" fill="#4A001D"/>
</g>
<g style="mix-blend-mode:multiply" opacity="0.49">
<path d="M1516.09 1792.76C1655.67 1629.5 1806.75 1627.4 1848.39 1632.44C1890.06 1637.48 1818.08 1647.12 1810.51 1687.13C1802.93 1727.15 1849.64 1756.16 1823.12 1802.87C1796.6 1849.58 1778.95 1902.58 1624.92 1897.54C1470.93 1892.5 1623.63 1721.96 1717.09 1713.8C1810.54 1705.67 1806.72 1794.75 1723.41 1822.77C1640.11 1850.83 1628.75 1816.74 1676.7 1792.76C1724.66 1768.78 1710.8 1738.8 1665.34 1764.51C1619.88 1790.22 1561.84 1902.21 1698.15 1867.05C1834.49 1831.89 1813.6 1717.36 1756.22 1687.13C1698.85 1656.9 1586.45 1708.2 1516.05 1792.76H1516.09Z" fill="#4A001D"/>
</g>
<g style="mix-blend-mode:soft-light" opacity="0.49">
<path d="M1512.28 1929.58C1487.42 1931.64 1532.84 2027.56 1714.64 1965.7C1896.4 1903.84 1925.45 1798.43 1925.45 1781.07C1925.45 1763.71 1843.36 1879.56 1688.75 1920.72C1534.13 1961.87 1512.32 1929.54 1512.32 1929.54L1512.28 1929.58Z" fill="#9589C4"/>
</g>
<g style="mix-blend-mode:soft-light" opacity="0.49">
<path d="M1479.83 2127.07C1479.83 2127.07 1558.65 2142.7 1705.8 2071.72C1852.95 2000.74 1937.32 1903.27 1937.32 1903.27C1937.32 1903.27 1682.15 2098.27 1479.87 2127.07H1479.83Z" fill="#9589C4"/>
</g>
<g style="mix-blend-mode:multiply" opacity="0.49">
<path d="M836.285 1509.93C836.285 1509.93 957.214 1042.06 1334.23 925.953C1711.25 809.805 1884.11 980.753 1899.75 995.465C1915.41 1010.18 1662.41 881.524 1317.39 995.465C972.367 1109.41 871.372 1457.3 876.411 1534.13C881.449 1611 1061.85 1121.4 1416.69 1019.85C1771.53 918.303 1962.01 1079.14 1982.2 1114.48C2002.39 1149.83 1748.25 1066.15 1396.5 1214.04C1044.75 1361.89 888.217 1779.33 888.217 1779.33C888.217 1779.33 818.006 1674.84 836.285 1509.96V1509.93Z" fill="#4A001D"/>
</g>
<g style="mix-blend-mode:soft-light" opacity="0.49">
<path d="M1131.42 1600.27C1080.93 1706.93 1351.14 1287.61 1646.44 1205.78C1941.73 1123.95 2083.99 1282.79 2112.61 1308.02C2141.22 1333.25 1903.93 1167.9 1703.22 1223.43C1502.52 1278.97 1385.12 1419.1 1372.51 1468.34C1359.89 1517.59 1739.85 1372.13 1963.29 1400.04C2186.72 1427.96 2195.29 1524.87 2195.29 1524.87C2195.29 1524.87 2199.85 1239.51 1995.73 1177.2C1791.6 1114.9 1449.49 1147.71 1131.39 1600.23L1131.42 1600.27Z" fill="#9589C4"/>
</g>
<g style="mix-blend-mode:soft-light" opacity="0.49">
<path d="M1580.87 1271.67C1430.66 1349.05 1709.56 1355.42 1940.57 1385.35C2171.57 1415.29 1937.18 1088.14 1580.87 1271.67Z" fill="#9589C4"/>
</g>
<g style="mix-blend-mode:soft-light" opacity="0.49">
<path d="M1026.32 2017.35C977.407 1930.77 1159.17 1639.63 1144.02 1653.09C1128.86 1666.55 1014.41 1821.57 990.868 1882.92C967.293 1944.27 1026.32 2017.38 1026.32 2017.38V2017.35Z" fill="#FFFEFE"/>
<path d="M1058.21 1882.89C1040.49 1917.79 1080.94 1884.36 1097.35 1845.52C1113.75 1806.68 1074.62 1850.6 1058.21 1882.89Z" fill="#FFFEFE"/>
<path d="M1237.43 1784.39C1237.43 1784.39 1138.13 1925.33 1125.29 1970.75C1112.46 2016.21 1288.59 1757.03 1320.77 1709.44C1352.92 1661.88 1237.43 1784.39 1237.43 1784.39Z" fill="#FFFEFE"/>
<path d="M1532.85 1607.04C1487.83 1625.36 1449.54 1683.73 1445.76 1698.51C1441.97 1713.26 1535.39 1642.94 1568.19 1614.99C1601 1587.03 1558.08 1596.78 1532.85 1607.04Z" fill="#FFFEFE"/>
<path d="M1389.88 1377.87C1373.92 1400.31 1410 1377.02 1422.62 1361.87C1435.23 1346.72 1400.07 1363.56 1389.88 1377.87Z" fill="#FFFEFE"/>
<path d="M1218.09 1215.49C1194.78 1235.98 1239.5 1220.53 1326.41 1164.99C1413.32 1109.46 1636.27 1077.57 1660.28 1072.5C1684.3 1067.42 1425.08 1033.77 1218.09 1215.53V1215.49Z" fill="#FFFEFE"/>
<path d="M1630.05 2150C1571.9 2152.13 1758.07 2181.56 1861.31 2098.25C1964.55 2014.95 1801.73 2143.71 1630.05 2150Z" fill="#FFFEFE"/>
</g>
<g style="mix-blend-mode:multiply" opacity="0.8">
<path d="M1194.54 1257.53C1163.72 1289.01 1291.3 1267.79 1401.97 1211.74C1512.64 1155.69 1561.96 1117 1561.96 1117C1561.96 1117 1311.53 1138.03 1194.54 1257.53Z" fill="#4A001D"/>
</g>
<g style="mix-blend-mode:multiply" opacity="0.8">
<path d="M1055.66 1406.47C1043.53 1403.46 1092.7 1337.48 1142.35 1324.86C1192 1312.25 1082.58 1413.24 1055.66 1406.47Z" fill="#4A001D"/>
</g>
<g style="mix-blend-mode:multiply" opacity="0.8">
<path d="M1597.46 2008.66C1487.3 2025.32 1550.53 2077.22 1651.52 2052.79C1752.51 2028.37 1884.04 1914.51 1893.6 1903.29C1903.16 1892.07 1733.61 1988.06 1597.49 2008.66H1597.46Z" fill="#4A001D"/>
</g>
<g style="mix-blend-mode:multiply" opacity="0.8">
<path d="M1674.22 1652.6C1548.25 1706.45 1717.17 1645.62 1756.31 1664.92C1795.4 1684.2 1926.85 1613.95 1937.3 1617.52C1947.74 1621.08 1830.75 1585.67 1674.22 1652.6Z" fill="#4A001D"/>
</g>
<g style="mix-blend-mode:multiply" opacity="0.8">
<path d="M1025.4 1157.38C1006.05 1178.41 1177.73 1023.57 1351.07 961.307C1524.45 899.041 1168.46 916.695 1025.4 1157.38Z" fill="#4A001D"/>
</g>
<g style="mix-blend-mode:multiply" opacity="0.8">
<path d="M1101.75 1235.37C1075.49 1265.9 1354.42 1095.1 1446.14 1053.87C1537.87 1012.64 1283.32 1002.86 1101.75 1235.37Z" fill="#4A001D"/>
</g>
<g style="mix-blend-mode:soft-light" opacity="0.49">
<path d="M1261.63 1016.76C1145.74 1097.64 1402.82 983.774 1611.1 984.326C1819.38 984.877 1963.3 1066.75 1963.3 1066.75C1963.3 1066.75 1794.52 835.334 1261.63 1016.76Z" fill="#9589C4"/>
</g>
<path style="mix-blend-mode:screen" d="M1516.11 2225.39C1892.05 2225.39 2196.81 1920.62 2196.81 1544.68C2196.81 1168.74 1892.05 863.98 1516.11 863.98C1140.17 863.98 835.408 1168.74 835.408 1544.68C835.408 1920.62 1140.17 2225.39 1516.11 2225.39Z" fill="url(#paint4_radial_1268_96)"/>
<g style="mix-blend-mode:soft-light" opacity="0.5">
<path d="M1619.63 1371.54C1504.81 1405.67 1811.8 1381.77 1949.43 1377.72C2087.02 1373.67 2139.02 1426.97 2130.71 1407.92C2122.36 1388.83 2025.82 1250.8 1619.67 1371.58L1619.63 1371.54Z" fill="#1F00CE"/>
</g>
<g style="mix-blend-mode:soft-light">
<path d="M1940.56 1385.37C1865.57 1390.99 1982.86 1388.79 2039.02 1405.23C2095.18 1421.63 2061.75 1376.28 1940.56 1385.37Z" fill="#1F00CE"/>
</g>
<g style="mix-blend-mode:soft-light">
<path d="M1648.98 1252.74C1492.04 1311.36 1861.38 1280.91 2024.49 1311.29C2187.57 1341.67 1977.19 1130.12 1648.98 1252.74Z" fill="#1F00CE"/>
</g>
<g style="mix-blend-mode:soft-light" opacity="0.5">
<path d="M1245.04 1690.81C1157.73 1792.58 1113.45 1908.4 1113.45 1908.4C1113.45 1908.4 1314.89 1641.82 1354.86 1607.88C1394.84 1573.93 1270.38 1661.28 1245.04 1690.78V1690.81Z" fill="#1F00CE"/>
</g>
<g style="mix-blend-mode:soft-light">
<path d="M1314.25 1818.54C1233.63 1969.3 1330.07 1892.06 1375.9 1791.07C1421.76 1690.08 1334.67 1780.37 1314.25 1818.54Z" fill="#1F00CE"/>
</g>
<g style="mix-blend-mode:soft-light">
<path d="M983.06 1625.27C942.456 1711.56 1150.77 1390.7 1194.54 1332.55C1238.31 1274.37 1088.03 1402.25 983.06 1625.27Z" fill="#1F00CE"/>
</g>
<g style="mix-blend-mode:soft-light">
<path d="M1610.95 2134.76C1610.95 2134.76 1869.25 2147.27 1978.67 2030.57C2088.08 1913.87 2112.61 1822.95 2112.61 1822.95C2112.61 1822.95 2013.9 2094.71 1610.95 2134.76Z" fill="#1F00CE"/>
</g>
<g style="mix-blend-mode:soft-light">
<path d="M1737.48 2087.92C1737.48 2087.92 1973.74 2039.37 2043.62 1915.24C2113.5 1791.11 2112.66 1785.05 2112.66 1785.05C2112.66 1785.05 1982.5 2012.82 1737.48 2087.92Z" fill="#1F00CE"/>
</g>
<g style="mix-blend-mode:soft-light">
<path d="M1113.41 1187.45C1113.41 1187.45 1347.58 1018.16 1539.49 988.039C1731.4 957.917 1347.03 907.015 1113.41 1187.45Z" fill="#1F00CE"/>
</g>
<g style="mix-blend-mode:soft-light">
<path d="M1345.55 1130.49C1297.92 1161.86 1443.09 1121.62 1450.11 1116.36C1457.1 1111.1 1420.84 1080.87 1345.55 1130.49Z" fill="#1F00CE"/>
</g>
<defs>
<radialGradient id="paint0_radial_1268_96" cx="0" cy="0" r="1" gradientUnits="userSpaceOnUse" gradientTransform="translate(1519.29 1536.62) scale(1052.51)">
<stop offset="0.47" stop-color="#7E00E1"/>
<stop offset="0.51" stop-color="#6500C9"/>
<stop offset="0.61" stop-color="#46008C"/>
<stop offset="0.71" stop-color="#2D005A" stop-opacity="0"/>
<stop offset="0.79" stop-color="#190033" stop-opacity="0"/>
<stop offset="0.88" stop-color="#0B0017" stop-opacity="0"/>
<stop offset="0.95" stop-color="#030006" stop-opacity="0"/>
<stop offset="1" stop-opacity="0"/>
</radialGradient>
<radialGradient id="paint1_radial_1268_96" cx="0" cy="0" r="1" gradientUnits="userSpaceOnUse" gradientTransform="translate(1598.48 1531.06) scale(772.342)">
<stop offset="0.47" stop-color="#00B4E1"/>
<stop offset="0.51" stop-color="#00A1C9"/>
<stop offset="0.61" stop-color="#00708C"/>
<stop offset="0.71" stop-color="#00485A"/>
<stop offset="0.79" stop-color="#002933"/>
<stop offset="0.88" stop-color="#001217" stop-opacity="0"/>
<stop offset="0.95" stop-color="#000406" stop-opacity="0"/>
<stop offset="1" stop-opacity="0"/>
</radialGradient>
<radialGradient id="paint2_radial_1268_96" cx="0" cy="0" r="1" gradientUnits="userSpaceOnUse" gradientTransform="translate(1692.35 1247.51) scale(993.948 993.948)">
<stop stop-color="white"/>
<stop offset="0.19" stop-color="#FCFCFC"/>
<stop offset="0.32" stop-color="#F3F2F6"/>
<stop offset="0.44" stop-color="#E5E3EB"/>
<stop offset="0.54" stop-color="#D1CDDC"/>
<stop offset="0.64" stop-color="#B7B0C8"/>
<stop offset="0.74" stop-color="#978DAF"/>
<stop offset="0.83" stop-color="#706392"/>
<stop offset="0.92" stop-color="#453471"/>
<stop offset="1" stop-color="#16004D"/>
</radialGradient>
<linearGradient id="paint3_linear_1268_96" x1="1575.83" y1="1888.38" x2="1575.83" y2="1822.77" gradientUnits="userSpaceOnUse">
<stop stop-color="#110015"/>
<stop offset="0.07" stop-color="#100012"/>
<stop offset="0.44" stop-color="#100009"/>
<stop offset="1" stop-color="#100007"/>
</linearGradient>
<radialGradient id="paint4_radial_1268_96" cx="0" cy="0" r="1" gradientUnits="userSpaceOnUse" gradientTransform="translate(1474.29 1536.3) rotate(-90) scale(836.719 836.719)">
<stop/>
<stop offset="0.27" stop-color="#010002"/>
<stop offset="0.41" stop-color="#050009"/>
<stop offset="0.52" stop-color="#0C0017"/>
<stop offset="0.61" stop-color="#17002A"/>
<stop offset="0.69" stop-color="#240042"/>
<stop offset="0.77" stop-color="#350060"/>
<stop offset="0.84" stop-color="#480084"/>
<stop offset="0.9" stop-color="#5F00AE"/>
<stop offset="0.96" stop-color="#7800DB"/>
<stop offset="1" stop-color="#8C00FF"/>
</radialGradient>
</defs>
</svg>
