<svg width="7921" height="7868" viewBox="0 0 7921 7868" fill="none" xmlns="http://www.w3.org/2000/svg">
<path style="mix-blend-mode:screen" d="M3960.55 7867.49C6147.82 7867.49 7920.95 6106.33 7920.95 3933.81C7920.95 1761.3 6147.82 0.132812 3960.55 0.132812C1773.28 0.132812 0.146484 1761.3 0.146484 3933.81C0.146484 6106.33 1773.28 7867.49 3960.55 7867.49Z" fill="url(#paint0_radial_1338_4)"/>
<mask id="mask0_1338_4" style="mask-type:luminance" maskUnits="userSpaceOnUse" x="156" y="706" width="6951" height="6904">
<path d="M3631.28 7609.72C5550.59 7609.72 7106.5 6064.31 7106.5 4157.94C7106.5 2251.58 5550.59 706.168 3631.28 706.168C1711.96 706.168 156.051 2251.58 156.051 4157.94C156.051 6064.31 1711.96 7609.72 3631.28 7609.72Z" fill="white"/>
</mask>
<g mask="url(#mask0_1338_4)">
<path d="M7106.43 706.18H155.975V7609.73H7106.43V706.18Z" fill="#4B193F"/>
<path fill-rule="evenodd" clip-rule="evenodd" d="M6812.16 3133.67C7198.02 4206.8 7105.83 5334.95 6645.05 6291.33C6414.65 6769.53 6092.06 7204.82 5690.99 7568.69C5640.86 7614.19 5589.41 7658.58 5537.02 7701.85V7628.55H221.097V7743.44C168.897 7701.66 117.824 7658.58 67.69 7614.38H137.164V1495.44H46.8477C447.922 1131.39 927.484 838.765 1471.83 645.735V687.512H4299.06V643.684C4424.87 688.444 4548.42 738.986 4669.34 795.123C5635.79 1245.34 6426.29 2060.35 6812.16 3133.48V3133.67Z" fill="#4B193F"/>
<path fill-rule="evenodd" clip-rule="evenodd" d="M6792.62 3140.57C7176.42 4208.48 7084.79 5331.03 6626.45 6282.56C6397.18 6758.33 6076.29 7191.39 5677.28 7553.57C5627.33 7598.89 5576.26 7643.09 5524.06 7685.99V7628.36H234.234V7727.21C182.41 7685.62 131.525 7642.91 81.5782 7598.71H137.158V1510.54H60.9238C459.933 1148.35 937.241 857.224 1478.95 664.94V687.507H4292.11V662.889C4417.35 707.276 4540.34 757.632 4660.51 813.583C5622.07 1261.56 6408.83 2072.66 6792.62 3140.38V3140.57Z" fill="#4A183E"/>
<path fill-rule="evenodd" clip-rule="evenodd" d="M6773.13 3147.53C7155.05 4210.03 7063.98 5326.99 6607.71 6273.86C6379.57 6747.39 6060.17 7178.21 5663.23 7538.53C5613.66 7583.66 5562.77 7627.49 5510.76 7670.38V7628.42H247.411V7711.41C195.775 7670.01 145.077 7627.49 95.5063 7583.66H137.191V1525.52H74.8516C471.983 1165.2 946.85 875.374 1485.75 684.209V687.379H3904.77V567.086C4162.2 631.802 4412.31 720.577 4651.53 832.105C5608.4 1277.84 6391.21 2084.84 6773.13 3147.34V3147.53Z" fill="#48173D"/>
<path fill-rule="evenodd" clip-rule="evenodd" d="M6753.61 3154.4C7133.65 4211.68 7042.96 5323.04 6589.12 6265.06C6362.11 6736.17 6044.41 7164.93 5649.34 7523.39C5599.96 7568.15 5549.45 7611.98 5497.62 7654.5V7628.39H260.562V7695.53C209.114 7654.5 158.792 7611.98 109.409 7568.34H137.198V1540.6H88.7539C483.82 1181.95 956.246 893.622 1492.7 703.39C1626.77 655.832 1761.77 615.547 1896.97 582.35V687.537H3899.71V587.199C4155.83 651.542 4404.62 739.944 4642.71 850.726C5594.7 1294.23 6373.57 2097.12 6753.61 3154.4Z" fill="#47173C"/>
<path fill-rule="evenodd" clip-rule="evenodd" d="M6734.13 3161.29C7112.3 4213.16 7021.98 5318.93 6570.4 6256.28C6344.51 6724.96 6028.5 7151.68 5635.31 7508.27C5586.11 7552.85 5535.79 7596.3 5484.34 7638.64V7628.19H273.756V7679.29C222.683 7638.45 172.549 7596.11 123.353 7552.85H137.248V1555.69H102.887C496.075 1198.91 966.06 912.072 1499.7 722.773C1633.2 675.402 1767.27 635.304 1901.9 602.293V687.524H3894.5V606.956C4149.31 670.926 4396.97 758.955 4633.75 869.177C5581.04 1310.44 6355.97 2109.41 6734.13 3161.29Z" fill="#45163B"/>
<path fill-rule="evenodd" clip-rule="evenodd" d="M6714.54 3168.18C7090.83 4214.83 7000.89 5315 6551.56 6247.7C6326.8 6713.95 6012.29 7138.43 5621.16 7493.53C5523.34 7582.31 5420.81 7666.6 5313.6 7746.24V7628.56H286.65V7663.81C235.764 7623.15 185.818 7581.19 136.998 7537.92V1570.6H116.531C507.654 1215.69 975.386 930.156 1506.4 741.975C1639.15 694.977 1772.65 655.066 1906.53 622.055V687.517H3889V626.717C4142.48 690.314 4388.84 777.971 4624.49 887.634C5566.9 1326.66 6338.06 2121.53 6714.17 3168.18H6714.54Z" fill="#44153A"/>
<path fill-rule="evenodd" clip-rule="evenodd" d="M6695.08 3175.09C7069.49 4216.33 6980.11 5310.9 6533.04 6238.94C6309.59 6702.95 5996.58 7125.2 5607.34 7478.43C5510.07 7566.65 5407.92 7650.76 5301.46 7729.83V7628.38H299.861V7647.77C249.351 7607.3 199.593 7565.53 150.96 7522.44C102.328 7479.55 54.635 7435.16 8.06836 7389.84H137.253V1585.72H130.869C519.926 1232.48 985.405 948.625 1513.6 761.191C1777.79 667.567 2045.17 602.478 2312.18 564.432V687.523H3884.18V646.679C4136.35 710.09 4381.58 797.186 4615.92 906.29C5553.63 1343.08 6320.67 2134.03 6695.08 3175.27V3175.09Z" fill="#431439"/>
<path fill-rule="evenodd" clip-rule="evenodd" d="M6675.53 3181.96C7047.87 4217.98 6959.06 5306.96 6514.23 6230.15C6291.91 6691.74 5980.41 7111.93 5593.41 7463.3C5496.71 7551.14 5395.13 7634.69 5289.04 7713.4V7628.35H466.761V7749.02C362.549 7673.48 261.717 7592.92 164.829 7507.31C116.384 7464.6 69.0664 7420.59 22.6875 7375.45H137.227V1667.38H73.0097C96.6686 1644.81 120.515 1622.62 144.737 1600.61C531.917 1249.24 994.767 966.689 1520.33 780.374C1783.02 687.123 2049.09 622.407 2314.78 584.547V687.496H3878.9V666.421C4129.94 729.459 4373.67 815.996 4606.88 924.726C5539.71 1359.28 6302.99 2146.13 6675.34 3182.15L6675.53 3181.96Z" fill="#411438"/>
<path fill-rule="evenodd" clip-rule="evenodd" d="M6656 3189.09C7026.46 4219.7 6938.02 5303.09 6495.64 6221.61C6274.45 6680.78 5964.63 7098.92 5579.52 7448.42C5483.19 7535.89 5382.17 7618.89 5276.65 7697.4V7628.58H478.963V7732.65C375.127 7657.49 275.046 7577.3 178.721 7492.25C130.652 7449.73 83.3339 7405.9 37.3306 7360.95H137.224V1750.04H17.8027C63.6183 1704.35 110.561 1659.59 158.629 1615.76C543.743 1266.26 1004.34 985.201 1527.28 799.631C1788.65 706.94 2053.4 642.41 2317.78 604.737V687.357H3106.79V570.047C3627.66 598.209 4134.07 726.895 4598.05 943.051C5526.19 1375.36 6285.53 2158.11 6656 3188.91V3189.09Z" fill="#401337"/>
<path fill-rule="evenodd" clip-rule="evenodd" d="M6636.44 3195.98C7005.03 4221.36 6916.96 5299.16 6476.83 6212.83C6256.77 6669.76 5948.64 7085.47 5565.4 7433.3C5469.64 7520.21 5369.19 7602.83 5264.22 7680.97V7628.57H491.327V7716.22C388.054 7641.44 288.349 7561.61 192.587 7476.94C144.706 7434.61 97.7633 7391.15 51.7599 7346.39H137.195V1764.39H32.6074C78.0475 1718.88 124.802 1674.31 172.683 1630.85C555.919 1283.03 1014.08 1003.46 1534.19 819.011C2054.31 634.56 2587.2 562.757 3105.63 590.732C3623.87 618.708 4127.47 746.648 4589.19 961.871C5512.45 1391.94 6267.85 2170.78 6636.44 3196.16V3195.98Z" fill="#3F1236"/>
<path fill-rule="evenodd" clip-rule="evenodd" d="M6616.91 3202.92C6983.62 4222.9 6896.12 5295.29 6458.06 6204.11C6239.12 6658.62 5932.49 7072.28 5551.32 7418.24C5455.94 7504.78 5356.04 7587.02 5251.64 7664.61V7628.43H503.72V7699.48C401.011 7625.07 301.869 7545.81 206.482 7461.51C158.789 7419.36 112.034 7376.09 66.4064 7331.52H137.195V1778.8H47.2539C92.5062 1733.48 139.073 1689.27 186.766 1646.01C567.937 1300.04 1023.84 1021.78 1541.33 838.266C2058.82 654.748 2588.89 583.318 3104.51 611.107C3620.12 639.082 4121.09 766.277 4580.37 980.194C5498.94 1408.03 6250.39 2182.76 6617.1 3202.92H6616.91Z" fill="#3E1135"/>
<path fill-rule="evenodd" clip-rule="evenodd" d="M6597.37 3209.78C6962.2 4224.54 6875.08 5291.15 6439.45 6195.49C6221.64 6647.57 5916.7 7059.18 5537.41 7403.28C5442.59 7489.26 5343.26 7571.13 5239.23 7648.34V7628.57H515.908V7683.22C413.762 7609.18 314.996 7530.29 220.172 7446.55C172.667 7404.59 126.288 7361.5 80.8478 7317.3H136.991V1793.12H61.6953C106.76 1747.98 152.951 1703.97 200.456 1660.89C579.75 1316.79 1033.21 1040.02 1547.89 857.436C2062.56 674.85 2590 603.794 3102.99 631.582C3615.97 659.371 4114.31 786.006 4571.15 998.805C5484.84 1424.4 6232.53 2195.21 6597.18 3209.78H6597.37Z" fill="#3C1134"/>
<path fill-rule="evenodd" clip-rule="evenodd" d="M6577.82 3216.66C6940.78 4226.01 6854.03 5287.21 6420.66 6186.71C6203.98 6636.55 5900.54 7045.92 5523.31 7388.15C5429.05 7473.76 5330.1 7555.07 5226.83 7631.91V7628.37H528.286V7666.41C426.703 7592.74 328.499 7514.23 234.239 7430.86C187.109 7389.27 140.918 7346.38 95.6659 7302.36H137.163V1807.46H76.5137C121.39 1762.69 167.394 1718.87 214.524 1675.97C591.751 1333.55 1042.77 1058.28 1555.01 876.811C2067.05 695.158 2591.68 624.474 3101.85 652.076C3612.01 679.678 4107.91 805.567 4562.31 1017.43C5471.3 1440.98 6214.87 2207.5 6577.82 3216.85V3216.66Z" fill="#3B1033"/>
<path fill-rule="evenodd" clip-rule="evenodd" d="M6558.31 3223.56C6919.2 4227.69 6833.02 5283.1 6402.09 6177.94C6186.53 6625.36 5884.79 7032.49 5509.44 7373.04C5415.55 7458.09 5317.16 7539.22 5214.45 7615.5C5163 7653.73 5110.61 7690.66 5056.91 7726.65V7628.37H540.696V7650C439.676 7576.7 342.037 7498.56 248.152 7415.75C201.21 7374.35 155.206 7331.64 110.33 7287.81H137.368V1821.82H91.5527C136.054 1777.24 181.87 1733.6 228.812 1691.08C603.974 1350.52 1052.74 1076.74 1562.16 896.019C2071.58 715.299 2593.39 644.988 3100.92 672.404C3608.46 699.819 4101.73 825.148 4553.69 1035.71C5457.8 1457.02 6197.61 2219.44 6558.5 3223.56H6558.31Z" fill="#3A0F32"/>
<path fill-rule="evenodd" clip-rule="evenodd" d="M6538.81 3230.47C6897.83 4229.19 6812.2 5279.2 6383.34 6169.18C6168.91 6614.18 5868.67 7019.26 5495.57 7357.95C5402.25 7442.62 5304.42 7523.19 5202.09 7599.09C5151.01 7637.14 5098.81 7673.88 5045.49 7709.5V7628.19H552.929V7633.22C452.473 7560.49 355.208 7482.72 261.887 7400.28C215.133 7359.07 169.505 7316.73 124.816 7273.09H137.209V1836H106.039C150.353 1791.61 195.98 1748.34 242.547 1706.01C615.832 1367.32 1062.16 1094.84 1568.76 915.24C2075.36 735.452 2594.54 665.514 3099.45 692.93C3604.36 720.159 4094.81 844.928 4544.52 1054.37C5443.93 1473.44 6179.8 2231.94 6538.81 3230.66V3230.47Z" fill="#390F31"/>
<path fill-rule="evenodd" clip-rule="evenodd" d="M6519.25 3237.53C6876.39 4231.02 6791.14 5275.25 6364.53 6160.57C6151.23 6603.14 5852.67 7006.17 5481.45 7343C5388.7 7427.29 5291.24 7507.3 5189.66 7582.84C5138.78 7620.7 5086.95 7657.25 5033.81 7692.69V7628.16H717.757V7721.78C666.121 7688.02 615.235 7652.96 565.289 7616.78C365.315 7471.87 178.86 7307.56 9.11719 7124.97H137.363V1850.33H120.84C164.965 1806.13 210.218 1763.04 256.597 1720.9C627.816 1383.89 1071.89 1113.09 1575.86 934.231C2583.8 576.706 3641.13 655.783 4535.85 1072.61C5430.38 1489.45 6162.3 2243.85 6519.44 3237.34L6519.25 3237.53Z" fill="#370E30"/>
<path fill-rule="evenodd" clip-rule="evenodd" d="M6499.75 3244.47C6855.01 4232.56 6770.14 5271.38 6345.97 6151.85C6133.79 6592.18 5836.93 6992.97 5467.59 7327.93C5375.2 7411.67 5278.5 7491.31 5177.3 7566.65C5126.79 7604.33 5074.96 7640.69 5022.39 7675.94V7628.39H729.239V7704.85C677.791 7671.28 627.281 7636.4 577.522 7600.41C378.675 7456.24 193.159 7292.68 24.1671 7111.22H137.016V1999.39H7.08008C90.2617 1907.81 177.95 1819.97 270.332 1736.23C639.673 1401.09 1081.12 1131.59 1582.46 953.857C2585.15 598.197 3636.65 676.901 4526.49 1091.49C5416.32 1506.09 6144.31 2256.57 6499.56 3244.66L6499.75 3244.47Z" fill="#360D2F"/>
<path fill-rule="evenodd" clip-rule="evenodd" d="M6480.25 3251.37C6833.63 4234.23 6749.13 5267.27 6327.21 6143.27C6116.16 6581.17 5820.8 6979.73 5453.53 7313.19C5361.71 7396.56 5265.38 7475.82 5164.74 7550.61C5114.41 7587.91 5062.97 7624.28 5010.58 7659.34V7628.76H740.716V7688.25C689.643 7654.87 639.321 7620.18 589.937 7584.37C392.029 7441.13 207.64 7278.32 39.5869 7097.78H137.227V2013H22.6875C105.306 1921.98 192.618 1834.51 284.437 1751.15C651.713 1417.87 1090.9 1149.68 1589.62 972.875C2586.86 619.268 3632.92 697.412 4517.87 1109.77C5402.83 1522.12 6127.05 2268.5 6480.25 3251.37Z" fill="#350D2F"/>
<path fill-rule="evenodd" clip-rule="evenodd" d="M6460.69 3258.25C6812.01 4235.71 6728.26 5263.33 6308.6 6134.48C6098.67 6569.96 5805 6966.47 5439.61 7298.07C5256.91 7463.87 5056.37 7613.44 4839.5 7743.43V7628.55H752.331V7670.88C701.446 7637.69 651.5 7603.18 602.304 7567.56C405.522 7425.08 222.072 7263.19 54.9577 7083.78H137.201V2026.59H38.0586C120.301 1935.95 207.05 1849.04 298.494 1766.23C663.892 1434.63 1100.64 1168.12 1596.54 992.252C2588.34 640.509 3628.76 718.28 4509.02 1128.4C5389.28 1538.52 6109.38 2280.98 6460.88 3258.44L6460.69 3258.25Z" fill="#340C2E"/>
<path fill-rule="evenodd" clip-rule="evenodd" d="M6441.2 3265.16C6790.64 4237.39 6707.27 5259.24 6289.86 6125.72C6081.25 6558.97 5788.89 6953.23 5425.56 7282.97C5243.98 7447.84 5044.39 7596.48 4828.83 7725.91V7628.56H917.603V7749.22C813.579 7688.05 712.371 7622.03 614.544 7551.16C418.888 7409.42 236.377 7248.46 70.2016 7069.98H137.235V2040.21H53.4902C135.17 1950.13 221.544 1863.6 312.424 1781.16C675.756 1451.43 1110.25 1186.22 1603.33 1011.28C2589.68 661.404 3624.48 738.803 4499.86 1146.68C5375.24 1554.56 6091.57 2292.92 6441.01 3265.16H6441.2Z" fill="#330B2D"/>
<path fill-rule="evenodd" clip-rule="evenodd" d="M6421.6 3272.04C6769.16 4238.86 6686.17 5255.3 6271.01 6116.94C6063.52 6547.76 5772.86 6939.97 5411.59 7267.84C5230.96 7431.78 5032.49 7579.67 4818.05 7708.36V7628.35H928.234V7731.48C824.774 7670.69 724.13 7605.04 626.865 7534.54C432.149 7393.54 250.764 7233.53 85.5278 7055.98H137.164V2053.81H68.8164C150.12 1964.29 236.118 1878.12 326.435 1796.25C687.703 1468.38 1119.95 1204.66 1610.4 1030.66C2591.49 682.646 3620.46 759.671 4491.15 1165.31C5361.83 1570.95 6074.23 2305.21 6421.79 3272.22L6421.6 3272.04Z" fill="#320B2C"/>
<path fill-rule="evenodd" clip-rule="evenodd" d="M6402.1 3278.95C6747.78 4240.55 6665.35 5251.4 6252.45 6108.19C6046.09 6536.58 5757.11 6926.56 5397.72 7252.75C5218.03 7415.75 5020.87 7562.9 4807.38 7690.84V7628.36H938.964V7713.78C836.066 7653.35 735.985 7587.89 639.284 7517.77C445.695 7377.52 265.249 7218.43 100.951 7041.81H137.378V2067.43H84.4277C165.356 1978.29 250.791 1892.87 340.544 1811.18C699.934 1484.99 1129.55 1222.77 1617.37 1049.88C2593.02 703.919 3616.36 780.385 4482.35 1183.79C5348.34 1587.19 6056.6 2317.53 6402.29 3279.14L6402.1 3278.95Z" fill="#310A2B"/>
<path fill-rule="evenodd" clip-rule="evenodd" d="M6382.58 3285.87C6726.39 4242.06 6644.33 5247.31 6233.68 6099.44C6028.45 6525.59 5740.98 6913.33 5383.65 7237.66C5204.9 7399.73 5008.87 7546.13 4796.69 7673.32V7628.19H949.68V7696.08C847.346 7636.02 747.828 7570.94 651.503 7501.18C459.04 7361.68 279.533 7203.53 116.174 7027.84H137.204V2081.07H99.6504C180.015 1992.48 265.075 1907.43 354.453 1826.3C711.777 1501.98 1139.14 1241.25 1624.33 1069.11C2594.54 725.01 3612.24 801.103 4473.35 1202.27C5334.46 1603.43 6038.97 2329.67 6382.77 3285.87H6382.58Z" fill="#2F092A"/>
<path fill-rule="evenodd" clip-rule="evenodd" d="M6363.06 3292.95C6704.99 4243.92 6623.31 5243.57 6215.1 6091.03C6010.99 6514.77 5725.21 6900.45 5369.76 7222.91C5192.13 7384.24 4997.04 7529.71 4785.99 7656.16V7628.56H960.388V7678.91C858.617 7619.04 759.663 7554.51 663.901 7485.14C472.377 7346.38 293.997 7189.16 131.389 7014.41H137.21V2094.67H115.053C195.042 2006.46 279.538 1921.97 368.353 1841.4C723.799 1518.94 1148.72 1259.52 1631.1 1088.49C2596.04 746.263 3608.12 821.983 4464.34 1220.91C5320.76 1619.84 6021.32 2342.16 6363.06 3292.95Z" fill="#2E092A"/>
<path fill-rule="evenodd" clip-rule="evenodd" d="M6343.51 3299.86C6683.38 4245.43 6602.26 5239.48 6196.3 6082.29C5993.33 6503.59 5709.04 6887.23 5355.66 7207.83C5178.97 7368.22 4985.01 7512.76 4775.27 7638.64V7628.57H970.885V7661.4C869.677 7601.9 771.286 7537.75 676.087 7468.74C485.69 7330.92 308.248 7174.25 146.579 7000.62C106.209 6957.17 66.7775 6912.78 28.4727 6867.09H137.003V2108.49H130.243C209.67 2020.83 293.79 1936.72 382.041 1856.52C735.422 1535.74 1158.09 1278 1637.84 1107.72C2597.34 767.354 3603.78 842.7 4455.31 1239.39C5306.84 1636.08 6003.47 2354.3 6343.51 3299.86Z" fill="#2D0829"/>
<path fill-rule="evenodd" clip-rule="evenodd" d="M6324.18 3306.78C6662.16 4247.12 6581.61 5235.58 6177.72 6073.53C5975.87 6492.6 5693.27 6873.81 5341.77 7192.73C5166.02 7352.19 4973.18 7495.98 4764.57 7621.12C4712.37 7652.46 4659.23 7682.48 4605.15 7711.39V7628.4H981.591V7643.51C880.947 7584.38 783.119 7520.41 688.483 7451.97C499.212 7314.89 322.71 7159.16 161.979 6986.46C121.797 6943.38 82.741 6898.99 44.4362 6853.86H137.006V2255.28H30.3535C67.5318 2209.96 106.024 2165.57 145.644 2121.93C224.694 2034.83 308.251 1951.1 396.127 1871.46C747.63 1552.54 1167.67 1296.1 1644.79 1126.94C2598.84 788.629 3599.65 863.416 4446.49 1257.87C5293.33 1652.32 5986.01 2366.44 6323.99 3306.78H6324.18Z" fill="#2C0828"/>
<path fill-rule="evenodd" clip-rule="evenodd" d="M6304.66 3313.7C6640.77 4248.63 6560.59 5231.5 6159.14 6064.79C5958.41 6481.43 5677.32 6860.59 5327.89 7177.65C5153.26 7336.17 4961.36 7479.22 4753.88 7603.62C4702.05 7634.76 4649.1 7664.6 4595.4 7693.32V7628.23H1144.4V7710.29C1092.95 7683.25 1042.25 7655.09 992.303 7625.81C892.222 7567.06 794.958 7503.46 700.886 7435.2C512.742 7298.87 337.178 7144.07 177.386 6972.31C137.392 6929.41 98.5235 6885.4 60.5942 6840.45H137.204V2267.8H46.6992C83.6897 2222.85 121.995 2178.65 161.238 2135.19C239.913 2048.47 322.907 1965.48 410.22 1886.03C759.658 1568.97 1177.44 1313.84 1651.75 1145.61C2600.36 809.165 3595.53 883.58 4437.49 1275.79C5279.44 1668.01 5968.37 2378.21 6304.47 3313.14L6304.66 3313.7Z" fill="#2B0727"/>
<path fill-rule="evenodd" clip-rule="evenodd" d="M6285.14 3320.56C6619.37 4250.28 6539.57 5227.55 6140.37 6055.99C5940.78 6470.21 5661.38 6847.32 5314 7162.5C5140.32 7320.1 4949.54 7462.4 4743.37 7586.05C4640.29 7647.97 4533.26 7705.22 4422.48 7757.44V7628.39H1154.36V7692.54C1103.29 7665.69 1052.78 7637.71 1003.02 7608.43C903.501 7550.05 806.8 7486.83 713.291 7418.94C526.085 7283.36 351.648 7129.49 192.795 6958.84C153.176 6916.13 114.308 6872.49 76.7544 6827.73H137.404V2281H62.8594C99.6621 2236.24 137.592 2192.23 176.835 2149.15C254.947 2062.98 337.565 1980.36 424.502 1901.47C771.875 1586.1 1187.41 1332.64 1659.08 1165.35C2602.43 830.764 3591.79 904.805 4429.05 1294.78C5266.31 1684.76 5951.1 2390.85 6285.33 3320.56H6285.14Z" fill="#2A0626"/>
<path fill-rule="evenodd" clip-rule="evenodd" d="M6265.64 3327.45C6597.99 4251.75 6518.56 5223.42 6121.81 6047.2C5923.34 6459 5645.63 6834.05 5300.13 7147.56C5127.39 7304.23 4937.74 7445.78 4732.7 7568.69C4630.17 7630.23 4523.71 7687.11 4413.68 7738.96V7628.37H1318.31V7750.71C902.023 7556.75 523.669 7284.27 207.841 6944.84C168.41 6902.31 129.917 6858.86 92.3636 6814.47H137.052V2293.85H78.6562C115.271 2249.28 153.013 2205.64 191.881 2162.74C269.617 2077.14 351.672 1994.89 438.046 1916.56C783.541 1603.05 1196.63 1350.9 1665.49 1184.73C2603.4 852.007 3587.12 925.675 4419.68 1313.41C5252.06 1701.15 5933.1 2403.33 6265.45 3327.63L6265.64 3327.45Z" fill="#290626"/>
<path fill-rule="evenodd" clip-rule="evenodd" d="M6246.1 3334.35C6576.57 4253.44 6497.7 5219.52 6103.01 6038.63C5905.67 6448.19 5629.46 6820.82 5286.03 7132.65C5114.22 7288.57 4925.7 7429 4721.79 7551.35C4619.83 7612.52 4514.11 7669.03 4404.65 7720.69V7628.56H1327.3V7732.44C913.459 7539.6 537.358 7268.8 223.221 6931.23C183.978 6889.08 145.673 6845.81 108.494 6801.61H137.223V2306.92H94.7871C131.214 2262.72 168.768 2219.26 207.448 2176.55C284.809 2091.32 366.301 2009.63 452.299 1931.67C795.728 1620.03 1206.38 1369.37 1672.8 1203.94C2605.26 873.277 3583.53 946.385 4411.03 1331.88C5238.71 1717.38 5915.81 2415.46 6246.1 3334.54V3334.35Z" fill="#280525"/>
<path fill-rule="evenodd" clip-rule="evenodd" d="M6226.54 3341.25C6554.95 4254.92 6476.65 5215.59 6084.21 6029.86C5887.99 6436.99 5613.47 6807.57 5271.92 7117.54C5101.24 7272.52 4913.66 7412.21 4711.06 7533.81C4609.66 7594.61 4504.51 7650.93 4395.79 7702.22V7628.37H1336.1V7713.79C924.697 7522.06 550.662 7252.75 238.402 6917.24C160.29 6833.31 86.1215 6745.28 16.2715 6653.33H137.195V2319.59H110.719C146.959 2275.58 184.325 2232.31 222.63 2189.97C299.427 2105.3 380.731 2023.99 465.978 1946.59C807.529 1636.62 1215.74 1387.45 1679.34 1223.15C3533.56 565.54 5569.35 1513.9 6226.35 3341.43L6226.54 3341.25Z" fill="#280524"/>
<path fill-rule="evenodd" clip-rule="evenodd" d="M6207.07 3348.32C6533.6 4256.78 6455.67 5211.67 6065.67 6021.27C5870.58 6425.98 5597.57 6794.51 5258.08 7102.61C5088.34 7256.66 4901.88 7395.6 4700.41 7516.46C4599.58 7576.88 4494.99 7632.83 4386.83 7683.93V7628.54H1345.17V7695.5C936.205 7504.89 564.235 7237.26 253.853 6903.42C176.305 6820.06 102.512 6732.4 33.0371 6641.02H137.249V2466.17H22.1465C157.152 2284.89 310.372 2115.73 480.115 1961.68C819.601 1653.58 1225.56 1405.91 1686.34 1242.35C3529.86 588.657 5553.63 1531.42 6206.88 3348.32H6207.07Z" fill="#270424"/>
<path fill-rule="evenodd" clip-rule="evenodd" d="M6187.5 3355.29C6512.15 4258.33 6434.6 5207.81 6046.86 6012.57C5853.08 6415.04 5581.57 6781.33 5243.96 7087.57C5075.15 7240.68 4890.01 7378.88 4689.66 7498.99C4589.39 7559.04 4485.56 7614.62 4377.97 7665.35V7628.42H1353.95V7676.72C947.242 7487.24 577.713 7221.1 269.021 6889.31C191.848 6806.32 118.618 6719.41 49.3316 6628.4H137.02V2477.98H38.6289C172.884 2297.82 325.164 2129.6 493.968 1976.48C831.389 1670.24 1235.09 1423.87 1693.25 1261.43C3525.87 611.473 5538 1548.83 6187.31 3355.1L6187.5 3355.29Z" fill="#260423"/>
<path fill-rule="evenodd" clip-rule="evenodd" d="M6167.97 3362.14C6490.74 4259.96 6413.76 5203.66 6028.27 6003.75C5835.62 6403.8 5565.79 6767.85 5230.25 7072.41C5062.57 7224.59 4878.37 7362.05 4679.15 7481.41C4579.63 7541.09 4476.17 7596.48 4369.33 7646.83V7628.37H1362.96V7658.21C958.696 7469.84 591.232 7205.2 284.418 6875.46C207.808 6793.03 134.766 6706.49 66.0424 6616.04H137.207V2490.06H55.5273C189.031 2311.02 340.373 2143.72 508.05 1991.54C843.593 1686.98 1244.86 1442.1 1700.19 1280.59C3522.12 634.55 5522.23 1566.31 6167.78 3361.95L6167.97 3362.14Z" fill="#250322"/>
<path fill-rule="evenodd" clip-rule="evenodd" d="M6148.5 3369.01C6469.4 4261.42 6392.79 5199.71 6009.55 5994.96C5818.03 6392.58 5549.71 6754.58 5216.23 7057.27C5049.49 7208.52 4866.42 7345.23 4668.32 7463.84C4569.37 7523.15 4466.66 7578.17 4360.38 7628.34H1372.04V7639.72C970.214 7452.47 604.815 7189.5 299.879 6861.63C223.645 6779.76 151.166 6693.59 82.8177 6603.88H137.271V2502.33H72.3027C205.055 2324.23 355.458 2158.05 522.197 2006.8C855.675 1704.11 1254.5 1460.72 1707.39 1300.14C3518.42 657.831 5506.9 1584.19 6148.5 3369.2V3369.01Z" fill="#240322"/>
<path fill-rule="evenodd" clip-rule="evenodd" d="M6128.9 3375.94C6766.75 5150.32 5824.34 7106.35 4024.01 7744.75V7628.37H1686.85V7746.43C1582.83 7709.5 1480.68 7667.72 1380.79 7621.1C981.407 7434.97 618.262 7173.49 315.015 6847.67C239.157 6766.17 167.241 6680.75 99.2689 6591.42H137.198V2514.3H88.7539C220.755 2337.31 370.219 2172.07 536.019 2021.75C867.619 1720.92 1264 1478.84 1714.08 1319.2C3514.41 680.802 5490.86 1601.56 6128.71 3375.94H6128.9Z" fill="#230221"/>
<path fill-rule="evenodd" clip-rule="evenodd" d="M6109.36 3382.85C6743.46 5146.6 5806.68 7090.88 4017.06 7725.54V7628.38H1693.79V7727.22C1590.33 7690.48 1488.94 7648.89 1389.61 7602.64C992.475 7417.63 631.583 7157.65 330.214 6833.88C254.919 6752.94 183.379 6667.89 115.782 6579.12H137.188V2526.43H105.455C236.518 2350.56 385.23 2186.25 550.092 2036.86C879.626 1737.71 1273.75 1497.31 1721.21 1338.6C3510.83 703.935 5475.46 1619.29 6109.55 3383.03L6109.36 3382.85Z" fill="#230221"/>
<path fill-rule="evenodd" clip-rule="evenodd" d="M6089.86 3389.78C6720.02 5142.9 5789.06 7075.43 4010.33 7706.36V7628.41H1701.14V7708.04C1598.43 7671.49 1497.41 7630.27 1398.84 7584.21C1004.15 7400.32 645.319 7142.01 345.828 6820.11C270.908 6739.54 199.744 6655.24 132.71 6566.84H137.404V2538.58H122.383C252.694 2363.64 400.468 2200.45 564.203 2051.81C891.86 1754.53 1283.55 1515.43 1728.18 1357.84C3506.92 727.09 5459.71 1636.85 6090.05 3389.96L6089.86 3389.78Z" fill="#220220"/>
<path fill-rule="evenodd" clip-rule="evenodd" d="M6070.31 3396.69C6696.71 5139.18 5771.19 7059.96 4003.35 7686.98V7628.42H1708.06V7688.85C1605.92 7652.66 1505.65 7611.45 1407.45 7565.76C1015.2 7382.98 658.623 7126.17 360.822 6806.13C286.465 6726.12 215.676 6642.2 149.018 6554.35C115.595 6510.53 83.2992 6465.77 52.1296 6419.89H137.189V2682.95H44.8066C75.0374 2638.19 106.395 2593.99 138.691 2550.53C268.252 2376.71 415.087 2214.46 577.882 2066.75C903.474 1771.33 1292.72 1533.72 1734.73 1376.88C3502.76 749.857 5443.72 1654.21 6070.12 3396.69H6070.31Z" fill="#210120"/>
<path fill-rule="evenodd" clip-rule="evenodd" d="M6050.82 3403.71C6673.46 5135.57 5753.58 7044.6 3996.44 7667.89V7628.54H1715.24V7669.57C1613.65 7633.58 1513.95 7592.73 1416.5 7547.23C1026.69 7365.57 672.182 7110.44 376.258 6792.27C302.277 6712.82 232.052 6629.26 165.769 6542.17C132.534 6498.53 100.426 6453.95 69.4439 6408.63H137.416V2694.45H62.3086C92.3516 2649.87 123.521 2606.05 155.63 2562.78C284.439 2390.08 430.336 2228.75 592.192 2081.98C915.718 1788.23 1302.71 1552.12 1742.09 1396.39C3499.23 773.292 5428.37 1672.04 6051.01 3403.71H6050.82Z" fill="#21011F"/>
<path fill-rule="evenodd" clip-rule="evenodd" d="M6031.24 3410.62C6649.94 5131.85 5735.88 7029.32 3989.44 7648.69V7628.55H2030.07V7743.43C1821.65 7691.02 1619.05 7619.03 1425.27 7528.77C1037.72 7348.23 685.461 7094.59 391.415 6778.47C317.998 6699.39 247.96 6616.59 182.241 6529.86C149.381 6486.6 117.273 6442.21 86.4791 6397.07H137.177V2705.64H79.3438C109.199 2661.26 140.181 2617.61 172.102 2574.72C299.972 2403.14 445.118 2242.75 606.035 2096.9C927.683 1805.03 1312.23 1570.22 1748.8 1415.42C3495.23 796.05 5412.54 1689.21 6031.24 3410.43V3410.62Z" fill="#20011F"/>
<path fill-rule="evenodd" clip-rule="evenodd" d="M6011.76 3417.53C6626.7 5128.13 5718.28 7013.85 3982.54 7629.31V7628.37H2035.38V7723.49C1828.08 7671.46 1626.79 7600.03 1434.33 7510.32C1049.22 7330.9 699.214 7078.75 406.858 6764.68C260.774 6607.65 129.148 6434.95 14.7965 6248.26H137.222V2851.13H10.8535C65.682 2760.49 125.017 2672.27 188.67 2587.04C315.79 2416.39 459.997 2257.12 619.788 2112.21C939.37 1822.2 1321.67 1588.88 1755.6 1435.02C3491.15 819.563 5396.63 1707.13 6011.57 3417.72L6011.76 3417.53Z" fill="#20001E"/>
<path fill-rule="evenodd" clip-rule="evenodd" d="M5992.23 3424.39C6603.41 5124.35 5700.44 6998.33 3975.59 7610.05C3867.81 7648.28 3759.28 7680.74 3650.56 7707.41V7628.33H2040.44V7703.67C1834.46 7652.01 1634.49 7580.96 1443.15 7491.81C1060.48 7313.51 712.544 7063.04 422.065 6750.84C276.92 6594.74 146.045 6423.15 32.4448 6237.58H137.22V2861.53H28.6895C83.3302 2771.45 142.289 2683.79 205.38 2599.12C331.748 2429.59 475.016 2271.25 633.868 2127.27C951.573 1838.94 1331.43 1607.11 1762.55 1454.18C3487.39 842.457 5381.04 1724.61 5992.23 3424.58V3424.39Z" fill="#1F001E"/>
<path fill-rule="evenodd" clip-rule="evenodd" d="M5972.72 3431.32C6579.96 5120.66 5682.8 6982.88 3968.66 7590.87C3754.42 7666.78 3537.54 7719.56 3320.86 7750.52V7628.36H2045.72V7683.75C1841.05 7632.28 1642.2 7561.78 1452.18 7473.19C1071.95 7296.01 726.08 7047.04 437.48 6736.88C293.085 6581.71 163.149 6411.25 50.3002 6226.8H137.425V2871.82H46.5449C100.81 2782.3 159.394 2695.2 222.109 2611.09C347.726 2442.67 490.055 2285.27 647.969 2142.03C963.608 1855.57 1341.02 1625.24 1769.51 1473.24C3483.65 865.429 5365.47 1741.99 5972.72 3431.32Z" fill="#1F001E"/>
</g>
<path style="mix-blend-mode:multiply" d="M7106.46 4157.97C7106.46 6064.39 5550.61 7609.75 3631.24 7609.75C1711.86 7609.75 156.01 6064.39 156.01 4157.97C156.01 2251.55 1711.86 837.117 3631.24 837.117C5550.61 837.117 7106.46 2251.55 7106.46 4157.97Z" fill="url(#paint1_radial_1338_4)"/>
<path fill-rule="evenodd" clip-rule="evenodd" d="M3690.93 5774.36C3458.84 5928.04 3974.46 5881.79 4038.86 5898.38C4103.27 5915.17 4000.18 5838.33 4180.63 5710.2C4361.07 5582.26 4090.31 5543.84 3987.23 5582.26C3884.14 5620.68 3690.74 5774.36 3690.74 5774.36H3690.93Z" fill="url(#paint2_linear_1338_4)"/>
<g style="mix-blend-mode:soft-light" opacity="0.49">
<path d="M705.995 5948.4C289.711 5035.47 1512.46 3024.79 3110.75 2435.82C4709.04 1846.85 2144.12 3023.86 1357.74 4445.38C1357.74 4445.38 2814.26 2654.77 4507 2180.5C6199.74 1706.22 6847.73 2809.2 6966.4 3111.14C7084.88 3413.09 7106.47 4149.59 7106.47 4149.59C7106.47 4149.59 6321.03 3105.92 4241.12 3643.61C2161.2 4181.29 1249.02 6597.24 1249.02 6597.24C1249.02 6597.24 766.832 6140.87 705.995 5948.4Z" fill="#9589C4"/>
</g>
<g style="mix-blend-mode:soft-light" opacity="0.49">
<path d="M1337.65 6714.37C1337.65 6714.37 2256.02 4611 4043.21 3936.61C5830.58 3262.4 6981.98 4145.49 6981.98 4145.49C6981.98 4145.49 5272.72 3506.53 3936.18 4067.53C2599.83 4628.53 1747.17 6622.24 1649.16 6956.63L1337.46 6714.37H1337.65Z" fill="#9589C4"/>
</g>
<g style="mix-blend-mode:soft-light" opacity="0.49">
<path d="M1989.54 7224.44C1989.54 7224.44 2239.84 5381.25 3631.39 4404.35C5022.95 3427.27 6921.86 4400.99 6982.13 4767.65C7042.22 5134.32 6561.15 6260.79 5194.76 6807.05C3828.55 7353.32 5995.59 6238.04 6543.88 5356.63C7092.16 4475.22 5695.54 3816.31 4159.96 4514.2C2624.39 5212.09 2395.5 7384.84 2395.5 7384.84L1989.73 7224.44H1989.54Z" fill="#9589C4"/>
</g>
<g style="mix-blend-mode:multiply" opacity="0.49">
<path d="M3574.92 5138.6C2930.5 5966.48 2891.82 6741.02 3097.99 7057.89C3304.16 7374.76 5993.76 6218.26 6449.28 5262.44C6904.62 4306.62 4388.15 4105.75 3631.44 5302.91C2874.73 6500.07 4430.02 6240.45 5203.44 5764.31C5976.86 5288.18 4858.32 4968.88 5452.61 4767.84C6046.9 4566.79 6172.7 5794.53 4601.83 6353.47C3030.95 6912.42 2904.21 6177.6 3574.92 5138.6Z" fill="#4A001D"/>
</g>
<g style="mix-blend-mode:multiply" opacity="0.49">
<path d="M3631.18 5415.92C4343.76 4588.04 5115.11 4577.41 5327.67 4602.96C5540.41 4628.51 5172.95 4677.37 5134.27 4880.29C5095.59 5083.2 5334.05 5230.35 5198.67 5467.21C5063.29 5704.07 4973.16 5972.81 4186.78 5947.26C3400.6 5921.71 4180.21 5056.9 4657.33 5015.5C5134.45 4974.28 5114.93 5425.99 4689.63 5568.11C4264.33 5710.41 4206.31 5537.52 4451.16 5415.92C4696.01 5294.32 4625.22 5142.32 4393.14 5272.69C4161.06 5403.05 3864.76 5970.95 4560.63 5792.65C5256.69 5614.36 5150.04 5033.59 4857.12 4880.29C4564.2 4726.98 3990.38 4987.15 3630.99 5415.92H3631.18Z" fill="#4A001D"/>
</g>
<g style="mix-blend-mode:soft-light" opacity="0.49">
<path d="M3611.72 6109.73C3484.79 6120.17 3716.68 6606.57 4644.82 6292.87C5572.78 5979.18 5721.12 5444.66 5721.12 5356.63C5721.12 5268.61 5302.02 5856.09 4512.64 6064.78C3723.26 6273.48 3611.91 6109.54 3611.91 6109.54L3611.72 6109.73Z" fill="#9589C4"/>
</g>
<g style="mix-blend-mode:soft-light" opacity="0.49">
<path d="M3446.06 7111.18C3446.06 7111.18 3848.45 7190.45 4599.71 6830.5C5350.98 6470.55 5781.72 5976.32 5781.72 5976.32C5781.72 5976.32 4478.98 6965.15 3446.25 7111.18H3446.06Z" fill="#9589C4"/>
</g>
<g style="mix-blend-mode:multiply" opacity="0.49">
<path d="M160.522 3981.7C160.522 3981.7 777.906 1609.21 2702.72 1020.43C4627.54 431.454 5510.06 1298.31 5589.86 1372.92C5669.85 1447.52 4378.19 795.132 2616.73 1372.92C855.267 1950.7 339.653 3714.82 365.377 4104.42C391.102 4494.21 1312.11 2011.5 3123.7 1496.57C4935.3 981.634 5907.75 1797.21 6010.84 1976.44C6113.92 2155.66 4816.44 1731.37 3020.62 2481.3C1224.8 3231.03 425.651 5347.83 425.651 5347.83C425.651 5347.83 67.2005 4817.98 160.522 3981.89V3981.7Z" fill="#4A001D"/>
</g>
<g style="mix-blend-mode:soft-light" opacity="0.49">
<path d="M1667.31 4439.81C1409.5 4980.67 2789.04 2854.36 4296.63 2439.4C5804.23 2024.43 6530.52 2829.93 6676.6 2957.87C6822.69 3085.81 5611.2 2247.3 4586.55 2528.92C3561.89 2810.53 2962.54 3521.11 2898.13 3770.83C2833.73 4020.56 4773.57 3282.94 5914.26 3424.5C7054.96 3566.05 7098.71 4057.49 7098.71 4057.49C7098.71 4057.49 7121.99 2610.42 6079.87 2294.48C5037.76 1978.55 3291.13 2144.91 1667.12 4439.63L1667.31 4439.81Z" fill="#9589C4"/>
</g>
<g style="mix-blend-mode:soft-light" opacity="0.49">
<path d="M3961.89 2773.53C3195.04 3165.93 4618.89 3198.19 5798.27 3350.01C6977.65 3501.82 5781 1842.88 3961.89 2773.53Z" fill="#9589C4"/>
</g>
<g style="mix-blend-mode:soft-light" opacity="0.49">
<path d="M1130.74 6554.77C881.006 6115.75 1808.96 4639.4 1731.6 4707.66C1654.24 4775.92 1069.9 5562.02 949.729 5873.11C829.369 6184.19 1130.74 6554.96 1130.74 6554.96V6554.77Z" fill="#FFFEFE"/>
<path d="M1293.55 5872.95C1203.04 6049.94 1409.59 5880.41 1493.33 5683.47C1577.08 5486.52 1377.29 5709.2 1293.55 5872.95Z" fill="#FFFEFE"/>
<path d="M2208.52 5373.5C2208.52 5373.5 1701.55 6088.18 1636.02 6318.51C1570.48 6549.03 2469.71 5234.75 2634.01 4993.41C2798.12 4752.27 2208.52 5373.5 2208.52 5373.5Z" fill="#FFFEFE"/>
<path d="M3716.73 4474.17C3486.9 4567.05 3291.43 4863.02 3272.09 4938C3252.75 5012.78 3729.68 4656.19 3897.17 4514.45C4064.66 4372.71 3845.54 4422.13 3716.73 4474.17Z" fill="#FFFEFE"/>
<path d="M2986.85 3312.06C2905.35 3425.82 3089.55 3307.77 3153.96 3230.93C3218.36 3154.09 3038.86 3239.51 2986.85 3312.06Z" fill="#FFFEFE"/>
<path d="M2109.79 2488.66C1990.74 2592.54 2219.07 2514.21 2662.77 2232.59C3106.47 1950.97 4244.72 1789.28 4367.33 1763.54C4489.95 1737.8 3166.55 1567.15 2109.79 2488.84V2488.66Z" fill="#FFFEFE"/>
<path d="M4212.96 7227.47C3916.09 7238.29 4866.58 7387.49 5393.65 6965.06C5920.72 6542.64 5089.46 7195.58 4212.96 7227.47Z" fill="#FFFEFE"/>
</g>
<g style="mix-blend-mode:multiply" opacity="0.8">
<path d="M1989.54 2701.81C1832.19 2861.45 2483.56 2753.84 3048.55 2469.61C3613.55 2185.38 3865.35 1989.18 3865.35 1989.18C3865.35 1989.18 2586.83 2095.86 1989.54 2701.81Z" fill="#4A001D"/>
</g>
<g style="mix-blend-mode:multiply" opacity="0.8">
<path d="M1280.53 3457.11C1218.56 3441.81 1469.61 3107.23 1723.1 3043.26C1976.58 2979.29 1417.97 3491.42 1280.53 3457.11Z" fill="#4A001D"/>
</g>
<g style="mix-blend-mode:multiply" opacity="0.8">
<path d="M4046.57 6510.73C3484.2 6595.21 3806.98 6858.36 4322.59 6734.53C4838.2 6610.69 5509.66 6033.28 5558.48 5976.4C5607.3 5919.51 4741.69 6406.28 4046.76 6510.73H4046.57Z" fill="#4A001D"/>
</g>
<g style="mix-blend-mode:multiply" opacity="0.8">
<path d="M4438.47 4705.2C3795.36 4978.24 4657.78 4669.76 4857.57 4767.68C5057.16 4865.41 5728.25 4509.19 5781.58 4527.28C5834.9 4545.37 5237.61 4365.77 4438.47 4705.2Z" fill="#4A001D"/>
</g>
<g style="mix-blend-mode:multiply" opacity="0.8">
<path d="M1126 2193.94C1027.24 2300.62 1903.74 1515.45 2788.7 1199.7C3673.84 883.953 1856.42 973.474 1126 2193.94Z" fill="#4A001D"/>
</g>
<g style="mix-blend-mode:multiply" opacity="0.8">
<path d="M1515.81 2589.46C1381.74 2744.26 2805.78 1878.14 3274.08 1669.08C3742.37 1460.01 2442.82 1410.4 1515.81 2589.46Z" fill="#4A001D"/>
</g>
<g style="mix-blend-mode:soft-light" opacity="0.49">
<path d="M2332.06 1480.92C1740.4 1891.04 3052.9 1313.63 4116.24 1316.43C5179.57 1319.23 5914.31 1734.38 5914.31 1734.38C5914.31 1734.38 5052.64 560.909 2332.06 1480.92Z" fill="#9589C4"/>
</g>
<path style="mix-blend-mode:screen" d="M3631.27 7609.72C5550.58 7609.72 7106.5 6064.31 7106.5 4157.94C7106.5 2251.58 5550.58 706.166 3631.27 706.166C1711.95 706.166 156.043 2251.58 156.043 4157.94C156.043 6064.31 1711.95 7609.72 3631.27 7609.72Z" fill="url(#paint3_radial_1338_4)"/>
<g style="mix-blend-mode:soft-light" opacity="0.5">
<path d="M4159.79 3279.96C3573.58 3453.04 5140.88 3331.81 5843.52 3311.29C6545.96 3290.78 6811.46 3561.02 6769.03 3464.41C6726.4 3367.62 6233.51 2667.68 4159.98 3280.15L4159.79 3279.96Z" fill="#1F00CE"/>
</g>
<g style="mix-blend-mode:soft-light">
<path d="M5798.25 3350.07C5415.39 3378.61 6014.19 3367.42 6300.91 3450.78C6587.64 3533.96 6416.95 3304.01 5798.25 3350.07Z" fill="#1F00CE"/>
</g>
<g style="mix-blend-mode:soft-light">
<path d="M4309.62 2677.51C3508.41 2974.79 5393.99 2820.37 6226.74 2974.42C7059.31 3128.47 5985.27 2055.71 4309.62 2677.51Z" fill="#1F00CE"/>
</g>
<g style="mix-blend-mode:soft-light" opacity="0.5">
<path d="M2247.37 4898.95C1801.61 5415.01 1575.54 6002.3 1575.54 6002.3C1575.54 6002.3 2603.95 4650.53 2808.05 4478.39C3012.16 4306.25 2376.75 4749.19 2247.37 4898.77V4898.95Z" fill="#1F00CE"/>
</g>
<g style="mix-blend-mode:soft-light">
<path d="M2600.72 5546.67C2189.13 6311.14 2681.46 5919.49 2915.42 5407.35C3149.57 4895.22 2704.94 5353.08 2600.72 5546.67Z" fill="#1F00CE"/>
</g>
<g style="mix-blend-mode:soft-light">
<path d="M909.866 4566.62C702.569 5004.15 1766.09 3377.11 1989.54 3082.25C2212.98 2787.2 1445.76 3435.67 909.866 4566.62Z" fill="#1F00CE"/>
</g>
<g style="mix-blend-mode:soft-light">
<path d="M4115.47 7150.19C4115.47 7150.19 5434.17 7213.6 5992.78 6621.83C6551.39 6030.06 6676.63 5569.03 6676.63 5569.03C6676.63 5569.03 6172.66 6947.09 4115.47 7150.19Z" fill="#1F00CE"/>
</g>
<g style="mix-blend-mode:soft-light">
<path d="M4761.42 6912.64C4761.42 6912.64 5967.65 6666.46 6324.41 6037.02C6681.17 5407.57 6676.85 5376.8 6676.85 5376.8C6676.85 5376.8 6012.34 6531.81 4761.42 6912.64Z" fill="#1F00CE"/>
</g>
<g style="mix-blend-mode:soft-light">
<path d="M1575.33 2346.47C1575.33 2346.47 2770.86 1488 3750.64 1335.26C4730.41 1182.51 2768.04 924.394 1575.33 2346.47Z" fill="#1F00CE"/>
</g>
<g style="mix-blend-mode:soft-light">
<path d="M2760.52 2057.59C2517.36 2216.67 3258.48 2012.64 3294.34 1985.97C3330.02 1959.3 3144.88 1806 2760.52 2057.59Z" fill="#1F00CE"/>
</g>
<defs>
<radialGradient id="paint0_radial_1338_4" cx="0" cy="0" r="1" gradientUnits="userSpaceOnUse" gradientTransform="translate(4051.78 4088.87) scale(3943.08 3916.47)">
<stop offset="0.47" stop-color="#00B4E1"/>
<stop offset="0.51" stop-color="#00A1C9"/>
<stop offset="0.61" stop-color="#00708C"/>
<stop offset="0.71" stop-color="#00485A"/>
<stop offset="0.79" stop-color="#002933"/>
<stop offset="0.88" stop-color="#001217" stop-opacity="0"/>
<stop offset="0.95" stop-color="#000406" stop-opacity="0"/>
<stop offset="1" stop-opacity="0"/>
</radialGradient>
<radialGradient id="paint1_radial_1338_4" cx="0" cy="0" r="1" gradientUnits="userSpaceOnUse" gradientTransform="translate(4531.02 2651.03) scale(5074.45 5040.21)">
<stop stop-color="white"/>
<stop offset="0.19" stop-color="#FCFCFC"/>
<stop offset="0.32" stop-color="#F3F2F6"/>
<stop offset="0.44" stop-color="#E5E3EB"/>
<stop offset="0.54" stop-color="#D1CDDC"/>
<stop offset="0.64" stop-color="#B7B0C8"/>
<stop offset="0.74" stop-color="#978DAF"/>
<stop offset="0.83" stop-color="#706392"/>
<stop offset="0.92" stop-color="#453471"/>
<stop offset="1" stop-color="#16004D"/>
</radialGradient>
<linearGradient id="paint2_linear_1338_4" x1="3936.15" y1="5900.81" x2="3936.15" y2="5568.09" gradientUnits="userSpaceOnUse">
<stop stop-color="#110015"/>
<stop offset="0.07" stop-color="#100012"/>
<stop offset="0.44" stop-color="#100009"/>
<stop offset="1" stop-color="#100007"/>
</linearGradient>
<radialGradient id="paint3_radial_1338_4" cx="0" cy="0" r="1" gradientUnits="userSpaceOnUse" gradientTransform="translate(3417.78 4115.42) rotate(-90) scale(4242.92 4271.74)">
<stop/>
<stop offset="0.27" stop-color="#010002"/>
<stop offset="0.41" stop-color="#050009"/>
<stop offset="0.52" stop-color="#0C0017"/>
<stop offset="0.61" stop-color="#17002A"/>
<stop offset="0.69" stop-color="#240042"/>
<stop offset="0.77" stop-color="#350060"/>
<stop offset="0.84" stop-color="#480084"/>
<stop offset="0.9" stop-color="#5F00AE"/>
<stop offset="0.96" stop-color="#7800DB"/>
<stop offset="1" stop-color="#8C00FF"/>
</radialGradient>
</defs>
</svg>
