<svg width="6962" height="6904" viewBox="0 0 6962 6904" fill="none" xmlns="http://www.w3.org/2000/svg">
<mask id="mask0_1344_2" style="mask-type:luminance" maskUnits="userSpaceOnUse" x="11" y="0" width="6951" height="6904">
<path d="M3486.28 6903.72C5405.59 6903.72 6961.5 5358.31 6961.5 3451.94C6961.5 1545.58 5405.59 0.167969 3486.28 0.167969C1566.96 0.167969 11.0508 1545.58 11.0508 3451.94C11.0508 5358.31 1566.96 6903.72 3486.28 6903.72Z" fill="white"/>
</mask>
<g mask="url(#mask0_1344_2)">
<path d="M6961.43 0.179688H10.9746V6903.73H6961.43V0.179688Z" fill="#4B193F"/>
<path fill-rule="evenodd" clip-rule="evenodd" d="M6667.16 2427.67C7053.02 3500.8 6960.83 4628.95 6500.05 5585.33C6269.65 6063.53 5947.06 6498.82 5545.99 6862.69C5495.86 6908.19 5444.41 6952.58 5392.02 6995.85V6922.55H76.0971V7037.44C23.8974 6995.66 -27.1757 6952.58 -77.31 6908.38H-7.83558V789.438H-98.1523C302.922 425.386 782.484 132.765 1326.83 -60.2646V-18.4883H4154.06V-62.3164C4279.87 -17.5559 4403.42 32.986 4524.34 89.123C5490.79 539.339 6281.29 1354.35 6667.16 2427.48V2427.67Z" fill="#4B193F"/>
<path fill-rule="evenodd" clip-rule="evenodd" d="M6647.62 2434.57C7031.42 3502.48 6939.79 4625.03 6481.45 5576.56C6252.18 6052.33 5931.29 6485.39 5532.28 6847.57C5482.33 6892.89 5431.26 6937.09 5379.06 6979.99V6922.36H89.2344V7021.21C37.4102 6979.62 -13.4753 6936.91 -63.4218 6892.71H-7.84207V804.54H-84.0762C314.933 442.353 792.241 151.224 1333.95 -41.0595V-18.4929H4147.11V-43.1113C4272.35 1.27613 4395.34 51.632 4515.51 107.583C5477.07 555.56 6263.83 1366.66 6647.62 2434.38V2434.57Z" fill="#4A183E"/>
<path fill-rule="evenodd" clip-rule="evenodd" d="M6628.13 2441.53C7010.05 3504.03 6918.98 4620.99 6462.71 5567.86C6234.57 6041.39 5915.17 6472.21 5518.23 6832.53C5468.66 6877.66 5417.77 6921.49 5365.76 6964.38V6922.42H102.411V7005.41C50.7748 6964.01 0.0772327 6921.49 -49.4937 6877.66H-7.80904V819.519H-70.1484C326.983 459.197 801.85 169.374 1340.75 -21.7909V-18.6207H3759.77V-138.914C4017.2 -74.1979 4267.31 14.5768 4506.53 126.105C5463.4 571.845 6246.21 1378.84 6628.13 2441.34V2441.53Z" fill="#48173D"/>
<path fill-rule="evenodd" clip-rule="evenodd" d="M6608.61 2448.4C6988.65 3505.68 6897.96 4617.04 6444.12 5559.06C6217.11 6030.17 5899.41 6458.93 5504.34 6817.39C5454.96 6862.15 5404.45 6905.98 5352.62 6948.5V6922.39H115.562V6989.53C64.1136 6948.5 13.7918 6905.98 -35.5914 6862.34H-7.80169V834.596H-56.2461C338.82 475.953 811.246 187.622 1347.7 -2.61027C1481.77 -50.1683 1616.77 -90.4531 1751.97 -123.65V-18.463H3754.71V-118.801C4010.83 -54.458 4259.62 33.944 4497.71 144.726C5449.7 588.228 6228.57 1391.12 6608.61 2448.4Z" fill="#47173C"/>
<path fill-rule="evenodd" clip-rule="evenodd" d="M6589.13 2455.29C6967.3 3507.16 6876.98 4612.93 6425.4 5550.28C6199.51 6018.96 5883.5 6445.68 5490.31 6802.27C5441.11 6846.85 5390.79 6890.3 5339.34 6932.64V6922.19H128.756V6973.29C77.6834 6932.45 27.5489 6890.11 -21.6465 6846.85H-7.75155V849.691H-42.1133C351.075 492.912 821.06 206.072 1354.7 16.773C1488.2 -30.5984 1622.27 -70.6962 1756.9 -103.707V-18.4755H3749.5V-99.0445C4004.31 -35.0743 4251.97 52.9545 4488.75 163.177C5436.04 604.441 6210.97 1403.41 6589.13 2455.29Z" fill="#45163B"/>
<path fill-rule="evenodd" clip-rule="evenodd" d="M6569.54 2462.18C6945.83 3508.83 6855.89 4609 6406.56 5541.7C6181.8 6007.95 5867.29 6432.43 5476.16 6787.53C5378.34 6876.31 5275.81 6960.6 5168.6 7040.24V6922.56H141.65V6957.81C90.7644 6917.15 40.8179 6875.19 -8.00201 6831.92V864.604H-28.4688C362.654 509.691 830.386 224.156 1361.4 35.9753C1494.15 -11.0232 1627.65 -50.9345 1761.53 -83.9453V-18.483H3744V-79.2828C3997.48 -15.6856 4243.84 71.9707 4479.49 181.634C5421.9 620.659 6193.06 1415.53 6569.17 2462.18H6569.54Z" fill="#44153A"/>
<path fill-rule="evenodd" clip-rule="evenodd" d="M6550.08 2469.09C6924.49 3510.33 6835.11 4604.9 6388.04 5532.94C6164.59 5996.95 5851.58 6419.2 5462.34 6772.43C5365.07 6860.65 5262.92 6944.76 5156.46 7023.83V6922.38H154.861V6941.77C104.351 6901.3 54.5926 6859.53 5.96046 6816.44C-42.6717 6773.55 -90.365 6729.16 -136.932 6683.84H-7.74659V879.716H-14.1307C374.926 526.482 840.405 242.625 1368.6 55.1909C1632.79 -38.433 1900.17 -103.522 2167.18 -141.568V-18.477H3739.18V-59.321C3991.35 4.08968 4236.58 91.1863 4470.92 200.29C5408.63 637.077 6175.67 1428.03 6550.08 2469.27V2469.09Z" fill="#431439"/>
<path fill-rule="evenodd" clip-rule="evenodd" d="M6530.53 2475.96C6902.87 3511.98 6814.06 4600.96 6369.23 5524.15C6146.91 5985.74 5835.41 6405.93 5448.41 6757.3C5351.71 6845.14 5250.13 6928.69 5144.04 7007.4V6922.35H321.761V7043.02C217.549 6967.48 116.717 6886.92 19.8287 6801.31C-28.6157 6758.6 -75.9336 6714.59 -122.312 6669.45H-7.77338V961.377H-71.9903C-48.3314 938.81 -24.4849 916.616 -0.262741 894.609C386.917 543.239 849.767 260.689 1375.33 74.3739C1638.02 -18.8771 1904.09 -83.5932 2169.78 -121.453V-18.5043H3733.9V-39.5791C3984.94 23.4586 4228.67 109.996 4461.88 218.726C5394.71 653.276 6157.99 1440.13 6530.34 2476.15L6530.53 2475.96Z" fill="#411438"/>
<path fill-rule="evenodd" clip-rule="evenodd" d="M6511 2483.09C6881.46 3513.7 6793.02 4597.09 6350.64 5515.61C6129.45 5974.78 5819.63 6392.92 5434.52 6742.42C5338.19 6829.89 5237.17 6912.89 5131.65 6991.4V6922.58H333.963V7026.65C230.127 6951.49 130.046 6871.3 33.7205 6786.25C-14.3483 6743.73 -61.6661 6699.9 -107.669 6654.95H-7.77625V1044.04H-127.197C-81.3817 998.352 -34.4394 953.591 13.6294 909.763C398.743 560.258 859.34 279.201 1382.28 93.6312C1643.65 0.939772 1908.4 -63.5901 2172.78 -101.263V-18.6433H2961.79V-135.953C3482.66 -107.791 3989.07 20.8949 4453.05 237.051C5381.19 669.362 6140.53 1452.11 6511 2482.91V2483.09Z" fill="#401337"/>
<path fill-rule="evenodd" clip-rule="evenodd" d="M6491.44 2489.98C6860.03 3515.36 6771.96 4593.16 6331.83 5506.83C6111.77 5963.76 5803.64 6379.47 5420.4 6727.3C5324.64 6814.21 5224.19 6896.83 5119.22 6974.97V6922.57H346.327V7010.22C243.054 6935.44 143.349 6855.61 47.5866 6770.94C-0.294499 6728.61 -47.2367 6685.15 -93.2401 6640.39H-7.8052V1058.39H-112.393C-66.9525 1012.88 -20.198 968.308 27.6831 924.853C410.919 577.027 869.075 297.461 1389.19 113.011C1909.31 -71.4398 2442.2 -143.243 2960.63 -115.268C3478.87 -87.2923 3982.47 40.6479 4444.19 255.871C5367.45 685.944 6122.85 1464.78 6491.44 2490.16V2489.98Z" fill="#3F1236"/>
<path fill-rule="evenodd" clip-rule="evenodd" d="M6471.91 2496.92C6838.62 3516.9 6751.12 4589.29 6313.06 5498.11C6094.12 5952.62 5787.49 6366.28 5406.32 6712.24C5310.94 6798.78 5211.04 6881.02 5106.64 6958.61V6922.43H358.72V6993.48C256.011 6919.07 156.869 6839.81 61.4821 6755.51C13.7888 6713.36 -32.9657 6670.09 -78.5936 6625.52H-7.80464V1072.8H-97.7461C-52.4938 1027.48 -5.92696 983.274 41.7663 940.006C422.937 594.045 878.84 315.784 1396.33 132.266C1913.82 -51.2517 2443.89 -122.682 2959.51 -94.893C3475.12 -66.9177 3976.09 60.2768 4435.37 274.194C5353.94 702.03 6105.39 1476.76 6472.1 2496.92H6471.91Z" fill="#3E1135"/>
<path fill-rule="evenodd" clip-rule="evenodd" d="M6452.37 2503.78C6817.2 3518.54 6730.08 4585.15 6294.45 5489.49C6076.64 5941.57 5771.7 6353.18 5392.41 6697.28C5297.59 6783.26 5198.26 6865.13 5094.23 6942.34V6922.57H370.908V6977.22C268.762 6903.18 169.996 6824.29 75.1723 6740.55C27.6668 6698.59 -18.7121 6655.5 -64.1522 6611.3H-8.00948V1087.12H-83.3047C-38.2402 1041.98 7.95097 997.968 55.4565 954.886C434.75 610.79 888.211 334.021 1402.89 151.436C1917.56 -31.1495 2445 -102.206 2957.99 -74.4177C3470.97 -46.6289 3969.31 80.0059 4426.15 292.805C5339.84 718.402 6087.53 1489.21 6452.18 2503.78H6452.37Z" fill="#3C1134"/>
<path fill-rule="evenodd" clip-rule="evenodd" d="M6432.82 2510.66C6795.78 3520.01 6709.03 4581.21 6275.66 5480.71C6058.98 5930.55 5755.54 6339.92 5378.31 6682.15C5284.05 6767.76 5185.1 6849.07 5081.83 6925.91V6922.37H383.286V6960.41C281.703 6886.74 183.499 6808.23 89.2394 6724.86C42.1094 6683.27 -4.08181 6640.38 -49.3341 6596.36H-7.83706V1101.46H-68.4863C-23.6096 1056.69 22.3936 1012.87 69.5236 969.971C446.751 627.554 897.772 352.277 1410.01 170.811C1922.05 -10.8423 2446.68 -81.5263 2956.85 -53.924C3467.01 -26.3217 3962.91 99.567 4417.31 311.433C5326.3 734.979 6069.87 1501.5 6432.82 2510.85V2510.66Z" fill="#3B1033"/>
<path fill-rule="evenodd" clip-rule="evenodd" d="M6413.31 2517.56C6774.2 3521.69 6688.02 4577.1 6257.09 5471.94C6041.53 5919.36 5739.79 6326.49 5364.44 6667.04C5270.55 6752.09 5172.16 6833.22 5069.45 6909.5C5018 6947.73 4965.61 6984.66 4911.91 7020.65V6922.37H395.696V6944C294.676 6870.7 197.037 6792.56 103.152 6709.75C56.21 6668.35 10.2064 6625.64 -34.6704 6581.81H-7.63162V1115.82H-53.4473C-8.94605 1071.24 36.8695 1027.6 83.8117 985.077C458.974 644.525 907.742 370.74 1417.16 190.019C1926.58 9.29896 2448.39 -61.0121 2955.92 -33.5963C3463.46 -6.18052 3956.73 119.148 4408.69 329.709C5312.8 751.017 6052.61 1513.44 6413.5 2517.56H6413.31Z" fill="#3A0F32"/>
<path fill-rule="evenodd" clip-rule="evenodd" d="M6393.81 2524.47C6752.83 3523.19 6667.2 4573.2 6238.34 5463.18C6023.91 5908.18 5723.67 6313.26 5350.57 6651.95C5257.25 6736.62 5159.42 6817.19 5057.09 6893.09C5006.01 6931.14 4953.81 6967.88 4900.49 7003.5V6922.19H407.929V6927.22C307.473 6854.49 210.208 6776.72 116.887 6694.28C70.1328 6653.07 24.5049 6610.73 -20.1841 6567.09H-7.79124V1130H-38.9609C5.35251 1085.61 50.9804 1042.34 97.5471 1000.01C470.832 661.32 917.158 388.841 1423.76 209.24C1930.36 29.4519 2449.54 -40.4859 2954.45 -13.0702C3459.36 14.1591 3949.81 138.928 4399.52 348.37C5298.93 767.44 6034.8 1525.94 6393.81 2524.66V2524.47Z" fill="#390F31"/>
<path fill-rule="evenodd" clip-rule="evenodd" d="M6374.25 2531.53C6731.39 3525.02 6646.14 4569.25 6219.53 5454.57C6006.23 5897.14 5707.67 6300.17 5336.45 6637C5243.7 6721.29 5146.24 6801.3 5044.66 6876.84C4993.78 6914.7 4941.95 6951.25 4888.81 6986.69V6922.16H572.757V7015.78C521.121 6982.02 470.235 6946.96 420.289 6910.78C220.315 6765.87 33.8603 6601.56 -135.883 6418.97H-7.63663V1144.33H-24.1604C19.9653 1100.13 65.2178 1057.04 111.597 1014.9C482.816 677.886 926.889 407.086 1430.86 228.231C2438.8 -129.294 3496.13 -50.2171 4390.85 366.615C5285.38 783.446 6017.3 1537.85 6374.44 2531.34L6374.25 2531.53Z" fill="#370E30"/>
<path fill-rule="evenodd" clip-rule="evenodd" d="M6354.75 2538.47C6710.01 3526.56 6625.14 4565.38 6200.97 5445.85C5988.79 5886.18 5691.93 6286.97 5322.59 6621.93C5230.2 6705.67 5133.5 6785.31 5032.3 6860.65C4981.79 6898.33 4929.96 6934.69 4877.39 6969.94V6922.39H584.239V6998.85C532.791 6965.28 482.281 6930.4 432.522 6894.41C233.675 6750.24 48.1591 6586.68 -120.833 6405.22H-7.98392V1293.39H-137.92C-54.7383 1201.81 32.9498 1113.97 125.332 1030.23C494.673 695.088 936.118 425.593 1437.46 247.857C2440.15 -107.803 3491.65 -29.0987 4381.49 385.495C5271.32 800.089 5999.31 1550.57 6354.56 2538.66L6354.75 2538.47Z" fill="#360D2F"/>
<path fill-rule="evenodd" clip-rule="evenodd" d="M6335.25 2545.37C6688.63 3528.23 6604.13 4561.27 6182.21 5437.27C5971.16 5875.17 5675.8 6273.73 5308.53 6607.19C5216.71 6690.56 5120.38 6769.82 5019.74 6844.61C4969.41 6881.91 4917.97 6918.28 4865.58 6953.34V6922.76H595.716V6982.25C544.643 6948.87 494.321 6914.18 444.937 6878.37C247.029 6735.13 62.64 6572.32 -105.413 6391.78H-7.77339V1307H-122.312C-39.6942 1215.98 47.6183 1128.51 139.437 1045.15C506.713 711.869 945.904 443.679 1444.62 266.875C2441.86 -86.7322 3487.92 -8.58796 4372.87 403.768C5257.83 816.123 5982.05 1562.5 6335.25 2545.37Z" fill="#350D2F"/>
<path fill-rule="evenodd" clip-rule="evenodd" d="M6315.69 2552.25C6667.01 3529.71 6583.26 4557.33 6163.6 5428.48C5953.67 5863.96 5660 6260.47 5294.61 6592.07C5111.91 6757.87 4911.37 6907.44 4694.5 7037.43V6922.55H607.331V6964.88C556.446 6931.69 506.5 6897.18 457.304 6861.56C260.522 6719.08 77.072 6557.19 -90.0423 6377.78H-7.79947V1320.59H-106.941C-24.6986 1229.95 62.0505 1143.04 153.494 1060.23C518.892 728.634 955.643 462.123 1451.54 286.252C2443.34 -65.4909 3483.76 12.2802 4364.02 422.398C5244.28 832.516 5964.38 1574.98 6315.88 2552.44L6315.69 2552.25Z" fill="#340C2E"/>
<path fill-rule="evenodd" clip-rule="evenodd" d="M6296.2 2559.16C6645.64 3531.39 6562.27 4553.24 6144.86 5419.72C5936.25 5852.97 5643.89 6247.23 5280.56 6576.97C5098.98 6741.84 4899.39 6890.48 4683.83 7019.91V6922.56H772.603V7043.22C668.579 6982.05 567.371 6916.03 469.544 6845.16C273.888 6703.42 91.3771 6542.46 -74.7984 6363.98H-7.76474V1334.21H-91.5098C-9.83032 1244.13 76.5435 1157.6 167.424 1075.16C530.756 745.426 965.253 480.221 1458.33 305.282C2444.68 -44.5955 3479.48 32.8029 4354.86 440.683C5230.24 848.562 5946.57 1586.92 6296.01 2559.16H6296.2Z" fill="#330B2D"/>
<path fill-rule="evenodd" clip-rule="evenodd" d="M6276.6 2566.04C6624.16 3532.86 6541.17 4549.3 6126.01 5410.94C5918.52 5841.76 5627.86 6233.97 5266.59 6561.84C5085.96 6725.78 4887.49 6873.67 4673.05 7002.36V6922.35H783.234V7025.48C679.774 6964.69 579.13 6899.04 481.865 6828.54C287.149 6687.54 105.764 6527.53 -59.4722 6349.98H-7.83574V1347.81H-76.1836C5.12032 1258.29 91.1185 1172.12 181.435 1090.25C542.703 762.378 974.946 498.665 1465.4 324.658C2446.49 -23.3543 3475.46 53.671 4346.15 459.313C5216.83 864.954 5929.23 1599.21 6276.79 2566.22L6276.6 2566.04Z" fill="#320B2C"/>
<path fill-rule="evenodd" clip-rule="evenodd" d="M6257.1 2572.95C6602.78 3534.55 6520.35 4545.4 6107.45 5402.19C5901.09 5830.58 5612.11 6220.56 5252.72 6546.75C5073.03 6709.75 4875.87 6856.9 4662.38 6984.84V6922.36H793.964V7007.78C691.066 6947.35 590.985 6881.89 494.284 6811.77C300.695 6671.52 120.249 6512.43 -44.0488 6335.81H-7.6216V1361.43H-60.5723C20.3561 1272.29 105.791 1186.87 195.544 1105.18C554.934 778.989 984.549 516.768 1472.37 343.88C2448.02 -2.0808 3471.36 74.3849 4337.35 477.789C5203.34 881.192 5911.6 1611.53 6257.29 2573.14L6257.1 2572.95Z" fill="#310A2B"/>
<path fill-rule="evenodd" clip-rule="evenodd" d="M6237.58 2579.87C6581.39 3536.06 6499.33 4541.31 6088.68 5393.44C5883.45 5819.59 5595.98 6207.33 5238.65 6531.66C5059.9 6693.73 4863.87 6840.13 4651.69 6967.32V6922.19H804.68V6990.08C702.346 6930.02 602.828 6864.94 506.503 6795.18C314.04 6655.68 134.533 6497.53 -28.8261 6321.84H-7.79584V1375.07H-45.3496C35.0155 1286.48 120.075 1201.43 209.453 1120.3C566.777 795.977 994.139 535.247 1479.33 363.106C2449.54 19.0099 3467.24 95.103 4328.35 496.269C5189.46 897.434 5893.97 1623.67 6237.77 2579.87H6237.58Z" fill="#2F092A"/>
<path fill-rule="evenodd" clip-rule="evenodd" d="M6218.06 2586.95C6559.99 3537.92 6478.31 4537.57 6070.1 5385.03C5865.99 5808.77 5580.21 6194.45 5224.76 6516.91C5047.13 6678.24 4852.04 6823.71 4640.99 6950.16V6922.56H815.388V6972.91C713.617 6913.04 614.663 6848.51 518.901 6779.14C327.377 6640.38 148.997 6483.16 -13.6112 6308.41H-7.79039V1388.67H-29.9473C50.0423 1300.46 134.538 1215.97 223.353 1135.4C578.799 812.94 1003.72 553.516 1486.1 382.494C2451.04 40.2629 3463.12 115.983 4319.34 514.91C5175.76 913.838 5876.32 1636.16 6218.06 2586.95Z" fill="#2E092A"/>
<path fill-rule="evenodd" clip-rule="evenodd" d="M6198.51 2593.86C6538.38 3539.43 6457.26 4533.48 6051.3 5376.29C5848.33 5797.59 5564.04 6181.23 5210.66 6501.83C5033.97 6662.22 4840.01 6806.76 4630.27 6932.64V6922.57H825.885V6955.4C724.677 6895.9 626.286 6831.75 531.087 6762.74C340.69 6624.92 163.248 6468.25 1.57942 6294.62C-38.7909 6251.17 -78.2225 6206.78 -116.527 6161.09H-7.99698V1402.49H-14.7567C64.6696 1314.83 148.79 1230.72 237.041 1150.52C590.422 829.742 1013.09 571.996 1492.84 401.72C2452.34 61.3538 3458.78 136.7 4310.31 533.39C5161.84 930.08 5858.47 1648.3 6198.51 2593.86Z" fill="#2D0829"/>
<path fill-rule="evenodd" clip-rule="evenodd" d="M6179.18 2600.78C6517.16 3541.12 6436.61 4529.58 6032.72 5367.53C5830.87 5786.6 5548.27 6167.81 5196.77 6486.73C5021.02 6646.19 4828.18 6789.98 4619.57 6915.12C4567.37 6946.46 4514.23 6976.48 4460.15 7005.39V6922.4H836.591V6937.51C735.947 6878.38 638.119 6814.41 543.483 6745.97C354.212 6608.89 177.71 6453.16 16.9794 6280.46C-23.2032 6237.38 -62.259 6192.99 -100.564 6147.86H-7.99391V1549.28H-114.646C-77.4682 1503.96 -38.9756 1459.57 0.643584 1415.93C79.6943 1328.83 163.251 1245.1 251.127 1165.46C602.63 846.541 1022.67 590.101 1499.79 420.944C2453.84 82.6293 3454.65 157.416 4301.49 551.868C5148.33 946.319 5841.01 1660.44 6178.99 2600.78H6179.18Z" fill="#2C0828"/>
<path fill-rule="evenodd" clip-rule="evenodd" d="M6159.66 2607.7C6495.77 3542.63 6415.59 4525.5 6014.14 5358.79C5813.41 5775.43 5532.32 6154.59 5182.89 6471.65C5008.26 6630.17 4816.36 6773.22 4608.88 6897.62C4557.05 6928.76 4504.1 6958.6 4450.4 6987.32V6922.23H999.396V7004.29C947.947 6977.25 897.25 6949.09 847.303 6919.81C747.222 6861.06 649.958 6797.46 555.886 6729.2C367.742 6592.87 192.178 6438.07 32.3865 6266.31C-7.6083 6223.41 -46.4765 6179.4 -84.4058 6134.45H-7.79605V1561.8H-98.3008C-61.3103 1516.85 -23.0054 1472.65 16.2383 1429.19C94.9135 1342.47 177.907 1259.48 265.22 1180.03C614.658 862.974 1032.44 607.839 1506.75 439.615C2455.36 103.165 3450.53 177.58 4292.49 569.793C5134.44 962.007 5823.37 1672.21 6159.47 2607.14L6159.66 2607.7Z" fill="#2B0727"/>
<path fill-rule="evenodd" clip-rule="evenodd" d="M6140.14 2614.56C6474.37 3544.28 6394.57 4521.55 5995.37 5349.99C5795.78 5764.21 5516.38 6141.32 5169 6456.5C4995.32 6614.1 4804.54 6756.4 4598.37 6880.05C4495.29 6941.97 4388.26 6999.22 4277.48 7051.44V6922.39H1009.36V6986.54C958.287 6959.69 907.777 6931.71 858.018 6902.43C758.501 6844.05 661.8 6780.83 568.291 6712.94C381.085 6577.36 206.648 6423.49 47.7954 6252.84C8.17617 6210.13 -30.6918 6166.49 -68.2456 6121.73H-7.59636V1575H-82.1406C-45.3379 1530.24 -7.40847 1486.23 31.8352 1443.15C109.947 1356.98 192.565 1274.36 279.502 1195.47C626.875 880.097 1042.41 626.641 1514.08 459.348C2457.43 124.764 3446.79 198.805 4284.05 588.781C5121.31 978.756 5806.1 1684.85 6140.33 2614.56H6140.14Z" fill="#2A0626"/>
<path fill-rule="evenodd" clip-rule="evenodd" d="M6120.64 2621.45C6452.99 3545.75 6373.56 4517.42 5976.81 5341.2C5778.34 5753 5500.63 6128.05 5155.13 6441.56C4982.39 6598.23 4792.74 6739.78 4587.7 6862.69C4485.17 6924.23 4378.71 6981.11 4268.68 7032.96V6922.37H1173.31V7044.71C757.023 6850.75 378.669 6578.27 62.8413 6238.84C23.4099 6196.31 -15.0826 6152.86 -52.6364 6108.47H-7.94762V1587.85H-66.3438C-29.7288 1543.28 8.01298 1499.64 46.8811 1456.74C124.617 1371.14 206.672 1288.89 293.046 1210.56C638.541 897.05 1051.63 644.9 1520.49 478.727C2458.4 146.007 3442.12 219.675 4274.68 607.413C5107.06 995.15 5788.1 1697.33 6120.45 2621.63L6120.64 2621.45Z" fill="#290626"/>
<path fill-rule="evenodd" clip-rule="evenodd" d="M6101.1 2628.35C6431.57 3547.44 6352.7 4513.52 5958.01 5332.63C5760.67 5742.19 5484.46 6114.82 5141.03 6426.65C4969.22 6582.57 4780.7 6723 4576.79 6845.35C4474.83 6906.52 4369.11 6963.03 4259.65 7014.69V6922.56H1182.3V7026.44C768.459 6833.6 392.358 6562.8 78.2212 6225.23C38.9775 6183.08 0.672672 6139.81 -36.5056 6095.61H-7.77695V1600.92H-50.2129C-13.7857 1556.72 23.768 1513.26 62.4484 1470.55C139.809 1385.32 221.301 1303.63 307.299 1225.67C650.728 914.03 1061.38 663.372 1527.8 497.945C2460.26 167.277 3438.53 240.385 4266.03 625.885C5093.71 1011.38 5770.81 1709.46 6101.1 2628.54V2628.35Z" fill="#280525"/>
<path fill-rule="evenodd" clip-rule="evenodd" d="M6081.54 2635.25C6409.95 3548.92 6331.65 4509.59 5939.21 5323.86C5742.99 5730.99 5468.47 6101.57 5126.92 6411.54C4956.24 6566.52 4768.66 6706.21 4566.06 6827.81C4464.66 6888.61 4359.51 6944.93 4250.79 6996.22V6922.37H1191.1V7007.79C779.697 6816.06 405.662 6546.75 93.4021 6211.24C15.2902 6127.31 -58.8785 6039.28 -128.729 5947.33H-7.80532V1613.59H-34.2808C1.95859 1569.58 39.3247 1526.31 77.6296 1483.97C154.427 1399.3 235.731 1317.99 320.978 1240.59C662.529 930.621 1070.74 681.454 1534.34 517.146C3388.56 -140.46 5424.35 807.902 6081.35 2635.43L6081.54 2635.25Z" fill="#280524"/>
<path fill-rule="evenodd" clip-rule="evenodd" d="M6062.07 2642.32C6388.6 3550.78 6310.67 4505.67 5920.67 5315.27C5725.58 5719.98 5452.57 6088.51 5113.08 6396.61C4943.34 6550.66 4756.88 6689.6 4555.41 6810.46C4454.58 6870.88 4349.99 6926.83 4241.83 6977.93V6922.54H1200.17V6989.5C791.205 6798.89 419.235 6531.26 108.853 6197.42C31.3046 6114.06 -42.4884 6026.4 -111.963 5935.02H-7.75111V1760.17H-122.854C12.1523 1578.89 165.372 1409.73 335.115 1255.68C674.601 947.582 1080.56 699.908 1541.34 536.346C3384.86 -117.343 5408.63 825.423 6061.88 2642.32H6062.07Z" fill="#270424"/>
<path fill-rule="evenodd" clip-rule="evenodd" d="M6042.5 2649.29C6367.15 3552.33 6289.6 4501.81 5901.86 5306.57C5708.08 5709.04 5436.57 6075.33 5098.96 6381.57C4930.15 6534.68 4745.01 6672.88 4544.66 6792.99C4444.39 6853.04 4340.56 6908.62 4232.97 6959.35V6922.42H1208.95V6970.72C802.242 6781.24 432.713 6515.1 124.021 6183.31C46.8484 6100.32 -26.3817 6013.41 -95.6684 5922.4H-7.98039V1771.98H-106.371C27.8836 1591.82 180.164 1423.6 348.968 1270.48C686.389 964.244 1090.09 717.875 1548.25 555.432C3380.87 -94.5274 5393 842.831 6042.31 2649.1L6042.5 2649.29Z" fill="#260423"/>
<path fill-rule="evenodd" clip-rule="evenodd" d="M6022.97 2656.14C6345.74 3553.96 6268.76 4497.66 5883.27 5297.75C5690.62 5697.8 5420.79 6061.85 5085.25 6366.41C4917.57 6518.59 4733.37 6656.05 4534.15 6775.41C4434.63 6835.09 4331.17 6890.48 4224.33 6940.83V6922.37H1217.96V6952.21C813.696 6763.84 446.232 6499.2 139.418 6169.46C62.8079 6087.03 -10.2342 6000.49 -78.9576 5910.04H-7.7931V1784.06H-89.4727C44.031 1605.02 195.373 1437.72 363.05 1285.54C698.593 980.98 1099.86 736.103 1555.19 574.592C3377.12 -71.4503 5377.23 860.313 6022.78 2655.95L6022.97 2656.14Z" fill="#250322"/>
<path fill-rule="evenodd" clip-rule="evenodd" d="M6003.5 2663.01C6324.4 3555.42 6247.79 4493.71 5864.55 5288.96C5673.03 5686.58 5404.71 6048.58 5071.23 6351.27C4904.49 6502.52 4721.42 6639.23 4523.32 6757.84C4424.37 6817.15 4321.66 6872.17 4215.38 6922.34H1227.04V6933.72C825.214 6746.47 459.815 6483.5 154.879 6155.63C78.6446 6073.76 6.16562 5987.59 -62.1823 5897.88H-7.72911V1796.33H-72.6973C60.0553 1618.23 210.458 1452.05 377.197 1300.8C710.675 998.106 1109.5 754.721 1562.39 594.143C3373.42 -48.1693 5361.9 878.186 6003.5 2663.2V2663.01Z" fill="#240322"/>
<path fill-rule="evenodd" clip-rule="evenodd" d="M5983.9 2669.94C6621.75 4444.32 5679.34 6400.35 3879.01 7038.75V6922.37H1541.85V7040.43C1437.83 7003.5 1335.68 6961.72 1235.79 6915.1C836.407 6728.97 473.262 6467.49 170.015 6141.67C94.1568 6060.17 22.2412 5974.75 -45.7311 5885.42H-7.8017V1808.3H-56.2461C75.7554 1631.31 225.219 1466.07 391.019 1315.75C722.619 1014.92 1119 772.844 1569.08 613.198C3369.41 -25.1977 5345.86 895.562 5983.71 2669.94H5983.9Z" fill="#230221"/>
<path fill-rule="evenodd" clip-rule="evenodd" d="M5964.36 2676.85C6598.46 4440.6 5661.68 6384.88 3872.06 7019.54V6922.38H1548.79V7021.22C1445.33 6984.48 1343.94 6942.89 1244.61 6896.64C847.475 6711.63 486.583 6451.65 185.214 6127.88C109.919 6046.94 38.3792 5961.89 -29.2176 5873.12H-7.81195V1820.43H-39.5449C91.5177 1644.56 240.23 1480.25 405.092 1330.86C734.626 1031.71 1128.75 791.314 1576.21 632.601C3365.83 -2.06506 5330.46 913.286 5964.55 2677.03L5964.36 2676.85Z" fill="#230221"/>
<path fill-rule="evenodd" clip-rule="evenodd" d="M5944.86 2683.78C6575.02 4436.9 5644.06 6369.43 3865.33 7000.36V6922.41H1556.14V7002.04C1453.43 6965.49 1352.41 6924.27 1253.84 6878.21C859.146 6694.32 500.319 6436.01 200.828 6114.11C125.908 6033.54 54.7436 5949.24 -12.2898 5860.84H-7.59562V1832.58H-22.6172C107.694 1657.64 255.468 1494.45 419.203 1345.81C746.86 1048.53 1138.55 809.434 1583.18 651.839C3361.92 21.09 5314.71 930.846 5945.05 2683.96L5944.86 2683.78Z" fill="#220220"/>
<path fill-rule="evenodd" clip-rule="evenodd" d="M5925.31 2690.69C6551.71 4433.18 5626.19 6353.96 3858.35 6980.98V6922.42H1563.06V6982.85C1460.92 6946.66 1360.65 6905.45 1262.45 6859.76C870.196 6676.98 513.623 6420.17 215.822 6100.13C141.465 6020.12 70.6761 5936.2 4.01813 5848.35C-29.4047 5804.53 -61.7008 5759.77 -92.8704 5713.89H-7.81111V1976.95H-100.193C-69.9626 1932.19 -38.6052 1887.99 -6.30893 1844.53C123.252 1670.71 270.087 1508.46 432.882 1360.75C758.474 1065.33 1147.72 827.725 1589.73 670.877C3357.76 43.8574 5298.72 948.205 5925.12 2690.69H5925.31Z" fill="#210120"/>
<path fill-rule="evenodd" clip-rule="evenodd" d="M5905.82 2697.71C6528.46 4429.57 5608.58 6338.6 3851.44 6961.89V6922.54H1570.24V6963.57C1468.65 6927.58 1368.95 6886.73 1271.5 6841.23C881.689 6659.57 527.182 6404.44 231.258 6086.27C157.277 6006.82 87.0518 5923.26 20.7694 5836.17C-12.4657 5792.53 -44.5742 5747.95 -75.5561 5702.63H-7.58386V1988.45H-82.6914C-52.6484 1943.87 -21.4787 1900.05 10.6297 1856.78C139.439 1684.08 285.336 1522.75 447.192 1375.98C770.718 1082.23 1157.71 846.124 1597.09 690.395C3354.23 67.2918 5283.37 966.044 5906.01 2697.71H5905.82Z" fill="#21011F"/>
<path fill-rule="evenodd" clip-rule="evenodd" d="M5886.24 2704.62C6504.94 4425.85 5590.88 6323.32 3844.44 6942.69V6922.55H1885.07V7037.43C1676.65 6985.02 1474.05 6913.03 1280.27 6822.77C892.716 6642.23 540.461 6388.59 246.415 6072.47C172.998 5993.39 102.96 5910.59 37.241 5823.86C4.38145 5780.6 -27.7269 5736.21 -58.5209 5691.07H-7.82341V1999.64H-65.6562C-35.801 1955.26 -4.8191 1911.61 27.1016 1868.72C154.972 1697.14 300.118 1536.75 461.035 1390.9C782.683 1099.03 1167.23 864.22 1603.8 709.423C3350.23 90.0502 5267.54 983.208 5886.24 2704.43V2704.62Z" fill="#20011F"/>
<path fill-rule="evenodd" clip-rule="evenodd" d="M5866.76 2711.53C6481.7 4422.13 5573.28 6307.85 3837.54 6923.31V6922.37H1890.38V7017.49C1683.08 6965.46 1481.79 6894.03 1289.33 6804.32C904.215 6624.9 554.214 6372.75 261.858 6058.68C115.774 5901.65 -15.8522 5728.95 -130.203 5542.26H-7.77811V2145.13H-134.146C-79.318 2054.49 -19.9833 1966.27 43.6704 1881.04C170.79 1710.39 314.997 1551.12 474.788 1406.21C794.37 1116.2 1176.67 882.883 1610.6 729.019C3346.15 113.563 5251.63 1001.13 5866.57 2711.72L5866.76 2711.53Z" fill="#20001E"/>
<path fill-rule="evenodd" clip-rule="evenodd" d="M5847.23 2718.39C6458.41 4418.35 5555.44 6292.33 3830.59 6904.05C3722.81 6942.28 3614.28 6974.74 3505.56 7001.41V6922.33H1895.44V6997.67C1689.46 6946.01 1489.49 6874.96 1298.15 6785.81C915.479 6607.51 567.544 6357.04 277.065 6044.84C131.92 5888.74 1.04492 5717.15 -112.555 5531.58H-7.78018V2155.53H-116.311C-61.6698 2065.45 -2.71061 1977.79 60.3797 1893.12C186.748 1723.59 330.016 1565.25 488.868 1421.27C806.573 1132.94 1186.43 901.115 1617.55 748.183C3342.39 136.457 5236.04 1018.61 5847.23 2718.58V2718.39Z" fill="#1F001E"/>
<path fill-rule="evenodd" clip-rule="evenodd" d="M5827.72 2725.32C6434.96 4414.66 5537.8 6276.88 3823.66 6884.87C3609.42 6960.78 3392.54 7013.56 3175.86 7044.52V6922.36H1900.72V6977.75C1696.05 6926.28 1497.2 6855.78 1307.18 6767.19C926.951 6590.01 581.08 6341.04 292.48 6030.88C148.085 5875.71 18.1493 5705.25 -94.6998 5520.8H-7.57501V2165.82H-98.4551C-44.1899 2076.3 14.3941 1989.2 77.1089 1905.09C202.726 1736.67 345.055 1579.27 502.969 1436.03C818.608 1149.57 1196.02 919.237 1624.51 767.238C3338.65 159.429 5220.47 1035.99 5827.72 2725.32Z" fill="#1F001E"/>
</g>
<path style="mix-blend-mode:multiply" d="M6961.46 3451.97C6961.46 5358.39 5405.61 6903.75 3486.24 6903.75C1566.86 6903.75 11.0117 5358.39 11.0117 3451.97C11.0117 1545.55 1566.86 131.117 3486.24 131.117C5405.61 131.117 6961.46 1545.55 6961.46 3451.97Z" fill="url(#paint0_radial_1344_2)"/>
<path fill-rule="evenodd" clip-rule="evenodd" d="M3545.93 5068.36C3313.84 5222.04 3829.46 5175.79 3893.86 5192.38C3958.27 5209.17 3855.18 5132.33 4035.63 5004.2C4216.07 4876.26 3945.31 4837.84 3842.23 4876.26C3739.14 4914.68 3545.74 5068.36 3545.74 5068.36H3545.93Z" fill="url(#paint1_linear_1344_2)"/>
<g style="mix-blend-mode:soft-light" opacity="0.49">
<path d="M560.995 5242.4C144.711 4329.47 1367.46 2318.79 2965.75 1729.82C4564.04 1140.85 1999.12 2317.86 1212.74 3739.38C1212.74 3739.38 2669.26 1948.77 4362 1474.5C6054.74 1000.22 6702.73 2103.2 6821.4 2405.14C6939.88 2707.09 6961.47 3443.59 6961.47 3443.59C6961.47 3443.59 6176.03 2399.92 4096.12 2937.61C2016.2 3475.29 1104.02 5891.24 1104.02 5891.24C1104.02 5891.24 621.832 5434.87 560.995 5242.4Z" fill="#9589C4"/>
</g>
<g style="mix-blend-mode:soft-light" opacity="0.49">
<path d="M1192.65 6008.37C1192.65 6008.37 2111.02 3905 3898.21 3230.61C5685.58 2556.4 6836.98 3439.49 6836.98 3439.49C6836.98 3439.49 5127.72 2800.53 3791.18 3361.53C2454.83 3922.53 1602.17 5916.24 1504.16 6250.63L1192.46 6008.37H1192.65Z" fill="#9589C4"/>
</g>
<g style="mix-blend-mode:soft-light" opacity="0.49">
<path d="M1844.54 6518.44C1844.54 6518.44 2094.84 4675.25 3486.39 3698.35C4877.95 2721.27 6776.86 3694.99 6837.13 4061.65C6897.22 4428.32 6416.15 5554.79 5049.76 6101.05C3683.55 6647.32 5850.59 5532.04 6398.88 4650.63C6947.16 3769.22 5550.54 3110.31 4014.96 3808.2C2479.39 4506.09 2250.5 6678.84 2250.5 6678.84L1844.73 6518.44H1844.54Z" fill="#9589C4"/>
</g>
<g style="mix-blend-mode:multiply" opacity="0.49">
<path d="M3429.92 4432.6C2785.5 5260.48 2746.82 6035.02 2952.99 6351.89C3159.16 6668.76 5848.76 5512.26 6304.28 4556.44C6759.62 3600.62 4243.15 3399.75 3486.44 4596.91C2729.73 5794.07 4285.02 5534.45 5058.44 5058.31C5831.86 4582.18 4713.32 4262.88 5307.61 4061.84C5901.9 3860.79 6027.7 5088.53 4456.83 5647.47C2885.95 6206.42 2759.21 5471.6 3429.92 4432.6Z" fill="#4A001D"/>
</g>
<g style="mix-blend-mode:multiply" opacity="0.49">
<path d="M3486.18 4709.92C4198.76 3882.04 4970.11 3871.41 5182.67 3896.96C5395.41 3922.51 5027.95 3971.37 4989.27 4174.29C4950.59 4377.2 5189.05 4524.35 5053.67 4761.21C4918.29 4998.07 4828.16 5266.81 4041.78 5241.26C3255.6 5215.71 4035.21 4350.9 4512.33 4309.5C4989.45 4268.28 4969.93 4719.99 4544.63 4862.11C4119.33 5004.41 4061.31 4831.52 4306.16 4709.92C4551.01 4588.32 4480.22 4436.32 4248.14 4566.69C4016.06 4697.05 3719.76 5264.95 4415.63 5086.65C5111.69 4908.36 5005.04 4327.59 4712.12 4174.29C4419.2 4020.98 3845.38 4281.15 3485.99 4709.92H3486.18Z" fill="#4A001D"/>
</g>
<g style="mix-blend-mode:soft-light" opacity="0.49">
<path d="M3466.72 5403.73C3339.79 5414.17 3571.68 5900.57 4499.82 5586.87C5427.78 5273.18 5576.12 4738.66 5576.12 4650.63C5576.12 4562.61 5157.02 5150.09 4367.64 5358.78C3578.26 5567.48 3466.91 5403.54 3466.91 5403.54L3466.72 5403.73Z" fill="#9589C4"/>
</g>
<g style="mix-blend-mode:soft-light" opacity="0.49">
<path d="M3301.06 6405.18C3301.06 6405.18 3703.45 6484.44 4454.71 6124.49C5205.98 5764.55 5636.72 5270.32 5636.72 5270.32C5636.72 5270.32 4333.98 6259.15 3301.25 6405.18H3301.06Z" fill="#9589C4"/>
</g>
<g style="mix-blend-mode:multiply" opacity="0.49">
<path d="M15.5216 3275.7C15.5216 3275.7 632.906 903.213 2557.72 314.427C4482.54 -274.546 5365.06 592.314 5444.86 666.915C5524.85 741.516 4233.19 89.1322 2471.73 666.915C710.267 1244.7 194.653 3008.82 220.377 3398.42C246.102 3788.21 1167.11 1305.5 2978.7 790.566C4790.3 275.634 5762.75 1091.21 5865.84 1270.44C5968.92 1449.66 4671.44 1025.37 2875.62 1775.3C1079.8 2525.03 280.651 4641.83 280.651 4641.83C280.651 4641.83 -77.7995 4111.98 15.5216 3275.89V3275.7Z" fill="#4A001D"/>
</g>
<g style="mix-blend-mode:soft-light" opacity="0.49">
<path d="M1522.31 3733.81C1264.5 4274.67 2644.04 2148.36 4151.63 1733.4C5659.23 1318.43 6385.52 2123.93 6531.6 2251.87C6677.69 2379.81 5466.2 1541.3 4441.55 1822.92C3416.89 2104.53 2817.54 2815.11 2753.13 3064.83C2688.73 3314.56 4628.57 2576.94 5769.26 2718.5C6909.96 2860.05 6953.71 3351.49 6953.71 3351.49C6953.71 3351.49 6976.99 1904.42 5934.87 1588.48C4892.76 1272.55 3146.13 1438.91 1522.12 3733.63L1522.31 3733.81Z" fill="#9589C4"/>
</g>
<g style="mix-blend-mode:soft-light" opacity="0.49">
<path d="M3816.89 2067.53C3050.04 2459.93 4473.89 2492.19 5653.27 2644.01C6832.65 2795.82 5636 1136.88 3816.89 2067.53Z" fill="#9589C4"/>
</g>
<g style="mix-blend-mode:soft-light" opacity="0.49">
<path d="M985.74 5848.77C736.008 5409.75 1663.96 3933.4 1586.6 4001.66C1509.24 4069.92 924.903 4856.02 804.731 5167.11C684.371 5478.19 985.74 5848.96 985.74 5848.96V5848.77Z" fill="#FFFEFE"/>
<path d="M1148.55 5166.95C1058.04 5343.94 1264.59 5174.41 1348.33 4977.47C1432.08 4780.52 1232.29 5003.2 1148.55 5166.95Z" fill="#FFFEFE"/>
<path d="M2063.52 4667.5C2063.52 4667.5 1556.55 5382.18 1491.02 5612.51C1425.49 5843.03 2324.71 4528.75 2489.01 4287.41C2653.12 4046.27 2063.52 4667.5 2063.52 4667.5Z" fill="#FFFEFE"/>
<path d="M3571.73 3768.17C3341.9 3861.05 3146.43 4157.02 3127.09 4232C3107.75 4306.78 3584.69 3950.19 3752.18 3808.45C3919.67 3666.71 3700.54 3716.13 3571.73 3768.17Z" fill="#FFFEFE"/>
<path d="M2841.85 2606.06C2760.36 2719.82 2944.56 2601.77 3008.96 2524.93C3073.37 2448.09 2893.86 2533.51 2841.85 2606.06Z" fill="#FFFEFE"/>
<path d="M1964.79 1782.66C1845.75 1886.54 2074.07 1808.21 2517.77 1526.59C2961.47 1244.97 4099.72 1083.28 4222.34 1057.54C4344.95 1031.8 3021.55 861.152 1964.79 1782.84V1782.66Z" fill="#FFFEFE"/>
<path d="M4067.96 6521.47C3771.1 6532.29 4721.58 6681.49 5248.65 6259.06C5775.72 5836.64 4944.46 6489.58 4067.96 6521.47Z" fill="#FFFEFE"/>
</g>
<g style="mix-blend-mode:multiply" opacity="0.8">
<path d="M1844.54 1995.81C1687.19 2155.45 2338.56 2047.84 2903.55 1763.61C3468.55 1479.38 3720.35 1283.18 3720.35 1283.18C3720.35 1283.18 2441.83 1389.86 1844.54 1995.81Z" fill="#4A001D"/>
</g>
<g style="mix-blend-mode:multiply" opacity="0.8">
<path d="M1135.53 2751.11C1073.56 2735.81 1324.61 2401.23 1578.1 2337.26C1831.58 2273.29 1272.97 2785.42 1135.53 2751.11Z" fill="#4A001D"/>
</g>
<g style="mix-blend-mode:multiply" opacity="0.8">
<path d="M3901.57 5804.73C3339.2 5889.21 3661.98 6152.36 4177.59 6028.53C4693.2 5904.69 5364.66 5327.28 5413.48 5270.4C5462.3 5213.51 4596.69 5700.28 3901.76 5804.73H3901.57Z" fill="#4A001D"/>
</g>
<g style="mix-blend-mode:multiply" opacity="0.8">
<path d="M4293.47 3999.2C3650.36 4272.24 4512.78 3963.76 4712.57 4061.68C4912.16 4159.41 5583.25 3803.19 5636.58 3821.28C5689.9 3839.37 5092.61 3659.77 4293.47 3999.2Z" fill="#4A001D"/>
</g>
<g style="mix-blend-mode:multiply" opacity="0.8">
<path d="M981.003 1487.94C882.237 1594.62 1758.74 809.449 2643.7 493.701C3528.84 177.953 1711.42 267.474 981.003 1487.94Z" fill="#4A001D"/>
</g>
<g style="mix-blend-mode:multiply" opacity="0.8">
<path d="M1370.81 1883.46C1236.74 2038.26 2660.78 1172.14 3129.08 963.076C3597.37 754.007 2297.82 704.398 1370.81 1883.46Z" fill="#4A001D"/>
</g>
<g style="mix-blend-mode:soft-light" opacity="0.49">
<path d="M2187.06 774.923C1595.4 1185.04 2907.9 607.631 3971.24 610.428C5034.57 613.226 5769.31 1028.38 5769.31 1028.38C5769.31 1028.38 4907.64 -145.091 2187.06 774.923Z" fill="#9589C4"/>
</g>
<path style="mix-blend-mode:screen" d="M3486.27 6903.72C5405.58 6903.72 6961.5 5358.31 6961.5 3451.94C6961.5 1545.58 5405.58 0.167969 3486.27 0.167969C1566.95 0.167969 11.043 1545.58 11.043 3451.94C11.043 5358.31 1566.95 6903.72 3486.27 6903.72Z" fill="url(#paint2_radial_1344_2)"/>
<g style="mix-blend-mode:soft-light" opacity="0.5">
<path d="M4014.79 2573.96C3428.58 2747.04 4995.88 2625.81 5698.52 2605.29C6400.96 2584.78 6666.46 2855.02 6624.03 2758.41C6581.4 2661.62 6088.51 1961.68 4014.98 2574.15L4014.79 2573.96Z" fill="#1F00CE"/>
</g>
<g style="mix-blend-mode:soft-light">
<path d="M5653.25 2644.07C5270.39 2672.61 5869.19 2661.42 6155.91 2744.78C6442.64 2827.96 6271.95 2598.01 5653.25 2644.07Z" fill="#1F00CE"/>
</g>
<g style="mix-blend-mode:soft-light">
<path d="M4164.62 1971.51C3363.41 2268.79 5248.99 2114.37 6081.74 2268.42C6914.31 2422.47 5840.27 1349.71 4164.62 1971.51Z" fill="#1F00CE"/>
</g>
<g style="mix-blend-mode:soft-light" opacity="0.5">
<path d="M2102.37 4192.95C1656.61 4709.01 1430.54 5296.3 1430.54 5296.3C1430.54 5296.3 2458.95 3944.53 2663.05 3772.39C2867.16 3600.25 2231.75 4043.19 2102.37 4192.77V4192.95Z" fill="#1F00CE"/>
</g>
<g style="mix-blend-mode:soft-light">
<path d="M2455.73 4840.67C2044.14 5605.14 2536.47 5213.49 2770.43 4701.35C3004.57 4189.22 2559.94 4647.08 2455.73 4840.67Z" fill="#1F00CE"/>
</g>
<g style="mix-blend-mode:soft-light">
<path d="M764.868 3860.62C557.571 4298.15 1621.09 2671.11 1844.54 2376.25C2067.98 2081.2 1300.76 2729.67 764.868 3860.62Z" fill="#1F00CE"/>
</g>
<g style="mix-blend-mode:soft-light">
<path d="M3970.47 6444.19C3970.47 6444.19 5289.17 6507.6 5847.78 5915.83C6406.39 5324.06 6531.63 4863.03 6531.63 4863.03C6531.63 4863.03 6027.66 6241.09 3970.47 6444.19Z" fill="#1F00CE"/>
</g>
<g style="mix-blend-mode:soft-light">
<path d="M4616.42 6206.64C4616.42 6206.64 5822.65 5960.46 6179.41 5331.02C6536.17 4701.57 6531.85 4670.8 6531.85 4670.8C6531.85 4670.8 5867.34 5825.81 4616.42 6206.64Z" fill="#1F00CE"/>
</g>
<g style="mix-blend-mode:soft-light">
<path d="M1430.33 1640.47C1430.33 1640.47 2625.86 782.004 3605.64 629.259C4585.41 476.514 2623.04 218.394 1430.33 1640.47Z" fill="#1F00CE"/>
</g>
<g style="mix-blend-mode:soft-light">
<path d="M2615.52 1351.59C2372.36 1510.67 3113.48 1306.64 3149.34 1279.97C3185.02 1253.3 2999.88 1100 2615.52 1351.59Z" fill="#1F00CE"/>
</g>
<defs>
<radialGradient id="paint0_radial_1344_2" cx="0" cy="0" r="1" gradientUnits="userSpaceOnUse" gradientTransform="translate(4386.03 1945.03) scale(5074.45 5040.21)">
<stop stop-color="white"/>
<stop offset="0.19" stop-color="#FCFCFC"/>
<stop offset="0.32" stop-color="#F3F2F6"/>
<stop offset="0.44" stop-color="#E5E3EB"/>
<stop offset="0.54" stop-color="#D1CDDC"/>
<stop offset="0.64" stop-color="#B7B0C8"/>
<stop offset="0.74" stop-color="#978DAF"/>
<stop offset="0.83" stop-color="#706392"/>
<stop offset="0.92" stop-color="#453471"/>
<stop offset="1" stop-color="#16004D"/>
</radialGradient>
<linearGradient id="paint1_linear_1344_2" x1="3791.15" y1="5194.81" x2="3791.15" y2="4862.09" gradientUnits="userSpaceOnUse">
<stop stop-color="#110015"/>
<stop offset="0.07" stop-color="#100012"/>
<stop offset="0.44" stop-color="#100009"/>
<stop offset="1" stop-color="#100007"/>
</linearGradient>
<radialGradient id="paint2_radial_1344_2" cx="0" cy="0" r="1" gradientUnits="userSpaceOnUse" gradientTransform="translate(3272.78 3409.42) rotate(-90) scale(4242.92 4271.74)">
<stop/>
<stop offset="0.27" stop-color="#010002"/>
<stop offset="0.41" stop-color="#050009"/>
<stop offset="0.52" stop-color="#0C0017"/>
<stop offset="0.61" stop-color="#17002A"/>
<stop offset="0.69" stop-color="#240042"/>
<stop offset="0.77" stop-color="#350060"/>
<stop offset="0.84" stop-color="#480084"/>
<stop offset="0.9" stop-color="#5F00AE"/>
<stop offset="0.96" stop-color="#7800DB"/>
<stop offset="1" stop-color="#8C00FF"/>
</radialGradient>
</defs>
</svg>
