<svg width="15329" height="15329" viewBox="0 0 15329 15329" fill="none" xmlns="http://www.w3.org/2000/svg">
<path style="mix-blend-mode:screen" d="M11496.7 11496.7C13613.2 9380.26 13613.2 5948.74 11496.8 3832.25C9380.26 1715.76 5948.74 1715.76 3832.25 3832.25C1715.76 5948.74 1715.76 9380.26 3832.25 11496.7C5948.74 13613.2 9380.26 13613.2 11496.7 11496.7Z" fill="url(#paint0_radial_1338_2)"/>
<path style="mix-blend-mode:screen" d="M8103.38 11669.6C10299.8 11669.6 12080.4 9889.06 12080.4 7692.62C12080.4 5496.18 10299.8 3715.61 8103.38 3715.61C5906.94 3715.61 4126.38 5496.18 4126.38 7692.62C4126.38 9889.06 5906.94 11669.6 8103.38 11669.6Z" fill="url(#paint1_radial_1338_2)"/>
<mask id="mask0_1338_2" style="mask-type:luminance" maskUnits="userSpaceOnUse" x="4282" y="4429" width="6981" height="6981">
<path d="M7772.73 11409C9700.09 11409 11262.5 9846.58 11262.5 7919.22C11262.5 5991.86 9700.09 4429.42 7772.73 4429.42C5845.37 4429.42 4282.93 5991.86 4282.93 7919.22C4282.93 9846.58 5845.37 11409 7772.73 11409Z" fill="white"/>
</mask>
<g mask="url(#mask0_1338_2)">
<path d="M11262.4 4429.43H4282.86V11409H11262.4V4429.43Z" fill="#4B193F"/>
<path fill-rule="evenodd" clip-rule="evenodd" d="M10966.9 6883.66C11354.4 7968.61 11261.8 9109.19 10799.1 10076.1C10567.8 10559.6 10243.8 10999.7 9841.08 11367.5C9790.73 11413.5 9739.07 11458.4 9686.46 11502.2V11428.1H4348.25V11544.2C4295.83 11502 4244.54 11458.4 4194.2 11413.7H4263.96V5227.39H4173.27C4576.03 4859.32 5057.6 4563.48 5604.22 4368.32V4410.56H8443.31V4366.25C8569.64 4411.5 8693.71 4462.6 8815.14 4519.36C9785.64 4974.53 10579.5 5798.52 10966.9 6883.47V6883.66Z" fill="#4B193F"/>
<path fill-rule="evenodd" clip-rule="evenodd" d="M10947.3 6890.63C11332.7 7970.31 11240.7 9105.22 10780.5 10067.2C10550.2 10548.2 10228 10986.1 9827.31 11352.2C9777.15 11398.1 9725.86 11442.8 9673.45 11486.1V11427.9H4361.44V11527.8C4309.4 11485.7 4258.3 11442.6 4208.15 11397.9H4263.96V5242.65H4187.41C4588.09 4876.48 5067.4 4582.14 5611.38 4387.74V4410.56H8436.33V4385.67C8562.1 4430.54 8685.6 4481.45 8806.28 4538.02C9771.87 4990.93 10561.9 5810.96 10947.3 6890.45V6890.63Z" fill="#4A183E"/>
<path fill-rule="evenodd" clip-rule="evenodd" d="M10927.8 6897.67C11311.3 7971.87 11219.8 9101.14 10761.6 10058.4C10532.5 10537.2 10211.8 10972.7 9813.2 11337C9763.42 11382.7 9712.32 11427 9660.09 11470.3V11427.9H4374.67V11511.8C4322.82 11470 4271.91 11427 4222.13 11382.7H4263.99V5257.8H4201.39C4600.19 4893.51 5077.05 4600.49 5618.2 4407.22V4410.43H8047.37V4288.81C8305.88 4354.24 8557.04 4443.99 8797.26 4556.75C9758.14 5007.4 10544.2 5823.28 10927.8 6897.48V6897.67Z" fill="#48173D"/>
<path fill-rule="evenodd" clip-rule="evenodd" d="M10908.2 6904.62C11289.8 7973.54 11198.7 9097.15 10743 10049.5C10515 10525.8 10196 10959.3 9799.25 11321.7C9749.66 11367 9698.94 11411.3 9646.9 11454.3V11427.9H4387.88V11495.8C4336.22 11454.3 4285.68 11411.3 4236.09 11367.2H4264V5273.04H4215.35C4612.07 4910.45 5086.48 4618.94 5625.19 4426.61C5759.81 4378.53 5895.39 4337.8 6031.15 4304.24V4410.59H8042.29V4309.14C8299.48 4374.19 8549.31 4463.57 8788.4 4575.57C9744.38 5023.96 10526.5 5835.69 10908.2 6904.62Z" fill="#47173C"/>
<path fill-rule="evenodd" clip-rule="evenodd" d="M10888.6 6911.58C11268.3 7975.04 11177.6 9092.99 10724.2 10040.7C10497.3 10514.5 10180 10945.9 9785.16 11306.4C9735.76 11351.5 9685.23 11395.4 9633.56 11438.2V11427.7H4401.13V11479.4C4349.84 11438.1 4299.5 11395.3 4250.1 11351.5H4264.05V5288.3H4229.54C4624.38 4927.6 5096.34 4637.6 5632.21 4446.21C5766.28 4398.32 5900.91 4357.78 6036.1 4324.4V4410.57H8037.06V4329.12C8292.93 4393.79 8541.63 4482.79 8779.4 4594.23C9730.67 5040.35 10508.8 5848.13 10888.6 6911.58Z" fill="#45163B"/>
<path fill-rule="evenodd" clip-rule="evenodd" d="M10868.9 6918.55C11246.8 7976.73 11156.5 9089.02 10705.3 10032C10479.6 10503.4 10163.7 10932.5 9770.96 11291.5C9672.72 11381.3 9569.77 11466.5 9462.1 11547V11428.1H4414.08V11463.7C4362.98 11422.6 4312.82 11380.2 4263.8 11336.4V5303.38H4243.25C4636.01 4944.56 5105.7 4655.88 5638.94 4465.62C5772.25 4418.11 5906.31 4377.76 6040.75 4344.38V4410.57H8031.53V4349.1C8286.08 4413.39 8533.46 4502.02 8770.1 4612.89C9716.46 5056.75 10490.9 5860.37 10868.5 6918.55H10868.9Z" fill="#44153A"/>
<path fill-rule="evenodd" clip-rule="evenodd" d="M10849.4 6925.53C11225.4 7978.24 11135.6 9084.88 10686.7 10023.1C10462.3 10492.3 10147.9 10919.2 9757.07 11276.3C9659.4 11365.5 9556.82 11450.5 9449.91 11530.5V11427.9H4427.34V11447.5C4376.62 11406.6 4326.66 11364.3 4277.82 11320.8C4228.98 11277.4 4181.09 11232.5 4134.33 11186.7H4264.05V5318.66H4257.64C4648.33 4961.53 5115.76 4674.55 5646.17 4485.05C5911.47 4390.4 6179.97 4324.59 6448.1 4286.12V4410.57H8026.69V4369.28C8279.92 4433.39 8526.18 4521.44 8761.49 4631.75C9703.14 5073.35 10473.4 5873.01 10849.4 6925.72V6925.53Z" fill="#431439"/>
<path fill-rule="evenodd" clip-rule="evenodd" d="M10829.7 6932.48C11203.6 7979.91 11114.5 9080.89 10667.8 10014.2C10444.5 10480.9 10131.7 10905.7 9743.09 11261C9645.99 11349.8 9543.98 11434.3 9437.44 11513.8V11427.8H4594.95V11549.8C4490.3 11473.5 4389.04 11392 4291.75 11305.5C4243.1 11262.3 4195.58 11217.8 4149.01 11172.2H4264.03V5401.22H4199.54C4223.3 5378.4 4247.25 5355.96 4271.57 5333.71C4660.37 4978.47 5125.16 4692.81 5652.93 4504.44C5916.72 4410.17 6183.91 4344.74 6450.71 4306.46V4410.54H8021.39V4389.24C8273.49 4452.97 8518.23 4540.46 8752.42 4650.39C9689.16 5089.72 10455.6 5885.24 10829.6 6932.67L10829.7 6932.48Z" fill="#411438"/>
<path fill-rule="evenodd" clip-rule="evenodd" d="M10810.1 6939.7C11182.1 7981.66 11093.3 9076.98 10649.1 10005.6C10427 10469.8 10115.9 10892.6 9729.14 11245.9C9632.41 11334.4 9530.96 11418.3 9424.99 11497.7V11428.1H4607.2V11533.3C4502.93 11457.3 4402.43 11376.2 4305.7 11290.3C4257.43 11247.3 4209.91 11202.9 4163.71 11157.5H4264.03V5484.8H4144.1C4190.11 5438.6 4237.25 5393.35 4285.52 5349.04C4672.25 4995.68 5134.78 4711.53 5659.91 4523.92C5922.38 4430.2 6188.24 4364.96 6453.73 4326.87V4410.4H7246.04V4291.8C7769.1 4320.27 8277.63 4450.38 8743.55 4668.91C9675.59 5105.99 10438.1 5897.36 10810.1 6939.51V6939.7Z" fill="#401337"/>
<path fill-rule="evenodd" clip-rule="evenodd" d="M10790.5 6946.65C11160.6 7983.34 11072.2 9073 10630.2 9996.74C10409.2 10458.7 10099.8 10879 9714.96 11230.6C9618.8 11318.5 9517.92 11402 9412.52 11481.1V11428.1H4619.61V11516.7C4515.91 11441.1 4415.78 11360.4 4319.62 11274.8C4271.54 11232 4224.4 11188 4178.2 11142.8H4264V5499.3H4158.97C4204.6 5453.29 4251.55 5408.23 4299.63 5364.29C4684.48 5012.63 5144.55 4729.99 5666.85 4543.51C6189.15 4357.03 6724.28 4284.43 7244.88 4312.71C7765.29 4341 8271 4470.35 8734.66 4687.94C9661.79 5122.75 10420.4 5910.16 10790.5 6946.84V6946.65Z" fill="#3F1236"/>
<path fill-rule="evenodd" clip-rule="evenodd" d="M10770.9 6953.68C11139.1 7984.89 11051.3 9069.09 10611.4 9987.92C10391.5 10447.4 10083.6 10865.7 9700.82 11215.4C9605.04 11302.9 9504.72 11386.1 9399.89 11464.5V11427.9H4632.06V11499.8C4528.92 11424.5 4429.36 11344.4 4333.57 11259.2C4285.68 11216.6 4238.73 11172.8 4192.91 11127.7H4264V5513.87H4173.68C4219.12 5468.05 4265.88 5423.36 4313.78 5379.61C4696.54 5029.84 5154.36 4748.52 5674.02 4562.98C6193.68 4377.44 6725.97 4305.22 7243.75 4333.32C7761.52 4361.6 8264.59 4490.19 8725.8 4706.47C9648.22 5139.02 10402.8 5922.28 10771.1 6953.68H10770.9Z" fill="#3E1135"/>
<path fill-rule="evenodd" clip-rule="evenodd" d="M10751.3 6960.61C11117.6 7986.55 11030.1 9064.9 10592.7 9979.21C10374 10436.3 10067.7 10852.4 9686.85 11200.3C9591.63 11287.2 9491.89 11370 9387.43 11448.1V11428.1H4644.3V11483.3C4541.72 11408.5 4442.54 11328.7 4347.32 11244C4299.62 11201.6 4253.04 11158.1 4207.41 11113.4H4263.79V5528.34H4188.18C4233.43 5482.71 4279.82 5438.21 4327.52 5394.66C4708.41 5046.77 5163.77 4766.95 5680.6 4582.36C6197.43 4397.76 6727.09 4325.92 7242.22 4354.02C7757.36 4382.11 8257.79 4510.14 8716.54 4725.28C9634.06 5155.57 10384.9 5934.87 10751.1 6960.61H10751.3Z" fill="#3C1134"/>
<path fill-rule="evenodd" clip-rule="evenodd" d="M10731.6 6967.57C11096.1 7988.04 11009 9060.92 10573.8 9970.33C10356.2 10425.1 10051.5 10839 9672.7 11185C9578.04 11271.6 9478.67 11353.8 9374.97 11431.4V11427.9H4656.73V11466.3C4554.72 11391.9 4456.1 11312.5 4361.45 11228.2C4314.12 11186.1 4267.74 11142.8 4222.29 11098.3H4263.96V5542.84H4203.06C4248.13 5497.59 4294.32 5453.28 4341.65 5409.91C4720.46 5063.72 5173.37 4785.41 5687.75 4601.95C6201.94 4418.29 6728.77 4346.83 7241.08 4374.74C7753.38 4402.64 8251.36 4529.92 8707.67 4744.12C9620.47 5172.33 10367.1 5947.29 10731.6 6967.76V6967.57Z" fill="#3B1033"/>
<path fill-rule="evenodd" clip-rule="evenodd" d="M10712 6974.55C11074.4 7989.73 10987.9 9056.77 10555.2 9961.46C10338.7 10413.8 10035.7 10825.4 9658.76 11169.7C9564.48 11255.7 9465.68 11337.7 9362.54 11414.9C9310.87 11453.5 9258.27 11490.8 9204.34 11527.2V11427.9H4669.19V11449.7C4567.75 11375.6 4469.7 11296.6 4375.42 11212.9C4328.28 11171.1 4282.08 11127.9 4237.02 11083.6H4264.17V5557.36H4218.16C4262.85 5512.29 4308.86 5468.17 4356 5425.18C4732.73 5080.88 5183.38 4804.08 5694.93 4621.37C6206.49 4438.65 6730.48 4367.57 7240.15 4395.29C7749.82 4423 8245.16 4549.71 8699.01 4762.59C9606.91 5188.54 10349.8 5959.36 10712.2 6974.55H10712Z" fill="#3A0F32"/>
<path fill-rule="evenodd" clip-rule="evenodd" d="M10692.5 6981.53C11053 7991.25 10967 9052.82 10536.3 9952.61C10321 10402.5 10019.5 10812 9644.83 11154.5C9551.12 11240.1 9452.88 11321.5 9350.12 11398.3C9298.83 11436.7 9246.42 11473.9 9192.87 11509.9V11427.7H4681.47V11432.8C4580.6 11359.2 4482.92 11280.6 4389.21 11197.3C4342.26 11155.6 4296.44 11112.8 4251.56 11068.7H4264.01V5571.7H4232.71C4277.21 5526.82 4323.03 5483.08 4369.79 5440.27C4744.64 5097.86 5192.84 4822.38 5701.56 4640.8C6210.29 4459.03 6731.64 4388.32 7238.67 4416.04C7745.7 4443.57 8238.21 4569.71 8689.8 4781.46C9592.98 5205.14 10331.9 5972 10692.5 6981.72V6981.53Z" fill="#390F31"/>
<path fill-rule="evenodd" clip-rule="evenodd" d="M10672.8 6988.66C11031.4 7993.1 10945.8 9048.83 10517.4 9943.9C10303.2 10391.3 10003.4 10798.8 9630.66 11139.3C9537.51 11224.6 9439.65 11305.5 9337.64 11381.8C9286.55 11420.1 9234.5 11457.1 9181.14 11492.9V11427.7H4846.99V11522.3C4795.14 11488.2 4744.04 11452.7 4693.88 11416.2C4493.07 11269.6 4305.84 11103.5 4135.38 10918.9H4264.16V5586.18H4247.57C4291.88 5541.5 4337.32 5497.94 4383.9 5455.33C4756.67 5114.61 5202.61 4840.82 5708.69 4660C6720.86 4298.54 7782.62 4378.48 8681.09 4799.91C9579.37 5221.33 10314.4 5984.04 10673 6988.48L10672.8 6988.66Z" fill="#370E30"/>
<path fill-rule="evenodd" clip-rule="evenodd" d="M10653.2 6995.68C11010 7994.65 10924.7 9044.91 10498.8 9935.08C10285.7 10380.3 9987.63 10785.5 9616.74 11124.1C9523.97 11208.8 9426.86 11289.3 9325.23 11365.5C9274.51 11403.6 9222.46 11440.3 9169.67 11476V11427.9H4858.52V11505.2C4806.86 11471.3 4756.14 11436 4706.17 11399.6C4506.49 11253.8 4320.2 11088.5 4150.49 10905H4263.82V5736.88H4133.34C4216.87 5644.3 4304.92 5555.49 4397.69 5470.83C4768.58 5132 5211.88 4859.53 5715.32 4679.84C6722.21 4320.26 7778.13 4399.83 8671.69 4818.99C9565.26 5238.15 10296.3 5996.9 10653 6995.87L10653.2 6995.68Z" fill="#360D2F"/>
<path fill-rule="evenodd" clip-rule="evenodd" d="M10633.6 7002.66C10988.5 7996.35 10903.7 9040.76 10480 9926.41C10268 10369.1 9971.43 10772.1 9602.62 11109.2C9510.41 11193.5 9413.68 11273.6 9312.62 11349.3C9262.08 11387 9210.42 11423.7 9157.81 11459.2V11428.3H4870.05V11488.4C4818.76 11454.7 4768.23 11419.6 4718.64 11383.4C4519.9 11238.6 4334.74 11074 4165.98 10891.4H4264.03V5750.65H4149.01C4231.97 5658.63 4319.65 5570.2 4411.86 5485.91C4780.67 5148.96 5221.71 4877.82 5722.51 4699.07C6723.93 4341.57 7774.38 4420.57 8663.04 4837.47C9551.71 5254.37 10279 6008.97 10633.6 7002.66Z" fill="#350D2F"/>
<path fill-rule="evenodd" clip-rule="evenodd" d="M10614 7009.61C10966.8 7997.84 10882.7 9036.78 10461.3 9917.53C10250.5 10357.8 9955.57 10758.7 9588.64 11093.9C9405.17 11261.6 9203.8 11412.8 8986.01 11544.2V11428H4881.71V11470.9C4830.61 11437.3 4780.46 11402.4 4731.06 11366.4C4533.45 11222.3 4349.23 11058.7 4181.42 10877.3H4264V5764.39H4164.45C4247.03 5672.75 4334.15 5584.88 4425.97 5501.17C4792.9 5165.91 5231.48 4896.47 5729.46 4718.66C6725.41 4363.04 7770.2 4441.67 8654.15 4856.3C9538.11 5270.94 10261.2 6021.58 10614.2 7009.8L10614 7009.61Z" fill="#340C2E"/>
<path fill-rule="evenodd" clip-rule="evenodd" d="M10594.4 7016.6C10945.3 7999.54 10861.6 9032.64 10442.5 9908.67C10233 10346.7 9939.39 10745.3 9574.53 11078.7C9392.2 11245.3 9191.76 11395.6 8975.3 11526.5V11428.1H5047.68V11550.1C4943.22 11488.2 4841.58 11421.5 4743.35 11349.8C4546.87 11206.5 4363.6 11043.8 4196.72 10863.3H4264.04V5778.16H4179.94C4261.96 5687.09 4348.7 5599.6 4439.96 5516.26C4804.82 5182.89 5241.14 4914.76 5736.28 4737.9C6726.77 4384.17 7765.9 4462.42 8644.95 4874.79C9524 5287.16 10243.3 6033.65 10594.2 7016.6H10594.4Z" fill="#330B2D"/>
<path fill-rule="evenodd" clip-rule="evenodd" d="M10574.8 7023.55C10923.8 8001.03 10840.4 9028.66 10423.5 9899.79C10215.2 10335.4 9923.29 10731.9 9560.51 11063.4C9379.12 11229.1 9179.81 11378.6 8964.48 11508.7V11427.8H5058.35V11532.1C4954.46 11470.6 4853.39 11404.3 4755.72 11333C4560.19 11190.5 4378.04 11028.7 4212.11 10849.2H4263.97V5791.91H4195.33C4276.98 5701.4 4363.34 5614.29 4454.03 5531.51C4816.81 5200.03 5250.87 4933.41 5743.38 4757.49C6728.58 4405.64 7761.87 4483.52 8636.21 4893.62C9510.54 5303.73 10225.9 6046.08 10574.9 7023.74L10574.8 7023.55Z" fill="#320B2C"/>
<path fill-rule="evenodd" clip-rule="evenodd" d="M10555.2 7030.54C10902.3 8002.74 10819.5 9024.71 10404.9 9890.94C10197.7 10324.1 9907.48 10718.3 9546.58 11048.1C9366.13 11212.9 9168.15 11361.7 8953.76 11491V11427.9H5069.13V11514.2C4965.8 11453.1 4865.3 11386.9 4768.19 11316C4573.79 11174.3 4392.59 11013.4 4227.6 10834.9H4264.18V5805.68H4211.01C4292.28 5715.55 4378.07 5629.19 4468.2 5546.61C4829.09 5216.82 5260.51 4951.71 5750.38 4776.92C6730.12 4427.15 7757.75 4504.46 8627.37 4912.3C9496.99 5320.15 10208.2 6058.54 10555.4 7030.73L10555.2 7030.54Z" fill="#310A2B"/>
<path fill-rule="evenodd" clip-rule="evenodd" d="M10535.6 7037.54C10880.8 8004.26 10798.4 9020.58 10386 9882.09C10180 10312.9 9891.27 10705 9532.45 11032.9C9352.95 11196.7 9156.09 11344.7 8943.03 11473.3V11427.7H5079.89V11496.3C4977.13 11435.6 4877.19 11369.8 4780.46 11299.3C4587.19 11158.2 4406.93 10998.3 4242.89 10820.7H4264.01V5819.46H4226.29C4307 5729.9 4392.41 5643.92 4482.17 5561.9C4840.99 5234 5270.14 4970.4 5757.37 4796.36C6731.64 4448.47 7753.61 4525.4 8618.33 4930.99C9483.05 5336.57 10190.5 6070.81 10535.8 7037.54H10535.6Z" fill="#2F092A"/>
<path fill-rule="evenodd" clip-rule="evenodd" d="M10516 7044.69C10859.3 8006.14 10777.3 9016.8 10367.4 9873.6C10162.4 10302 9875.44 10691.9 9518.5 11017.9C9340.13 11181 9144.22 11328.1 8932.28 11456V11428.1H5090.64V11479C4988.44 11418.4 4889.07 11353.2 4792.91 11283.1C4600.58 11142.8 4421.46 10983.8 4258.17 10807.1H4264.01V5833.22H4241.76C4322.09 5744.03 4406.94 5658.62 4496.12 5577.16C4853.06 5251.15 5279.76 4988.87 5764.16 4815.96C6733.15 4469.96 7749.47 4546.51 8609.29 4949.84C9469.29 5353.16 10172.8 6083.43 10516 7044.69Z" fill="#2E092A"/>
<path fill-rule="evenodd" clip-rule="evenodd" d="M10496.3 7051.69C10837.6 8007.67 10756.2 9012.67 10348.5 9864.75C10144.7 10290.7 9859.21 10678.6 9504.34 11002.7C9326.91 11164.8 9132.13 11311 8921.52 11438.3V11428.1H5101.18V11461.3C4999.55 11401.1 4900.75 11336.2 4805.15 11266.5C4613.95 11127.1 4435.77 10968.8 4273.42 10793.2C4232.88 10749.3 4193.28 10704.4 4154.82 10658.2H4263.8V5847.19H4257.02C4336.77 5758.57 4421.25 5673.53 4509.87 5592.45C4864.73 5268.13 5289.17 5007.55 5770.93 4835.4C6734.45 4491.28 7745.11 4567.46 8600.22 4968.52C9455.32 5369.58 10154.9 6095.71 10496.3 7051.69Z" fill="#2D0829"/>
<path fill-rule="evenodd" clip-rule="evenodd" d="M10476.9 7058.68C10816.3 8009.38 10735.4 9008.72 10329.8 9855.9C10127.1 10279.6 9843.37 10665 9490.39 10987.4C9313.9 11148.6 9120.26 11294 8910.77 11420.5C8858.35 11452.2 8804.99 11482.6 8750.69 11511.8V11427.9H5111.93V11443.2C5010.87 11383.4 4912.63 11318.7 4817.6 11249.5C4627.53 11110.9 4450.29 10953.5 4288.88 10778.9C4248.53 10735.3 4209.31 10690.5 4170.85 10644.8H4263.81V5995.6H4156.71C4194.04 5949.78 4232.7 5904.9 4272.48 5860.78C4351.86 5772.72 4435.77 5688.06 4524.01 5607.55C4876.99 5285.12 5298.79 5025.85 5777.91 4854.83C6735.97 4512.79 7740.97 4588.4 8591.36 4987.2C9441.75 5385.99 10137.3 6107.98 10476.7 7058.68H10476.9Z" fill="#2C0828"/>
<path fill-rule="evenodd" clip-rule="evenodd" d="M10457.3 7065.67C10794.8 8010.9 10714.3 9004.6 10311.2 9847.06C10109.6 10268.3 9827.35 10651.6 9476.45 10972.2C9301.09 11132.5 9108.39 11277.1 8900.03 11402.8C8847.99 11434.3 8794.82 11464.5 8740.89 11493.5V11427.7H5275.42V11510.7C5223.76 11483.4 5172.85 11454.9 5122.69 11425.3C5022.19 11365.9 4924.52 11301.6 4830.05 11232.6C4641.12 11094.7 4464.82 10938.2 4304.36 10764.6C4264.19 10721.2 4225.16 10676.7 4187.07 10631.3H4264.01V6008.25H4173.12C4210.27 5962.81 4248.73 5918.12 4288.14 5874.19C4367.15 5786.51 4450.49 5702.6 4538.17 5622.28C4889.07 5301.73 5308.61 5043.79 5784.9 4873.71C6737.48 4533.55 7736.83 4608.79 8582.32 5005.32C9427.8 5401.85 10119.6 6119.88 10457.1 7065.11L10457.3 7065.67Z" fill="#2B0727"/>
<path fill-rule="evenodd" clip-rule="evenodd" d="M10437.7 7072.61C10773.4 8012.57 10693.2 9000.6 10292.3 9838.17C10091.9 10256.9 9811.34 10638.2 9462.51 10956.9C9288.1 11116.2 9096.52 11260.1 8889.49 11385.1C8785.97 11447.7 8678.49 11505.6 8567.25 11558.4V11427.9H5285.43V11492.7C5234.14 11465.6 5183.42 11437.3 5133.45 11407.7C5033.52 11348.7 4936.41 11284.8 4842.51 11216.1C4654.52 11079.1 4479.35 10923.5 4319.83 10751C4280.05 10707.8 4241.01 10663.7 4203.3 10618.4H4264.21V6021.6H4189.35C4226.31 5976.35 4264.4 5931.85 4303.8 5888.29C4382.24 5801.18 4465.21 5717.65 4552.51 5637.89C4901.34 5319.04 5318.61 5062.79 5792.27 4893.66C6739.57 4555.39 7733.07 4630.25 8573.84 5024.52C9414.62 5418.79 10102.3 6132.66 10437.9 7072.61H10437.7Z" fill="#2A0626"/>
<path fill-rule="evenodd" clip-rule="evenodd" d="M10418.1 7079.57C10751.9 8014.06 10672.1 8996.43 10273.7 9829.28C10074.4 10245.6 9795.52 10624.8 9448.58 10941.8C9275.11 11100.2 9084.67 11243.3 8878.76 11367.5C8775.81 11429.7 8668.9 11487.3 8558.41 11539.7V11427.9H5450.06V11551.6C5032.03 11355.5 4652.09 11080 4334.94 10736.8C4295.34 10693.8 4256.69 10649.9 4218.98 10605H4263.85V6034.59H4205.21C4241.98 5989.53 4279.88 5945.41 4318.91 5902.04C4396.97 5815.49 4479.37 5732.34 4566.11 5653.15C4913.05 5336.18 5327.88 5081.25 5798.7 4913.25C6740.54 4576.87 7728.38 4651.35 8564.44 5043.35C9400.31 5435.36 10084.2 6145.28 10417.9 7079.76L10418.1 7079.57Z" fill="#290626"/>
<path fill-rule="evenodd" clip-rule="evenodd" d="M10398.5 7086.56C10730.4 8015.76 10651.2 8992.48 10254.8 9820.62C10056.7 10234.7 9779.29 10611.4 9434.42 10926.7C9261.89 11084.3 9072.58 11226.3 8867.81 11350C8765.42 11411.8 8659.27 11469 8549.34 11521.2V11428.1H5459.09V11533.1C5043.51 11338.1 4665.84 11064.3 4350.38 10723.1C4310.97 10680.4 4272.51 10636.7 4235.17 10592H4264.02V6047.8H4221.41C4257.99 6003.11 4295.7 5959.18 4334.54 5916C4412.23 5829.83 4494.06 5747.24 4580.42 5668.43C4925.29 5353.35 5337.66 5099.93 5806.04 4932.68C6742.41 4598.37 7724.78 4672.29 8555.75 5062.03C9386.9 5451.78 10066.8 6157.54 10398.5 7086.75V7086.56Z" fill="#280525"/>
<path fill-rule="evenodd" clip-rule="evenodd" d="M10378.9 7093.53C10708.7 8017.26 10630 8988.52 10235.9 9811.75C10038.9 10223.4 9763.24 10598 9420.25 10911.4C9248.85 11068.1 9060.49 11209.3 8857.03 11332.3C8755.21 11393.7 8649.62 11450.7 8540.45 11502.5V11427.9H5467.93V11514.2C5054.8 11320.4 4679.2 11048.1 4365.63 10708.9C4287.19 10624.1 4212.71 10535.1 4142.57 10442.1H4264V6060.62H4237.41C4273.8 6016.12 4311.32 5972.37 4349.79 5929.57C4426.91 5843.97 4508.55 5761.75 4594.16 5683.5C4937.14 5370.12 5347.06 5118.21 5812.61 4952.09C7674.6 4287.25 9718.92 5246.05 10378.7 7093.71L10378.9 7093.53Z" fill="#280524"/>
<path fill-rule="evenodd" clip-rule="evenodd" d="M10359.3 7100.68C10687.2 8019.14 10609 8984.54 10217.3 9803.07C10021.4 10212.2 9747.26 10584.8 9406.35 10896.3C9235.9 11052.1 9048.66 11192.5 8846.34 11314.7C8745.09 11375.8 8640.06 11432.4 8531.45 11484V11428H5477.03V11495.7C5066.36 11303 4692.83 11032.5 4381.14 10694.9C4303.27 10610.7 4229.17 10522 4159.4 10429.6H4264.05V6208.81H4148.46C4284.04 6025.53 4437.9 5854.51 4608.35 5698.77C4949.26 5387.27 5356.92 5136.87 5819.64 4971.51C7670.88 4310.62 9703.14 5263.77 10359.1 7100.68H10359.3Z" fill="#270424"/>
<path fill-rule="evenodd" clip-rule="evenodd" d="M10339.7 7107.72C10665.7 8020.71 10587.8 8980.65 10198.4 9794.27C10003.8 10201.2 9731.19 10571.5 9392.17 10881.1C9222.66 11035.9 9036.74 11175.6 8835.55 11297.1C8734.86 11357.8 8630.59 11414 8522.55 11465.3V11427.9H5485.85V11476.8C5077.44 11285.2 4706.36 11016.1 4396.38 10680.7C4318.88 10596.8 4245.34 10508.9 4175.77 10416.9H4263.82V6220.75H4165.02C4299.84 6038.61 4452.75 5868.53 4622.27 5713.73C4961.1 5404.12 5366.5 5155.04 5826.57 4990.8C7666.88 4333.68 9687.45 5281.37 10339.5 7107.53L10339.7 7107.72Z" fill="#260423"/>
<path fill-rule="evenodd" clip-rule="evenodd" d="M10320.1 7114.65C10644.2 8022.36 10566.9 8976.45 10179.8 9785.36C9986.31 10189.8 9715.35 10557.9 9378.4 10865.8C9210.02 11019.6 9025.05 11158.6 8824.99 11279.3C8725.06 11339.6 8621.16 11395.6 8513.87 11446.5V11427.9H5494.9V11458C5088.94 11267.6 4719.94 11000 4411.84 10666.7C4334.91 10583.3 4261.56 10495.8 4192.55 10404.4H4264.01V6232.96H4181.99C4316.05 6051.95 4468.03 5882.81 4636.41 5728.95C4973.36 5421.04 5376.3 5173.46 5833.55 5010.17C7663.11 4357.02 9671.61 5299.04 10319.9 7114.46L10320.1 7114.65Z" fill="#250322"/>
<path fill-rule="evenodd" clip-rule="evenodd" d="M10300.5 7121.59C10622.7 8023.83 10545.8 8972.46 10161 9776.46C9968.65 10178.5 9699.2 10544.5 9364.33 10850.5C9196.89 11003.4 9013.05 11141.6 8814.12 11261.5C8714.75 11321.5 8611.61 11377.1 8504.89 11427.8H5504.02V11439.3C5100.51 11250 4733.58 10984.2 4427.36 10652.7C4350.81 10569.9 4278.03 10482.8 4209.39 10392.1H4264.07V6245.37H4198.83C4332.14 6065.3 4483.17 5897.3 4650.61 5744.38C4985.49 5438.35 5385.98 5192.29 5840.78 5029.94C7659.4 4380.55 9656.21 5317.11 10300.5 7121.78V7121.59Z" fill="#240322"/>
<path fill-rule="evenodd" clip-rule="evenodd" d="M10280.8 7128.6C10921.3 8922.52 9974.99 10900.1 8167.11 11545.5V11427.9H5820.15V11547.2C5715.69 11509.9 5613.12 11467.7 5512.81 11420.5C5111.75 11232.3 4747.08 10968 4442.56 10638.6C4366.39 10556.2 4294.17 10469.8 4225.91 10379.5H4264V6257.47H4215.35C4347.91 6078.53 4498 5911.47 4664.49 5759.5C4997.48 5455.35 5395.52 5210.61 5847.49 5049.2C7655.37 4403.78 9640.11 5334.68 10280.6 7128.6H10280.8Z" fill="#230221"/>
<path fill-rule="evenodd" clip-rule="evenodd" d="M10261.2 7135.58C10898 8918.76 9957.25 10884.5 8160.12 11526.1V11427.9H5827.12V11527.8C5723.22 11490.7 5621.4 11448.6 5521.66 11401.9C5122.86 11214.8 4760.46 10952 4457.82 10624.6C4382.21 10542.8 4310.37 10456.8 4242.49 10367.1H4263.99V6269.73H4232.12C4363.74 6091.93 4513.07 5925.81 4678.62 5774.77C5009.54 5472.33 5405.32 5229.28 5854.65 5068.82C7651.78 4427.16 9624.64 5352.6 10261.4 7135.77L10261.2 7135.58Z" fill="#230221"/>
<path fill-rule="evenodd" clip-rule="evenodd" d="M10241.6 7142.59C10874.4 8915.02 9939.56 10868.8 8153.37 11506.7V11427.9H5834.5V11508.4C5731.36 11471.5 5629.92 11429.8 5530.93 11383.2C5134.58 11197.3 4774.25 10936.2 4473.5 10610.7C4398.27 10529.2 4326.81 10444 4259.49 10354.6H4264.21V6282.02H4249.12C4379.98 6105.16 4528.37 5940.17 4692.8 5789.89C5021.83 5489.33 5415.15 5247.6 5861.65 5088.27C7647.85 4450.58 9608.83 5370.35 10241.8 7142.78L10241.6 7142.59Z" fill="#220220"/>
<path fill-rule="evenodd" clip-rule="evenodd" d="M10222 7149.58C10851 8911.26 9921.62 10853.2 8146.36 11487.1V11427.9H5841.45V11489C5738.88 11452.4 5638.19 11410.8 5539.57 11364.6C5145.68 11179.8 4787.61 10920.1 4488.56 10596.6C4413.89 10515.7 4342.81 10430.8 4275.87 10342C4242.31 10297.7 4209.87 10252.5 4178.57 10206.1H4263.99V6427.98H4171.22C4201.58 6382.72 4233.07 6338.04 4265.5 6294.1C4395.6 6118.37 4543.05 5954.32 4706.53 5804.99C5033.49 5506.32 5424.36 5266.09 5868.23 5107.52C7643.67 4473.59 9592.77 5387.9 10221.8 7149.58H10222Z" fill="#210120"/>
<path fill-rule="evenodd" clip-rule="evenodd" d="M10202.4 7156.68C10827.7 8907.61 9903.93 10837.7 8139.42 11467.8V11428H5848.66V11469.5C5746.65 11433.1 5646.52 11391.8 5548.66 11345.8C5157.22 11162.2 4801.23 10904.2 4504.06 10582.6C4429.77 10502.2 4359.25 10417.8 4292.69 10329.7C4259.32 10285.6 4227.07 10240.5 4195.96 10194.7H4264.22V6439.6H4188.8C4218.97 6394.54 4250.27 6350.23 4282.51 6306.48C4411.86 6131.88 4558.37 5968.78 4720.9 5820.38C5045.78 5523.41 5434.4 5284.7 5875.62 5127.25C7640.13 4497.29 9577.35 5405.94 10202.6 7156.68H10202.4Z" fill="#21011F"/>
<path fill-rule="evenodd" clip-rule="evenodd" d="M10182.8 7163.66C10804 8903.85 9886.15 10822.2 8132.39 11448.4V11428H6164.81V11544.2C5955.51 11491.2 5752.06 11418.4 5557.47 11327.2C5168.29 11144.6 4814.56 10888.2 4519.28 10568.6C4445.56 10488.7 4375.23 10404.9 4309.23 10317.3C4276.23 10273.5 4243.99 10228.6 4213.07 10183H4263.98V6450.92H4205.9C4235.88 6406.04 4266.99 6361.92 4299.05 6318.55C4427.46 6145.08 4573.21 5982.93 4734.8 5835.47C5057.8 5540.38 5443.96 5302.99 5882.35 5146.49C7636.11 4520.3 9561.46 5423.29 10182.8 7163.47V7163.66Z" fill="#20011F"/>
<path fill-rule="evenodd" clip-rule="evenodd" d="M10163.2 7170.65C10780.7 8900.09 9868.48 10806.6 8125.46 11428.8V11427.9H6170.14V11524C5961.97 11471.4 5759.84 11399.2 5566.57 11308.5C5179.84 11127.1 4828.37 10872.2 4534.79 10554.7C4388.09 10395.9 4255.92 10221.3 4141.08 10032.6H4264.02V6598.01H4137.12C4192.18 6506.37 4251.77 6417.18 4315.69 6331.01C4443.34 6158.48 4588.15 5997.46 4748.61 5850.95C5069.53 5557.74 5453.44 5321.86 5889.19 5166.3C7632.01 4544.07 9545.48 5441.4 10163 7170.84L10163.2 7170.65Z" fill="#20001E"/>
<path fill-rule="evenodd" clip-rule="evenodd" d="M10143.6 7177.58C10757.3 8896.27 9850.56 10790.9 8118.48 11409.3C8010.25 11448 7901.27 11480.8 7792.09 11507.8V11427.8H6175.23V11504C5968.38 11451.8 5767.57 11379.9 5575.43 11289.8C5191.15 11109.5 4841.76 10856.3 4550.06 10540.7C4404.31 10382.8 4272.88 10209.4 4158.81 10021.8H4264.02V6608.52H4155.04C4209.9 6517.45 4269.11 6428.83 4332.47 6343.22C4459.36 6171.83 4603.23 6011.74 4762.75 5866.18C5081.79 5574.67 5463.24 5340.29 5896.16 5185.68C7628.24 4567.21 9529.83 5459.08 10143.6 7177.77V7177.58Z" fill="#1F001E"/>
<path fill-rule="evenodd" clip-rule="evenodd" d="M10124 7184.59C10733.8 8892.53 9832.86 10775.3 8111.53 11390C7896.38 11466.7 7678.6 11520.1 7461.01 11551.4V11427.9H6180.52V11483.9C5975 11431.8 5775.32 11360.5 5584.5 11271C5202.67 11091.9 4855.35 10840.1 4565.54 10526.6C4420.54 10369.7 4290.06 10197.3 4176.74 10010.9H4264.23V6618.92H4172.97C4227.46 6528.42 4286.29 6440.36 4349.27 6355.32C4475.41 6185.06 4618.34 6025.91 4776.91 5881.1C5093.87 5591.48 5472.87 5358.61 5903.16 5204.94C7624.49 4590.44 9514.2 5476.65 10124 7184.59Z" fill="#1F001E"/>
</g>
<path style="mix-blend-mode:multiply" d="M11262.5 7919.24C11262.5 9846.66 9700.11 11409 7772.69 11409C5845.27 11409 4282.89 9846.66 4282.89 7919.24C4282.89 5991.82 5845.27 4561.81 7772.69 4561.81C9700.11 4561.81 11262.5 5991.82 11262.5 7919.24Z" fill="url(#paint2_radial_1338_2)"/>
<path fill-rule="evenodd" clip-rule="evenodd" d="M7832.63 9553.44C7599.57 9708.81 8117.35 9662.05 8182.02 9678.83C8246.7 9695.8 8143.18 9618.11 8324.38 9488.58C8505.58 9359.23 8233.69 9320.38 8130.17 9359.23C8026.65 9398.07 7832.44 9553.44 7832.44 9553.44H7832.63Z" fill="url(#paint3_linear_1338_2)"/>
<g style="mix-blend-mode:soft-light" opacity="0.49">
<path d="M4835.18 9729.39C4417.15 8806.41 5645.03 6773.59 7250.02 6178.13C8855.01 5582.67 6279.33 6772.64 5489.66 8209.82C5489.66 8209.82 6952.29 6399.49 8652.12 5919.99C10352 5440.49 11002.7 6555.61 11121.8 6860.89C11240.8 7166.16 11262.5 7910.77 11262.5 7910.77C11262.5 7910.77 10473.8 6855.61 8385.13 7399.21C6296.49 7942.82 5380.49 10385.4 5380.49 10385.4C5380.49 10385.4 4896.28 9923.98 4835.18 9729.39Z" fill="#9589C4"/>
</g>
<g style="mix-blend-mode:soft-light" opacity="0.49">
<path d="M5469.48 10503.8C5469.48 10503.8 6391.71 8377.26 8186.39 7695.45C9981.25 7013.81 11137.5 7906.63 11137.5 7906.63C11137.5 7906.63 9421.05 7260.63 8078.91 7827.81C6736.96 8394.99 5880.72 10410.7 5782.3 10748.7L5469.29 10503.8H5469.48Z" fill="#9589C4"/>
</g>
<g style="mix-blend-mode:soft-light" opacity="0.49">
<path d="M6124.11 11019.5C6124.11 11019.5 6375.46 9155.99 7772.85 8168.34C9170.24 7180.49 11077.1 8164.94 11137.6 8535.64C11198 8906.35 10714.9 10045.2 9342.76 10597.5C7970.83 11149.8 10147 10022.2 10697.5 9131.11C11248.1 8239.99 9845.64 7573.82 8303.63 8279.4C6761.62 8984.97 6531.77 11181.7 6531.77 11181.7L6124.3 11019.5H6124.11Z" fill="#9589C4"/>
</g>
<g style="mix-blend-mode:multiply" opacity="0.49">
<path d="M7716.14 8910.68C7069.01 9747.68 7030.17 10530.8 7237.2 10851.1C7444.24 11171.5 10145.1 10002.2 10602.6 9035.88C11059.8 8069.53 8532.77 7866.45 7772.89 9076.8C7013.01 10287.1 8574.82 10024.7 9351.48 9543.28C10128.1 9061.9 9004.92 8739.09 9601.7 8535.83C10198.5 8332.56 10324.8 9573.83 8747.35 10138.9C7169.89 10704 7042.61 9961.12 7716.14 8910.68Z" fill="#4A001D"/>
</g>
<g style="mix-blend-mode:multiply" opacity="0.49">
<path d="M7772.63 9191.05C8488.2 8354.05 9262.79 8343.3 9476.23 8369.14C9689.87 8394.97 9320.86 8444.37 9282.02 8649.52C9243.18 8854.67 9482.64 9003.44 9346.69 9242.9C9210.75 9482.37 9120.24 9754.08 8330.57 9728.25C7541.08 9702.42 8323.97 8828.08 8803.09 8786.22C9282.21 8744.55 9262.6 9201.23 8835.52 9344.91C8408.44 9488.78 8350.18 9313.99 8596.05 9191.05C8841.93 9068.11 8770.84 8914.44 8537.79 9046.24C8304.73 9178.04 8007.19 9752.19 8705.98 9571.93C9404.96 9391.68 9297.86 8804.51 9003.71 8649.52C8709.56 8494.53 8133.34 8757.56 7772.44 9191.05H7772.63Z" fill="#4A001D"/>
</g>
<g style="mix-blend-mode:soft-light" opacity="0.49">
<path d="M7753.09 9892.5C7625.63 9903.06 7858.49 10394.8 8790.53 10077.7C9722.37 9760.51 9871.33 9220.11 9871.33 9131.11C9871.33 9042.11 9450.47 9636.06 8657.78 9847.06C7865.09 10058.1 7753.28 9892.31 7753.28 9892.31L7753.09 9892.5Z" fill="#9589C4"/>
</g>
<g style="mix-blend-mode:soft-light" opacity="0.49">
<path d="M7586.74 10905C7586.74 10905 7990.81 10985.1 8745.23 10621.2C9499.64 10257.3 9932.19 9757.62 9932.19 9757.62C9932.19 9757.62 8623.99 10757.3 7586.93 10905H7586.74Z" fill="#9589C4"/>
</g>
<g style="mix-blend-mode:multiply" opacity="0.49">
<path d="M4287.42 7741.04C4287.42 7741.04 4907.39 5342.41 6840.28 4747.14C8773.17 4151.68 9659.39 5028.09 9739.52 5103.51C9819.85 5178.94 8522.77 4519.37 6753.93 5103.51C4985.08 5687.66 4467.31 7471.21 4493.14 7865.11C4518.97 8259.19 5443.84 5749.13 7263.03 5228.53C9082.22 4707.92 10058.7 5532.48 10162.3 5713.68C10265.8 5894.88 8962.86 5465.92 7159.51 6224.1C5356.16 6982.1 4553.66 9122.21 4553.66 9122.21C4553.66 9122.21 4193.71 8586.52 4287.42 7741.23V7741.04Z" fill="#4A001D"/>
</g>
<g style="mix-blend-mode:soft-light" opacity="0.49">
<path d="M5800.53 8204.19C5541.64 8751.01 6926.96 6601.28 8440.88 6181.74C9954.79 5762.2 10684.1 6576.58 10830.8 6705.93C10977.5 6835.28 9760.96 5987.53 8732.01 6272.25C7703.06 6556.97 7101.19 7275.37 7036.51 7527.84C6971.84 7780.32 8919.81 7034.58 10065.3 7177.69C11210.8 7320.81 11254.7 7817.65 11254.7 7817.65C11254.7 7817.65 11278.1 6354.65 10231.6 6035.23C9185.11 5715.82 7431.16 5884.01 5800.34 8204.01L5800.53 8204.19Z" fill="#9589C4"/>
</g>
<g style="mix-blend-mode:soft-light" opacity="0.49">
<path d="M8104.73 6519.56C7334.67 6916.28 8764.49 6948.9 9948.81 7102.38C11133.1 7255.87 9931.46 5578.66 8104.73 6519.56Z" fill="#9589C4"/>
</g>
<g style="mix-blend-mode:soft-light" opacity="0.49">
<path d="M5261.71 10342.4C5010.93 9898.58 5942.77 8405.97 5865.09 8474.99C5787.4 8544 5200.62 9338.76 5079.94 9653.27C4959.08 9967.79 5261.71 10342.6 5261.71 10342.6V10342.4Z" fill="#FFFEFE"/>
<path d="M5425.2 9653.12C5334.31 9832.06 5541.73 9660.66 5625.82 9461.54C5709.92 9262.43 5509.29 9487.56 5425.2 9653.12Z" fill="#FFFEFE"/>
<path d="M6344.01 9148.17C6344.01 9148.17 5834.91 9870.72 5769.1 10103.6C5703.3 10336.6 6606.29 9007.88 6771.28 8763.89C6936.08 8520.09 6344.01 9148.17 6344.01 9148.17Z" fill="#FFFEFE"/>
<path d="M7858.54 8238.93C7627.75 8332.83 7431.46 8632.07 7412.04 8707.86C7392.62 8783.48 7871.55 8422.96 8039.74 8279.65C8207.93 8136.35 7987.89 8186.32 7858.54 8238.93Z" fill="#FFFEFE"/>
<path d="M7125.6 7064.02C7043.76 7179.04 7228.74 7059.68 7293.41 6982C7358.09 6904.31 7177.83 6990.67 7125.6 7064.02Z" fill="#FFFEFE"/>
<path d="M6244.86 6231.55C6125.32 6336.57 6354.6 6257.38 6800.16 5972.66C7245.72 5687.94 8388.75 5524.46 8511.87 5498.44C8635 5472.42 7306.06 5299.89 6244.86 6231.73V6231.55Z" fill="#FFFEFE"/>
<path d="M8356.85 11022.6C8058.74 11033.5 9013.21 11184.3 9542.49 10757.3C10071.8 10330.2 9237.03 10990.3 8356.85 11022.6Z" fill="#FFFEFE"/>
</g>
<g style="mix-blend-mode:multiply" opacity="0.8">
<path d="M6124.1 6447.04C5966.09 6608.45 6620.2 6499.65 7187.56 6212.29C7754.93 5924.93 8007.78 5726.57 8007.78 5726.57C8007.78 5726.57 6723.9 5834.42 6124.1 6447.04Z" fill="#4A001D"/>
</g>
<g style="mix-blend-mode:multiply" opacity="0.8">
<path d="M5412.12 7210.66C5349.9 7195.2 5602 6856.93 5856.55 6792.26C6111.1 6727.58 5550.15 7245.36 5412.12 7210.66Z" fill="#4A001D"/>
</g>
<g style="mix-blend-mode:multiply" opacity="0.8">
<path d="M8189.76 10297.9C7625.04 10383.3 7949.17 10649.4 8466.94 10524.2C8984.72 10399 9658.99 9815.21 9708.02 9757.7C9757.04 9700.19 8887.8 10192.3 8189.95 10297.9H8189.76Z" fill="#4A001D"/>
</g>
<g style="mix-blend-mode:multiply" opacity="0.8">
<path d="M8583.3 8472.5C7937.5 8748.55 8803.54 8436.68 9004.16 8535.67C9204.59 8634.47 9878.49 8274.33 9932.04 8292.62C9985.59 8310.91 9385.8 8129.33 8583.3 8472.5Z" fill="#4A001D"/>
</g>
<g style="mix-blend-mode:multiply" opacity="0.8">
<path d="M5256.95 5933.58C5157.77 6041.44 6037.95 5247.62 6926.62 4928.39C7815.47 4609.17 5990.43 4699.67 5256.95 5933.58Z" fill="#4A001D"/>
</g>
<g style="mix-blend-mode:multiply" opacity="0.8">
<path d="M5648.39 6333.46C5513.76 6489.96 6943.77 5614.31 7414.03 5402.94C7884.29 5191.57 6579.29 5141.41 5648.39 6333.46Z" fill="#4A001D"/>
</g>
<g style="mix-blend-mode:soft-light" opacity="0.49">
<path d="M6468.07 5212.71C5873.93 5627.35 7191.93 5043.58 8259.73 5046.41C9327.52 5049.23 10065.3 5468.96 10065.3 5468.96C10065.3 5468.96 9200.05 4282.56 6468.07 5212.71Z" fill="#9589C4"/>
</g>
<path style="mix-blend-mode:screen" d="M7772.72 11409C9700.08 11409 11262.5 9846.58 11262.5 7919.22C11262.5 5991.86 9700.08 4429.42 7772.72 4429.42C5845.36 4429.42 4282.93 5991.86 4282.93 7919.22C4282.93 9846.58 5845.36 11409 7772.72 11409Z" fill="url(#paint4_radial_1338_2)"/>
<g style="mix-blend-mode:soft-light" opacity="0.5">
<path d="M8303.46 7031.57C7714.79 7206.55 9288.67 7083.99 9994.24 7063.24C10699.6 7042.5 10966.2 7315.72 10923.6 7218.05C10880.8 7120.19 10385.9 6412.54 8303.65 7031.76L8303.46 7031.57Z" fill="#1F00CE"/>
</g>
<g style="mix-blend-mode:soft-light">
<path d="M9948.79 7102.45C9564.33 7131.3 10165.6 7119.98 10453.6 7204.27C10741.5 7288.37 10570.1 7055.88 9948.79 7102.45Z" fill="#1F00CE"/>
</g>
<g style="mix-blend-mode:soft-light">
<path d="M8453.92 6422.48C7649.35 6723.04 9542.83 6566.91 10379.1 6722.66C11215.1 6878.41 10136.6 5793.83 8453.92 6422.48Z" fill="#1F00CE"/>
</g>
<g style="mix-blend-mode:soft-light" opacity="0.5">
<path d="M6383.02 8668.39C5935.39 9190.13 5708.37 9783.89 5708.37 9783.89C5708.37 9783.89 6741.09 8417.23 6946.05 8243.2C7151.01 8069.16 6512.94 8516.98 6383.02 8668.2V8668.39Z" fill="#1F00CE"/>
</g>
<g style="mix-blend-mode:soft-light">
<path d="M6737.86 9323.24C6324.54 10096.1 6818.94 9700.16 7053.88 9182.39C7289.01 8664.61 6842.5 9127.52 6737.86 9323.24Z" fill="#1F00CE"/>
</g>
<g style="mix-blend-mode:soft-light">
<path d="M5039.91 8332.39C4831.74 8774.75 5899.72 7129.78 6124.11 6831.67C6348.49 6533.38 5578.05 7188.99 5039.91 8332.39Z" fill="#1F00CE"/>
</g>
<g style="mix-blend-mode:soft-light">
<path d="M8258.95 10944.4C8258.95 10944.4 9583.18 11008.5 10144.1 10410.2C10705.1 9811.96 10830.9 9345.85 10830.9 9345.85C10830.9 9345.85 10324.8 10739.1 8258.95 10944.4Z" fill="#1F00CE"/>
</g>
<g style="mix-blend-mode:soft-light">
<path d="M8907.61 10704.3C8907.61 10704.3 10118.9 10455.4 10477.2 9818.99C10835.4 9182.61 10831.1 9151.5 10831.1 9151.5C10831.1 9151.5 10163.8 10319.2 8907.61 10704.3Z" fill="#1F00CE"/>
</g>
<g style="mix-blend-mode:soft-light">
<path d="M5708.17 6087.79C5708.17 6087.79 6908.7 5219.87 7892.59 5065.44C8876.47 4911.02 6905.87 4650.05 5708.17 6087.79Z" fill="#1F00CE"/>
</g>
<g style="mix-blend-mode:soft-light">
<path d="M6898.32 5795.73C6654.14 5956.57 7398.37 5750.29 7434.38 5723.32C7470.21 5696.36 7284.29 5541.37 6898.32 5795.73Z" fill="#1F00CE"/>
</g>
<defs>
<radialGradient id="paint0_radial_1338_2" cx="0" cy="0" r="1" gradientUnits="userSpaceOnUse" gradientTransform="translate(7789.05 7877.89) scale(5395.94)">
<stop offset="0.47" stop-color="#7E00E1"/>
<stop offset="0.51" stop-color="#6500C9"/>
<stop offset="0.61" stop-color="#46008C"/>
<stop offset="0.71" stop-color="#2D005A" stop-opacity="0"/>
<stop offset="0.79" stop-color="#190033" stop-opacity="0"/>
<stop offset="0.88" stop-color="#0B0017" stop-opacity="0"/>
<stop offset="0.95" stop-color="#030006" stop-opacity="0"/>
<stop offset="1" stop-opacity="0"/>
</radialGradient>
<radialGradient id="paint1_radial_1338_2" cx="0" cy="0" r="1" gradientUnits="userSpaceOnUse" gradientTransform="translate(8195 7849.38) scale(3959.61)">
<stop offset="0.47" stop-color="#00B4E1"/>
<stop offset="0.51" stop-color="#00A1C9"/>
<stop offset="0.61" stop-color="#00708C"/>
<stop offset="0.71" stop-color="#00485A"/>
<stop offset="0.79" stop-color="#002933"/>
<stop offset="0.88" stop-color="#001217" stop-opacity="0"/>
<stop offset="0.95" stop-color="#000406" stop-opacity="0"/>
<stop offset="1" stop-opacity="0"/>
</radialGradient>
<radialGradient id="paint2_radial_1338_2" cx="0" cy="0" r="1" gradientUnits="userSpaceOnUse" gradientTransform="translate(8676.25 6395.71) scale(5095.73 5095.73)">
<stop stop-color="white"/>
<stop offset="0.19" stop-color="#FCFCFC"/>
<stop offset="0.32" stop-color="#F3F2F6"/>
<stop offset="0.44" stop-color="#E5E3EB"/>
<stop offset="0.54" stop-color="#D1CDDC"/>
<stop offset="0.64" stop-color="#B7B0C8"/>
<stop offset="0.74" stop-color="#978DAF"/>
<stop offset="0.83" stop-color="#706392"/>
<stop offset="0.92" stop-color="#453471"/>
<stop offset="1" stop-color="#16004D"/>
</radialGradient>
<linearGradient id="paint3_linear_1338_2" x1="8078.88" y1="9681.28" x2="8078.88" y2="9344.9" gradientUnits="userSpaceOnUse">
<stop stop-color="#110015"/>
<stop offset="0.07" stop-color="#100012"/>
<stop offset="0.44" stop-color="#100009"/>
<stop offset="1" stop-color="#100007"/>
</linearGradient>
<radialGradient id="paint4_radial_1338_2" cx="0" cy="0" r="1" gradientUnits="userSpaceOnUse" gradientTransform="translate(7558.33 7876.23) rotate(-90) scale(4289.65 4289.65)">
<stop/>
<stop offset="0.27" stop-color="#010002"/>
<stop offset="0.41" stop-color="#050009"/>
<stop offset="0.52" stop-color="#0C0017"/>
<stop offset="0.61" stop-color="#17002A"/>
<stop offset="0.69" stop-color="#240042"/>
<stop offset="0.77" stop-color="#350060"/>
<stop offset="0.84" stop-color="#480084"/>
<stop offset="0.9" stop-color="#5F00AE"/>
<stop offset="0.96" stop-color="#7800DB"/>
<stop offset="1" stop-color="#8C00FF"/>
</radialGradient>
</defs>
</svg>
