<svg width="375" height="374" viewBox="0 0 375 374" fill="none" xmlns="http://www.w3.org/2000/svg">
<mask id="mask0_1399_2237" style="mask-type:luminance" maskUnits="userSpaceOnUse" x="0" y="0" width="375" height="374">
<path d="M187.5 373.812C290.725 373.812 374.406 290.131 374.406 186.906C374.406 83.6807 290.725 0 187.5 0C84.2744 0 0.59375 83.6807 0.59375 186.906C0.59375 290.131 84.2744 373.812 187.5 373.812Z" fill="white"/>
</mask>
<g mask="url(#mask0_1399_2237)">
<path d="M374.402 0.000976562H0.589844V373.813H374.402V0.000976562Z" fill="#4B193F"/>
<path fill-rule="evenodd" clip-rule="evenodd" d="M358.577 131.443C379.33 189.551 374.372 250.638 349.59 302.424C337.198 328.317 319.849 351.887 298.278 371.59C295.582 374.054 292.815 376.457 289.997 378.8V374.831H4.09421V381.052C1.28678 378.79 -1.46005 376.457 -4.15639 374.064H-0.419891V42.7368H-5.27734C16.2934 23.0242 42.0854 7.17943 71.3614 -3.27269V-1.0106H223.417V-3.38379C230.183 -0.960111 236.828 1.77662 243.331 4.81632C295.309 29.1945 337.825 73.3256 358.577 131.433V131.443Z" fill="#4B193F"/>
<path fill-rule="evenodd" clip-rule="evenodd" d="M357.524 131.817C378.165 189.642 373.237 250.426 348.586 301.949C336.256 327.711 318.997 351.16 297.538 370.771C294.851 373.225 292.105 375.619 289.297 377.941V374.821H4.79762V380.173C2.01039 377.921 -0.726351 375.609 -3.41259 373.215H-0.423384V43.5547H-4.52344C16.9362 23.9431 42.607 8.17907 71.7416 -2.23265V-1.01072H223.04V-2.34375C229.776 0.0597312 236.39 2.78639 242.853 5.81598C294.569 30.073 336.882 73.992 357.524 131.807V131.817Z" fill="#4A183E"/>
<path fill-rule="evenodd" clip-rule="evenodd" d="M356.476 132.194C377.017 189.726 372.119 250.207 347.579 301.478C335.309 327.118 318.131 350.446 296.783 369.957C294.117 372.401 291.38 374.774 288.583 377.096V374.824H5.50723V379.318C2.7301 377.076 0.00346716 374.774 -2.66258 372.401H-0.420675V44.3657H-3.77344C17.5852 24.8551 43.1247 9.16183 72.1079 -1.18929V-1.01763H202.209V-7.53125C216.054 -4.02701 229.506 0.779939 242.371 6.81894C293.834 30.9547 335.935 74.6516 356.476 132.184V132.194Z" fill="#48173D"/>
<path fill-rule="evenodd" clip-rule="evenodd" d="M355.429 132.567C375.868 189.816 370.991 249.994 346.582 301.002C334.373 326.511 317.286 349.728 296.038 369.138C293.382 371.561 290.666 373.935 287.879 376.237V374.823H6.21683V378.459C3.4498 376.237 0.743369 373.935 -1.91258 371.571H-0.417981V45.1828H-3.02344C18.2241 25.7631 43.6324 10.1506 72.4842 -0.15005C79.6947 -2.72521 86.9556 -4.90654 94.2267 -6.7041V-1.00844H201.939V-6.44153C215.714 -2.95749 229.094 1.82928 241.899 7.82788C293.1 31.8425 334.989 75.3172 355.429 132.567Z" fill="#47173C"/>
<path fill-rule="evenodd" clip-rule="evenodd" d="M354.379 132.94C374.717 189.896 369.86 249.771 345.573 300.527C333.424 325.905 316.428 349.011 295.281 368.319C292.635 370.733 289.929 373.086 287.162 375.378V374.813H6.92416V377.58C4.17733 375.368 1.48097 373.076 -1.16487 370.733H-0.417568V46.0003H-2.26562C18.881 26.6816 44.1579 11.1498 72.8583 0.899702C80.0385 -1.66536 87.2489 -3.83656 94.4896 -5.62402V-1.00893H201.657V-5.37156C215.36 -1.90772 228.681 2.85885 241.415 8.82716C292.363 32.7206 334.04 75.9832 354.379 132.94Z" fill="#45163B"/>
<path fill-rule="evenodd" clip-rule="evenodd" d="M353.326 133.312C373.563 189.986 368.726 249.558 344.56 300.061C332.472 325.308 315.557 348.292 294.521 367.52C289.26 372.327 283.746 376.892 277.979 381.204V374.832H7.61813V376.74C4.8814 374.539 2.19515 372.267 -0.4305 369.924V46.8071H-1.53125C19.5043 27.5894 44.66 12.1283 73.219 1.93874C80.3588 -0.606119 87.5389 -2.76722 94.7393 -4.55469V-1.01005H201.361V-4.30222C214.994 -0.858578 228.244 3.88781 240.917 9.82582C291.603 33.5981 333.078 76.6386 353.305 133.312H353.326Z" fill="#44153A"/>
<path fill-rule="evenodd" clip-rule="evenodd" d="M352.28 133.686C372.417 190.067 367.61 249.336 343.565 299.587C331.548 324.712 314.713 347.576 293.779 366.703C288.548 371.479 283.054 376.034 277.328 380.316V374.822H8.33004V375.872C5.6135 373.681 2.93735 371.419 0.321799 369.086C-2.29375 366.763 -4.85881 364.36 -7.36328 361.906H-0.415399V47.6255H-0.75875C20.1657 28.4986 45.2002 13.1284 73.6078 2.97927C87.8166 -2.09026 102.197 -5.61468 116.557 -7.6748V-1.00968H201.103V-3.22129C214.666 0.212253 227.855 4.92834 240.458 10.8361C290.891 34.4871 332.144 77.3155 352.28 133.696V133.686Z" fill="#431439"/>
<path fill-rule="evenodd" clip-rule="evenodd" d="M351.227 134.058C371.253 190.156 366.476 249.122 342.553 299.111C330.596 324.105 313.842 346.857 293.029 365.883C287.828 370.639 282.365 375.164 276.659 379.425V374.82H17.3052V381.354C11.7005 377.264 6.27747 372.902 1.06657 368.266C-1.53889 365.954 -4.08376 363.57 -6.57812 361.126H-0.417937V52.0469H-3.87168C-2.59925 50.8249 -1.31672 49.6232 -0.0139968 48.4315C20.8094 29.4057 45.7026 14.1062 73.9688 4.01766C88.0968 -1.03167 102.407 -4.53591 116.696 -6.58594V-1.01149H200.818V-2.15264C214.32 1.26071 227.428 5.94649 239.971 11.834C290.141 35.3639 331.192 77.9701 351.217 134.068L351.227 134.058Z" fill="#411438"/>
<path fill-rule="evenodd" clip-rule="evenodd" d="M350.178 134.445C370.103 190.251 365.346 248.914 341.554 298.65C329.658 323.512 312.995 346.154 292.282 365.079C287.102 369.815 281.669 374.309 275.993 378.56V374.834H17.9625V380.469C12.3779 376.399 6.99531 372.057 1.8147 367.452C-0.770557 365.149 -3.31542 362.776 -5.78959 360.342H-0.417095V56.5241H-6.83984C-4.37577 54.0499 -1.85111 51.6263 0.734151 49.2531C21.4465 30.3282 46.2185 15.1095 74.3433 5.06136C88.4006 0.0423269 102.64 -3.45182 116.859 -5.49175V-1.01805H159.293V-7.37012C187.307 -5.84522 214.543 1.12285 239.497 12.8272C289.414 36.2359 330.253 78.62 350.178 134.435V134.445Z" fill="#401337"/>
<path fill-rule="evenodd" clip-rule="evenodd" d="M349.127 134.817C368.951 190.34 364.214 248.7 340.543 298.173C328.707 322.915 312.136 345.425 291.524 364.259C286.374 368.965 280.971 373.439 275.326 377.67V374.832H18.6281V379.579C13.0738 375.529 7.71141 371.207 2.56109 366.622C-0.0140651 364.33 -2.53873 361.977 -5.0129 359.553H-0.418008V57.3001H-6.04297C-3.59909 54.836 -1.08452 52.4225 1.49064 50.0695C22.102 31.2355 46.7427 16.0976 74.716 6.11001C102.689 -3.87757 131.349 -7.76554 159.232 -6.25074C187.104 -4.73594 214.189 2.19173 239.021 13.8456C288.676 37.1331 329.303 79.3051 349.127 134.828V134.817Z" fill="#3F1236"/>
<path fill-rule="evenodd" clip-rule="evenodd" d="M348.074 135.193C367.797 190.423 363.091 248.49 339.531 297.701C327.756 322.311 311.264 344.71 290.764 363.443C285.634 368.129 280.262 372.583 274.647 376.784V374.824H19.292V378.672C13.7681 374.643 8.43598 370.351 3.30586 365.786C0.740802 363.504 -1.77377 361.161 -4.22774 358.747H-0.420546V58.08H-5.25781C-2.82404 55.626 -0.31956 53.2326 2.2455 50.8897C22.7458 32.1567 47.2653 17.0895 75.0972 7.15243C102.929 -2.78465 131.438 -6.65243 159.169 -5.14773C186.899 -3.63293 213.843 3.25436 238.544 14.8375C287.947 38.0038 328.361 79.9537 348.084 135.193H348.074Z" fill="#3E1135"/>
<path fill-rule="evenodd" clip-rule="evenodd" d="M347.024 135.566C366.645 190.513 361.96 248.267 338.531 297.235C326.816 321.714 310.416 344.002 290.017 362.634C284.917 367.29 279.575 371.723 273.98 375.904V374.833H19.9482V377.792C14.4545 373.783 9.14263 369.511 4.0428 364.977C1.48784 362.705 -1.00653 360.372 -3.4504 357.979H-0.430912V58.8563H-4.48047C-2.05679 56.4124 0.427479 54.0292 2.98244 51.6964C23.3817 33.0643 47.77 18.0779 75.4504 8.19133C103.131 -1.69526 131.498 -5.54283 159.088 -4.03813C186.677 -2.53343 213.479 4.32356 238.049 15.8461C287.189 38.8913 327.402 80.629 347.013 135.566H347.024Z" fill="#3C1134"/>
<path fill-rule="evenodd" clip-rule="evenodd" d="M345.972 135.937C365.493 190.591 360.828 248.053 337.52 296.759C325.866 321.117 309.547 343.283 289.258 361.814C284.189 366.449 278.867 370.852 273.313 375.013V374.821H20.6138V376.881C15.1504 372.892 9.8688 368.641 4.79927 364.127C2.26451 361.875 -0.219764 359.552 -2.65354 357.169H-0.421731V59.6319H-3.68359C-1.27001 57.2082 1.20415 54.8351 3.73891 52.5124C24.0271 33.9712 48.2841 19.0656 75.8332 9.23961C103.372 -0.596482 131.588 -4.42386 159.026 -2.92926C186.464 -1.43466 213.135 5.38193 237.573 16.854C286.461 39.7881 326.452 81.2936 345.972 135.948V135.937Z" fill="#3B1033"/>
<path fill-rule="evenodd" clip-rule="evenodd" d="M344.923 136.311C364.332 190.683 359.697 247.831 336.521 296.284C324.928 320.511 308.699 342.556 288.512 360.996C283.462 365.601 278.171 369.994 272.647 374.125C269.88 376.195 267.062 378.194 264.174 380.144V374.822H21.281V375.993C15.8479 372.024 10.5966 367.793 5.54729 363.309C3.02263 361.067 0.548446 358.755 -1.86513 356.381H-0.410924V60.4098H-2.875C-0.481618 57.9963 1.98245 55.6332 4.50712 53.3307C24.6842 34.8905 48.82 20.0657 76.2177 10.2801C103.615 0.494482 131.68 -3.3127 158.976 -1.8282C186.273 -0.343697 212.802 6.44258 237.11 17.844C285.735 40.6568 325.523 81.9402 344.933 136.311H344.923Z" fill="#3A0F32"/>
<path fill-rule="evenodd" clip-rule="evenodd" d="M343.876 136.685C363.185 190.763 358.58 247.618 335.515 295.809C323.982 319.905 307.834 341.839 287.768 360.178C282.749 364.763 277.488 369.126 271.984 373.236C269.237 375.296 266.43 377.285 263.562 379.214V374.811H21.9411V375.084C16.5383 371.145 11.3072 366.934 6.28814 362.471C3.77357 360.239 1.3196 357.946 -1.08388 355.583H-0.417369V61.177H-2.09375C0.289534 58.7736 2.74351 56.4307 5.24798 54.1383C25.3241 35.7991 49.3286 21.045 76.5748 11.32C103.821 1.58485 131.744 -2.20213 158.899 -0.717622C186.054 0.756782 212.432 7.51276 236.618 18.8536C284.991 41.5452 324.568 82.6165 343.876 136.695V136.685Z" fill="#390F31"/>
<path fill-rule="evenodd" clip-rule="evenodd" d="M342.822 137.068C362.03 190.864 357.445 247.406 334.501 295.344C323.029 319.309 306.972 341.132 287.007 359.37C282.018 363.935 276.777 368.267 271.313 372.357C268.577 374.407 265.789 376.386 262.932 378.305V374.811H30.8038V379.88C28.0266 378.052 25.2899 376.154 22.6036 374.195C11.8486 366.348 1.82059 357.451 -7.30859 347.565H-0.411207V61.9543H-1.29989C1.07329 59.5609 3.50708 57.2281 6.00145 54.9458C25.9665 36.6975 49.8498 22.0343 76.9546 12.3497C131.164 -7.00948 188.03 -2.72766 236.15 19.8428C284.26 42.4133 323.625 83.2624 342.832 137.058L342.822 137.068Z" fill="#370E30"/>
<path fill-rule="evenodd" clip-rule="evenodd" d="M341.773 137.443C360.88 190.945 356.316 247.195 333.503 294.871C322.091 318.714 306.125 340.416 286.261 358.553C281.293 363.087 276.092 367.399 270.649 371.479C267.932 373.519 265.145 375.488 262.317 377.397V374.822H31.4215V378.962C28.6544 377.144 25.9379 375.256 23.2618 373.307C12.5673 365.501 2.58981 356.644 -6.49899 346.818H-0.429699V70.024H-7.41797C-2.94426 65.0656 1.77181 60.3091 6.74036 55.7748C26.6044 37.6276 50.3464 23.035 77.3098 13.411C131.237 -5.84718 187.789 -1.58554 235.647 20.8638C283.504 43.3131 322.657 83.9501 341.763 137.453L341.773 137.443Z" fill="#360D2F"/>
<path fill-rule="evenodd" clip-rule="evenodd" d="M340.725 137.817C359.73 191.037 355.186 246.973 332.494 294.407C321.144 318.118 305.258 339.699 285.505 357.756C280.567 362.27 275.387 366.562 269.974 370.611C267.267 372.631 264.5 374.6 261.683 376.499V374.843H32.0392V378.064C29.2923 376.256 26.5859 374.378 23.9299 372.439C13.2859 364.683 3.36906 355.867 -5.66924 346.092H-0.417937V70.7619H-6.57812C-2.13472 65.8338 2.56116 61.0975 7.49941 56.5834C27.2524 38.5371 50.8731 24.0152 77.6952 14.4417C131.329 -4.70537 187.589 -0.474038 235.184 21.8541C282.779 44.1822 321.729 84.5971 340.725 137.817Z" fill="#350D2F"/>
<path fill-rule="evenodd" clip-rule="evenodd" d="M339.671 138.19C358.565 191.117 354.061 246.761 331.491 293.931C320.201 317.512 304.406 338.982 284.754 356.937C274.928 365.915 264.143 374.014 252.479 381.053V374.832H32.6614V377.124C29.9246 375.327 27.2384 373.458 24.5926 371.53C14.0092 363.814 4.14277 355.049 -4.84503 345.334H-0.421816V71.4984H-5.75391C-1.33069 66.5905 3.33488 61.8845 8.25293 57.4007C27.9049 39.4453 51.3944 25.0143 78.065 15.4913C131.406 -3.55478 187.363 0.656345 234.705 22.8633C282.048 45.0702 320.776 85.273 339.681 138.2L339.671 138.19Z" fill="#340C2E"/>
<path fill-rule="evenodd" clip-rule="evenodd" d="M338.624 138.564C357.418 191.208 352.934 246.539 330.485 293.457C319.265 316.916 303.542 338.265 284.001 356.119C274.235 365.046 263.501 373.095 251.907 380.103V374.832H41.5522V381.366C35.9575 378.053 30.5143 374.478 25.2529 370.641C14.7301 362.966 4.91422 354.251 -4.02309 344.586H-0.417866V72.2357H-4.92188C-0.528958 67.358 4.11643 62.6722 9.00419 58.2086C28.5451 40.3542 51.9134 25.9939 78.4325 16.5213C131.481 -2.42374 187.134 1.76721 234.214 23.853C281.294 45.9388 319.821 85.9194 338.614 138.564H338.624Z" fill="#330B2D"/>
<path fill-rule="evenodd" clip-rule="evenodd" d="M337.57 138.937C356.263 191.288 351.799 246.326 329.471 292.982C318.312 316.31 302.679 337.547 283.25 355.3C273.535 364.177 262.86 372.185 251.328 379.153V374.821H42.1239V380.406C36.5595 377.114 31.1467 373.559 25.9156 369.742C15.4432 362.107 5.68794 353.442 -3.19888 343.828H-0.421745V72.9722H-4.09766C0.275063 68.1249 4.90025 63.4592 9.7577 59.0259C29.1875 41.2725 52.4346 26.993 78.8123 17.571C131.578 -1.27315 186.918 2.8976 233.746 24.8622C280.573 46.8268 318.888 86.5852 337.58 138.947L337.57 138.937Z" fill="#320B2C"/>
<path fill-rule="evenodd" clip-rule="evenodd" d="M336.522 139.311C355.113 191.379 350.68 246.114 328.473 292.507C317.375 315.704 301.833 336.82 282.504 354.483C272.84 363.309 262.236 371.277 250.754 378.205V374.821H42.7012V379.447C37.1671 376.175 31.7845 372.63 26.5837 368.833C16.172 361.239 6.46719 352.625 -2.36914 343.061H-0.409998V73.7097H-3.25781C1.09471 68.8826 5.6896 64.2574 10.5168 59.8342C29.8456 42.1716 52.9513 27.9729 79.1876 18.6114C131.66 -0.121574 186.698 4.01887 233.273 25.8623C279.848 47.7057 317.94 87.252 336.532 139.321L336.522 139.311Z" fill="#310A2B"/>
<path fill-rule="evenodd" clip-rule="evenodd" d="M335.47 139.685C353.96 191.461 349.547 245.893 327.462 292.033C316.424 315.109 300.963 336.104 281.745 353.665C272.131 362.441 261.588 370.369 250.177 377.256V374.812H43.2752V378.488C37.7715 375.236 32.4192 371.712 27.2386 367.935C16.8874 360.381 7.2331 351.817 -1.55273 342.304H-0.421674V74.4476H-2.44141C1.88082 69.6507 6.4555 65.0457 11.2625 60.6528C30.4802 43.0912 53.4648 28.9733 79.5597 19.6522C131.739 1.02021 186.474 5.14048 232.787 26.8627C279.099 48.5849 316.989 87.9091 335.48 139.685H335.47Z" fill="#2F092A"/>
<path fill-rule="evenodd" clip-rule="evenodd" d="M334.423 140.068C352.813 191.561 348.42 245.69 326.466 291.578C315.489 314.522 300.118 335.406 281.002 352.867C271.448 361.602 260.956 369.479 249.605 376.326V374.832H43.8548V377.558C38.3813 374.316 33.0593 370.822 27.909 367.066C17.6084 359.552 8.01466 351.039 -0.730781 341.577H-0.417725V75.1841H-1.60938C2.69265 70.4074 7.23706 65.8327 12.0137 61.4701C31.1305 44.0095 53.9837 29.9623 79.9272 20.7018C131.824 2.1708 186.256 6.27087 232.306 27.8719C278.366 49.4729 316.044 88.585 334.423 140.068Z" fill="#2E092A"/>
<path fill-rule="evenodd" clip-rule="evenodd" d="M333.369 140.442C351.647 191.643 347.284 245.468 325.451 291.104C314.535 313.917 299.245 334.69 280.24 352.05C270.737 360.735 260.305 368.561 249.025 375.378V374.832H44.4156V376.61C38.9725 373.388 33.6808 369.914 28.5607 366.178C18.3207 358.715 8.77748 350.232 0.0825338 340.83C-2.08868 338.477 -4.2094 336.074 -6.26953 333.599H-0.432508V75.9321H-0.79606C3.47567 71.1857 7.99988 66.6312 12.7462 62.2888C31.7519 44.9191 54.484 30.9627 80.2861 21.7427C131.89 3.3126 186.019 7.39246 231.816 28.8723C277.614 50.3522 315.08 89.2421 333.369 140.442Z" fill="#2D0829"/>
<path fill-rule="evenodd" clip-rule="evenodd" d="M332.329 140.816C350.507 191.734 346.174 245.257 324.452 290.63C313.596 313.322 298.397 333.963 279.493 351.232C270.04 359.866 259.669 367.652 248.45 374.429C245.642 376.125 242.784 377.751 239.876 379.316V374.822H44.9918V375.64C39.579 372.439 34.3176 368.975 29.2278 365.269C19.0484 357.847 9.55564 349.414 0.911186 340.063C-1.24993 337.73 -3.35044 335.327 -5.41057 332.883H-0.431938V83.88H-6.16797C-4.16843 81.4261 -2.09821 79.0226 0.0326071 76.6595C4.28414 71.9434 8.77804 67.4091 13.5042 63.097C32.4089 45.8283 54.9996 31.9426 80.6603 22.7831C131.972 4.46418 185.797 8.51373 231.342 29.8724C276.887 51.2311 314.141 89.8988 332.319 140.816H332.329Z" fill="#2C0828"/>
<path fill-rule="evenodd" clip-rule="evenodd" d="M331.279 141.192C349.356 191.816 345.044 245.036 323.453 290.157C312.657 312.717 297.539 333.248 278.746 350.416C269.354 358.999 259.033 366.745 247.874 373.481C245.087 375.167 242.239 376.783 239.351 378.338V374.814H53.7477V379.257C50.9807 377.793 48.254 376.268 45.5678 374.683C40.1852 371.502 34.9541 368.058 29.8947 364.362C19.7758 356.98 10.3336 348.598 1.73961 339.297C-0.411403 336.974 -2.50183 334.591 -4.54176 332.157H-0.421501V84.5583H-5.28906C-3.29963 82.1245 -1.23949 79.7311 0.871126 77.3781C5.10246 72.6823 9.56607 68.1884 14.2619 63.8863C33.0556 46.7186 55.5251 32.9036 81.0343 23.7947C132.053 5.57667 185.576 9.60605 230.858 30.8435C276.14 52.081 313.192 90.5367 331.269 141.161L331.279 141.192Z" fill="#2B0727"/>
<path fill-rule="evenodd" clip-rule="evenodd" d="M330.231 141.563C348.207 191.905 343.915 244.822 322.445 289.68C311.71 312.109 296.684 332.529 278.001 349.595C268.66 358.129 258.4 365.834 247.311 372.529C241.767 375.882 236.011 378.982 230.053 381.81V374.822H54.2855V378.296C51.5387 376.842 48.8222 375.327 46.146 373.741C40.7937 370.58 35.5929 367.157 30.5638 363.481C20.4954 356.139 11.1138 347.808 2.5703 338.568C0.439484 336.255 -1.65093 333.892 -3.67066 331.468H-0.4088V85.273H-4.41797C-2.43863 82.8493 -0.398695 80.466 1.71192 78.1332C5.91297 73.4677 10.3564 68.994 15.0321 64.7222C33.7146 47.6454 56.0629 33.9213 81.4307 24.8628C132.166 6.74581 185.376 10.755 230.406 31.8713C275.436 52.9876 312.266 91.2211 330.242 141.563H330.231Z" fill="#2A0626"/>
<path fill-rule="evenodd" clip-rule="evenodd" d="M329.18 141.936C347.055 191.985 342.783 244.599 321.445 289.205C310.771 311.502 295.835 331.811 277.253 348.787C267.962 357.27 257.763 364.934 246.735 371.589C241.221 374.922 235.495 378.002 229.577 380.81V374.821H63.101V381.446C40.7123 370.943 20.3635 356.189 3.37757 337.809C1.25685 335.507 -0.813368 333.154 -2.8331 330.751H-0.429629V85.9691H-3.57031C-1.60107 83.5556 0.428771 81.1925 2.51919 78.8698C6.70004 74.2345 11.1132 69.781 15.7585 65.5395C34.3401 48.5637 56.5571 34.9103 81.7735 25.9124C132.216 7.8964 185.123 11.8854 229.901 32.8805C274.668 53.8756 311.296 91.897 329.17 141.946L329.18 141.936Z" fill="#290626"/>
<path fill-rule="evenodd" clip-rule="evenodd" d="M328.129 142.31C345.903 192.076 341.661 244.387 320.434 288.74C309.82 310.917 294.965 331.094 276.495 347.979C267.254 356.422 257.115 364.026 246.148 370.651C240.664 373.963 234.979 377.023 229.091 379.82V374.832H63.5845V380.456C41.327 370.014 21.0994 355.351 4.20437 337.073C2.09375 334.79 0.0336226 332.447 -1.96591 330.054H-0.420818V86.6764H-2.70312C-0.743985 84.283 1.27575 81.93 3.35607 79.6174C7.51672 75.0023 11.8995 70.5791 16.5247 66.3579C34.9952 49.483 57.0809 35.9104 82.166 26.9529C132.316 9.04798 184.93 13.0066 229.435 33.8806C273.95 54.7545 310.365 92.5538 328.129 142.32V142.31Z" fill="#280525"/>
<path fill-rule="evenodd" clip-rule="evenodd" d="M327.081 142.683C344.744 192.156 340.533 244.174 319.426 288.265C308.873 310.311 294.109 330.377 275.74 347.161C266.56 355.553 256.471 363.116 245.575 369.701C240.122 372.993 234.466 376.043 228.619 378.82V374.821H64.0616V379.446C41.9354 369.065 21.8189 354.482 5.02484 336.315C0.823799 331.77 -3.16517 327.004 -6.92188 322.025H-0.418335V87.3625H-1.84225C0.106791 84.9792 2.11643 82.6363 4.17656 80.3439C8.30691 75.7591 12.6796 71.3561 17.2644 67.1652C35.6339 50.3812 57.5884 36.8894 82.5219 27.9925C182.246 -7.61542 291.736 43.7363 327.071 142.693L327.081 142.683Z" fill="#280524"/>
<path fill-rule="evenodd" clip-rule="evenodd" d="M326.03 143.067C343.592 192.258 339.401 243.963 318.426 287.801C307.934 309.715 293.25 329.67 274.992 346.353C265.863 354.695 255.835 362.218 244.999 368.762C239.576 372.034 233.951 375.064 228.134 377.831V374.831H64.5458V378.457C42.5509 368.136 22.5454 353.644 5.85237 335.568C1.68162 331.054 -2.28715 326.307 -6.02365 321.359H-0.418892V95.3005H-6.60938C0.651561 85.4846 8.89207 76.3251 18.0213 67.9836C36.2796 51.3006 58.1129 37.8896 82.895 29.0331C182.044 -6.36272 290.887 44.686 326.02 143.067H326.03Z" fill="#270424"/>
<path fill-rule="evenodd" clip-rule="evenodd" d="M324.982 143.444C342.443 192.341 338.272 243.754 317.418 287.329C306.996 309.122 292.394 328.956 274.236 345.538C265.158 353.829 255.2 361.312 244.425 367.816C239.032 371.067 233.448 374.077 227.661 376.824V374.824H65.0224V377.44C43.1487 367.179 23.2745 352.769 6.67231 334.803C2.52176 330.309 -1.41673 325.603 -5.14313 320.675H-0.427062V95.9396H-5.71875C1.50179 86.1843 9.69181 77.0753 18.7705 68.7843C36.9178 52.2023 58.6299 38.8619 83.2706 30.066C181.834 -5.12783 290.051 45.628 324.972 143.434L324.982 143.444Z" fill="#260423"/>
<path fill-rule="evenodd" clip-rule="evenodd" d="M323.929 143.815C341.289 192.43 337.148 243.529 316.416 286.852C306.055 308.514 291.543 328.226 273.496 344.718C264.478 352.958 254.572 360.401 243.857 366.864C238.505 370.096 232.94 373.095 227.194 375.821V374.822H65.5045V376.437C43.7621 366.238 23.999 351.908 7.49777 334.053C3.37751 329.59 -0.550868 324.904 -4.24698 320.006H-0.419577V96.5935H-4.8125C2.36765 86.8988 10.5072 77.8403 19.5253 69.5998C37.5716 53.1087 59.1524 39.8491 83.6416 31.1037C181.629 -3.87807 289.2 46.5748 323.919 143.805L323.929 143.815Z" fill="#250322"/>
<path fill-rule="evenodd" clip-rule="evenodd" d="M322.882 144.187C340.141 192.509 336.021 243.316 315.409 286.377C305.109 307.907 290.678 327.508 272.743 343.899C263.775 352.089 253.929 359.491 243.275 365.914C237.953 369.125 232.429 372.104 226.713 374.821H65.9928V375.437C44.3816 365.298 24.7297 351.058 8.32943 333.305C4.22937 328.872 0.331279 324.206 -3.34463 319.349H-0.416013V97.2589H-3.91016C3.2296 87.6147 11.3186 78.6168 20.2862 70.4268C38.2215 54.0367 59.671 40.8579 84.029 32.163C181.431 -2.6168 288.375 47.5432 322.882 144.198V144.187Z" fill="#240322"/>
<path fill-rule="evenodd" clip-rule="evenodd" d="M321.83 144.562C356.135 240.641 305.45 346.555 208.624 381.123V374.821H82.9262V381.214C77.3316 379.214 71.8379 376.952 66.4654 374.428C44.9856 364.349 25.4548 350.191 9.14545 332.548C5.06559 328.135 1.1978 323.51 -2.45792 318.673H-0.417982V97.906H-3.02344C4.07592 88.3224 12.1144 79.375 21.0316 71.2355C38.8658 54.9464 60.1841 41.8383 84.3906 33.1938C181.216 -1.37387 287.515 48.4832 321.82 144.562H321.83Z" fill="#230221"/>
<path fill-rule="evenodd" clip-rule="evenodd" d="M320.776 144.936C354.879 240.439 304.497 345.717 208.246 380.083V374.822H83.2956V380.174C77.7313 378.184 72.278 375.932 66.9358 373.428C45.5772 363.41 26.1675 349.333 9.95919 331.801C5.90963 327.418 2.06204 322.814 -1.57348 318.007H-0.42223V98.5627H-2.12891C4.91996 89.0397 12.9181 80.1427 21.7847 72.0537C39.5079 55.8555 60.705 42.8383 84.7701 34.2443C181.02 -0.121397 286.683 49.4428 320.786 144.946L320.776 144.936Z" fill="#230221"/>
<path fill-rule="evenodd" clip-rule="evenodd" d="M319.731 145.311C353.622 240.238 303.553 344.881 207.888 379.044V374.823H83.6947V379.135C78.1707 377.156 72.7376 374.924 67.4358 372.43C46.2085 362.472 26.9099 348.486 10.8026 331.055C6.7732 326.693 2.94581 322.128 -0.659414 317.342H-0.406948V99.2205H-1.21484C5.79363 89.748 13.7413 80.9117 22.5473 72.863C40.1695 56.7658 61.2353 43.8193 85.1489 35.2859C180.813 1.13228 285.84 50.3935 319.741 145.321L319.731 145.311Z" fill="#220220"/>
<path fill-rule="evenodd" clip-rule="evenodd" d="M318.679 145.686C352.368 240.038 302.592 344.044 207.513 377.996V374.825H84.0672V378.097C78.5735 376.138 73.1808 373.906 67.8992 371.432C46.8031 361.535 27.6258 347.629 11.6093 330.3C7.61026 325.968 3.80305 321.423 0.218025 316.667C-1.57954 314.294 -3.31649 311.87 -4.99287 309.386H-0.41818V107.039H-5.38672C-3.76083 104.615 -2.07436 102.222 -0.337389 99.8687C6.63069 90.4568 14.5278 81.6709 23.2834 73.6728C40.7945 57.6765 61.729 44.8109 85.5012 36.3179C180.59 2.36619 284.98 51.3346 318.669 145.686H318.679Z" fill="#210120"/>
<path fill-rule="evenodd" clip-rule="evenodd" d="M317.627 146.066C351.114 239.842 301.641 343.212 207.138 376.962V374.831H84.4493V377.053C78.9859 375.104 73.6235 372.892 68.3823 370.428C47.4175 360.592 28.3512 346.777 12.4357 329.549C8.45687 325.247 4.67998 320.722 1.11515 316.006C-0.67231 313.643 -2.39919 311.23 -4.06546 308.776H-0.409755V107.661H-4.44922C-2.83343 105.247 -1.15705 102.874 0.569816 100.531C7.4975 91.1799 15.3442 82.4445 24.0492 74.4969C41.4492 58.5915 62.2625 45.8066 85.8934 37.3742C180.397 3.63461 284.15 52.3 317.637 146.066H317.627Z" fill="#21011F"/>
<path fill-rule="evenodd" clip-rule="evenodd" d="M316.576 146.44C349.851 239.64 300.691 342.384 206.763 375.922V374.831H101.384V381.052C90.1742 378.214 79.2777 374.316 68.8559 369.428C48.0123 359.653 29.0672 345.919 13.2527 328.801C9.30414 324.52 5.53734 320.036 2.00281 315.34C0.235545 312.997 -1.49132 310.593 -3.1475 308.15H-0.420861V108.267H-3.53125C-1.92556 105.863 -0.259282 103.5 1.45749 101.178C8.33468 91.8869 16.1409 83.202 24.7955 75.3049C42.0945 59.5005 62.7765 46.7862 86.2559 38.4043C180.184 4.8667 283.301 53.2292 316.576 146.43V146.44Z" fill="#20011F"/>
<path fill-rule="evenodd" clip-rule="evenodd" d="M315.528 146.814C348.601 239.439 299.744 341.547 206.392 374.872V374.822H101.669V379.972C90.52 377.155 79.6942 373.287 69.3431 368.429C48.6307 358.714 29.8068 345.061 14.0832 328.055C6.22647 319.552 -0.852696 310.2 -7.00278 300.092H-0.41845V116.145H-7.21484C-4.26603 111.237 -1.07487 106.46 2.34857 101.845C9.18537 92.6046 16.9411 83.9804 25.5351 76.1337C42.723 60.4303 63.2839 47.7969 86.6219 39.4655C179.964 6.13991 282.445 54.1994 315.518 146.824L315.528 146.814Z" fill="#20001E"/>
<path fill-rule="evenodd" clip-rule="evenodd" d="M314.479 147.186C347.351 239.235 298.786 340.706 206.02 373.83C200.223 375.9 194.386 377.657 188.539 379.101V374.819H101.943V378.899C90.8649 376.102 80.1098 372.254 69.8193 367.427C49.2382 357.773 30.5254 344.21 14.9028 327.305C7.09652 318.853 0.0577526 309.562 -6.05194 299.514H-0.416883V116.708H-6.25391C-3.3152 111.83 -0.144229 107.084 3.24892 102.499C10.0453 93.3193 17.7506 84.7455 26.2941 76.9493C43.381 61.3368 63.8106 48.7842 86.9971 40.5033C179.763 7.37968 281.608 55.1464 314.479 147.196V147.186Z" fill="#1F001E"/>
<path fill-rule="evenodd" clip-rule="evenodd" d="M313.427 147.56C346.086 239.034 297.835 339.869 205.644 372.79C194.121 376.901 182.457 379.758 170.804 381.435V374.82H102.224V377.82C91.216 375.032 80.5215 371.215 70.3017 366.418C49.8519 356.824 31.2502 343.343 15.7285 326.549C7.96266 318.147 0.97439 308.916 -5.0949 298.929H-0.409127V117.264H-5.29688C-2.37836 112.417 0.772426 107.701 4.14538 103.146C10.9014 94.027 18.5562 85.5037 27.0491 77.7479C44.025 62.2364 64.3233 49.7646 87.3684 41.5341C179.559 8.62261 280.768 56.0863 313.427 147.56Z" fill="#1F001E"/>
</g>
<path style="mix-blend-mode:multiply" d="M374.406 186.908C374.406 290.136 290.728 373.814 187.5 373.814C84.2712 373.814 0.59375 290.136 0.59375 186.908C0.59375 83.6791 84.2712 7.09082 187.5 7.09082C290.728 7.09082 374.406 83.6791 374.406 186.908Z" fill="url(#paint0_radial_1399_2237)"/>
<path fill-rule="evenodd" clip-rule="evenodd" d="M190.708 274.432C178.226 282.753 205.957 280.249 209.421 281.148C212.884 282.057 207.34 277.896 217.045 270.958C226.75 264.03 212.188 261.95 206.644 264.03C201.099 266.111 190.698 274.432 190.698 274.432H190.708Z" fill="url(#paint1_linear_1399_2237)"/>
<g style="mix-blend-mode:soft-light" opacity="0.49">
<path d="M30.1692 287.856C7.78042 238.423 73.5429 129.549 159.503 97.6579C245.463 65.7663 107.515 129.499 65.2216 206.471C65.2216 206.471 143.557 109.514 234.596 83.8328C325.636 58.1519 360.486 117.875 366.869 134.225C373.241 150.575 374.402 190.454 374.402 190.454C374.402 190.454 332.159 133.942 220.297 163.057C108.434 192.171 59.3745 322.989 59.3745 322.989C59.3745 322.989 33.4411 298.278 30.1692 287.856Z" fill="#9589C4"/>
</g>
<g style="mix-blend-mode:soft-light" opacity="0.49">
<path d="M64.1429 327.331C64.1429 327.331 113.535 213.439 209.654 176.922C305.784 140.415 367.709 188.232 367.709 188.232C367.709 188.232 275.78 153.634 203.898 184.011C132.026 214.388 86.1681 322.343 80.8966 340.45L64.1328 327.331H64.1429Z" fill="#9589C4"/>
</g>
<g style="mix-blend-mode:soft-light" opacity="0.49">
<path d="M99.2031 352.95C99.2031 352.95 112.665 253.145 187.506 200.248C262.347 147.341 364.475 200.067 367.716 219.921C370.948 239.775 345.075 300.77 271.587 330.349C198.109 359.928 314.658 299.538 344.146 251.812C373.634 204.086 298.52 168.407 215.934 206.196C133.347 243.986 121.036 361.635 121.036 361.635L99.2132 352.95H99.2031Z" fill="#9589C4"/>
</g>
<g style="mix-blend-mode:multiply" opacity="0.49">
<path d="M184.471 240.007C149.813 284.835 147.732 326.774 158.821 343.932C169.909 361.089 314.562 298.468 339.062 246.712C363.551 194.956 228.209 184.08 187.511 248.904C146.813 313.727 230.461 299.669 272.057 273.888C313.653 248.106 253.496 230.817 285.458 219.93C317.42 209.044 324.186 275.524 239.701 305.789C155.215 336.055 148.399 296.266 184.471 240.007Z" fill="#4A001D"/>
</g>
<g style="mix-blend-mode:multiply" opacity="0.49">
<path d="M187.494 255.023C225.819 210.195 267.304 209.62 278.736 211.003C290.178 212.387 270.415 215.033 268.334 226.02C266.254 237.007 279.079 244.975 271.798 257.8C264.517 270.626 259.67 285.178 217.376 283.794C175.093 282.411 217.023 235.583 242.684 233.341C268.344 231.11 267.294 255.569 244.421 263.264C221.547 270.969 218.427 261.608 231.595 255.023C244.764 248.439 240.957 240.208 228.475 247.267C215.993 254.326 200.057 285.077 237.483 275.423C274.919 265.768 269.183 234.321 253.429 226.02C237.675 217.719 206.813 231.806 187.484 255.023H187.494Z" fill="#4A001D"/>
</g>
<g style="mix-blend-mode:soft-light" opacity="0.49">
<path d="M186.448 292.591C179.621 293.157 192.093 319.494 242.011 302.508C291.918 285.522 299.896 256.58 299.896 251.813C299.896 247.047 277.356 278.857 234.901 290.158C192.447 301.458 186.458 292.581 186.458 292.581L186.448 292.591Z" fill="#9589C4"/>
</g>
<g style="mix-blend-mode:soft-light" opacity="0.49">
<path d="M177.539 346.818C177.539 346.818 199.18 351.109 239.585 331.619C279.99 312.129 303.156 285.367 303.156 285.367C303.156 285.367 233.092 338.91 177.549 346.818H177.539Z" fill="#9589C4"/>
</g>
<g style="mix-blend-mode:multiply" opacity="0.49">
<path d="M0.833843 177.363C0.833843 177.363 34.0382 48.8982 137.56 17.0167C241.081 -14.8748 288.545 32.0637 292.837 36.1032C297.139 40.1426 227.67 4.81753 132.934 36.1032C38.1989 67.3888 10.468 162.912 11.8515 184.008C13.235 205.114 62.7689 70.681 160.201 42.7986C257.633 14.9162 309.934 59.0776 315.478 68.7824C321.022 78.4872 251.24 55.5128 154.657 96.1195C58.073 136.716 15.0932 251.336 15.0932 251.336C15.0932 251.336 -4.18519 222.646 0.833843 177.373V177.363Z" fill="#4A001D"/>
</g>
<g style="mix-blend-mode:soft-light" opacity="0.49">
<path d="M81.8746 202.169C68.0092 231.455 142.204 116.32 223.286 93.8507C304.368 71.3812 343.43 114.997 351.287 121.925C359.143 128.853 293.987 83.4491 238.879 98.6981C183.77 113.947 151.535 152.423 148.071 165.945C144.608 179.467 248.937 139.527 310.286 147.192C371.635 154.857 373.988 181.467 373.988 181.467C373.988 181.467 375.241 103.111 319.193 86.0041C263.146 68.8969 169.208 77.9049 81.8645 202.159L81.8746 202.169Z" fill="#9589C4"/>
</g>
<g style="mix-blend-mode:soft-light" opacity="0.49">
<path d="M205.279 111.943C164.037 133.191 240.615 134.938 304.044 143.158C367.474 151.379 303.115 61.551 205.279 111.943Z" fill="#9589C4"/>
</g>
<g style="mix-blend-mode:soft-light" opacity="0.49">
<path d="M53.0155 316.69C39.5843 292.918 89.4919 212.977 85.3313 216.673C81.1706 220.369 49.7436 262.935 43.2804 279.779C36.8072 296.624 53.0155 316.7 53.0155 316.7V316.69Z" fill="#FFFEFE"/>
<path d="M61.7712 279.771C56.9037 289.355 68.0122 280.175 72.5162 269.511C77.0202 258.847 66.2753 270.904 61.7712 279.771Z" fill="#FFFEFE"/>
<path d="M110.982 252.727C110.982 252.727 83.7155 291.425 80.1911 303.897C76.6667 316.379 125.029 245.213 133.865 232.146C142.692 219.088 110.982 252.727 110.982 252.727Z" fill="#FFFEFE"/>
<path d="M192.097 204.029C179.736 209.058 169.223 225.085 168.183 229.144C167.143 233.194 192.794 213.885 201.802 206.21C210.81 198.535 199.024 201.211 192.097 204.029Z" fill="#FFFEFE"/>
<path d="M152.841 141.104C148.459 147.264 158.365 140.872 161.829 136.711C165.293 132.55 155.639 137.175 152.841 141.104Z" fill="#FFFEFE"/>
<path d="M105.671 96.5183C99.2689 102.143 111.549 97.9018 135.412 82.6529C159.275 67.4039 220.493 58.6484 227.088 57.2547C233.682 55.8611 162.507 46.6208 105.671 96.5284V96.5183Z" fill="#FFFEFE"/>
<path d="M218.785 353.114C202.819 353.7 253.938 361.779 282.285 338.905C310.632 316.032 265.925 351.387 218.785 353.114Z" fill="#FFFEFE"/>
</g>
<g style="mix-blend-mode:multiply" opacity="0.8">
<path d="M99.2051 108.06C90.7425 116.704 125.775 110.877 156.162 95.4868C186.548 80.0964 200.091 69.4727 200.091 69.4727C200.091 69.4727 131.329 75.2491 99.2051 108.06Z" fill="#4A001D"/>
</g>
<g style="mix-blend-mode:multiply" opacity="0.8">
<path d="M61.0709 148.958C57.7383 148.13 71.2402 130.013 84.8734 126.549C98.5066 123.085 68.4631 150.816 61.0709 148.958Z" fill="#4A001D"/>
</g>
<g style="mix-blend-mode:multiply" opacity="0.8">
<path d="M209.833 314.304C179.588 318.879 196.947 333.128 224.678 326.423C252.409 319.717 288.522 288.452 291.148 285.371C293.773 282.291 247.218 308.649 209.843 314.304H209.833Z" fill="#4A001D"/>
</g>
<g style="mix-blend-mode:multiply" opacity="0.8">
<path d="M230.91 216.539C196.322 231.324 242.705 214.621 253.45 219.922C264.185 225.214 300.278 205.926 303.146 206.905C306.014 207.885 273.89 198.16 230.91 216.539Z" fill="#4A001D"/>
</g>
<g style="mix-blend-mode:multiply" opacity="0.8">
<path d="M52.762 80.5601C47.4501 86.3366 94.5907 43.8212 142.186 26.7242C189.791 9.62716 92.0458 14.4745 52.762 80.5601Z" fill="#4A001D"/>
</g>
<g style="mix-blend-mode:multiply" opacity="0.8">
<path d="M73.7228 101.977C66.5123 110.359 143.101 63.4606 168.287 52.14C193.473 40.8194 123.58 38.1331 73.7228 101.977Z" fill="#4A001D"/>
</g>
<g style="mix-blend-mode:soft-light" opacity="0.49">
<path d="M117.623 41.9519C85.802 64.1589 156.392 32.8934 213.58 33.0449C270.769 33.1964 310.285 55.676 310.285 55.676C310.285 55.676 263.942 -7.86479 117.623 41.9519Z" fill="#9589C4"/>
</g>
<path style="mix-blend-mode:screen" d="M187.5 373.812C290.725 373.812 374.406 290.131 374.406 186.906C374.406 83.6807 290.725 0 187.5 0C84.2744 0 0.59375 83.6807 0.59375 186.906C0.59375 290.131 84.2744 373.812 187.5 373.812Z" fill="url(#paint2_radial_1399_2237)"/>
<g style="mix-blend-mode:soft-light" opacity="0.5">
<path d="M215.923 139.366C184.395 148.738 268.688 142.173 306.478 141.063C344.257 139.952 358.536 154.585 356.254 149.354C353.962 144.112 327.453 106.212 215.933 139.376L215.923 139.366Z" fill="#1F00CE"/>
</g>
<g style="mix-blend-mode:soft-light">
<path d="M304.043 143.162C283.452 144.707 315.656 144.101 331.077 148.615C346.498 153.119 337.318 140.668 304.043 143.162Z" fill="#1F00CE"/>
</g>
<g style="mix-blend-mode:soft-light">
<path d="M223.983 106.744C180.892 122.842 282.303 114.48 327.091 122.821C371.868 131.163 314.104 73.0753 223.983 106.744Z" fill="#1F00CE"/>
</g>
<g style="mix-blend-mode:soft-light" opacity="0.5">
<path d="M113.07 227.031C89.0963 254.974 76.9375 286.775 76.9375 286.775C76.9375 286.775 132.248 213.58 143.225 204.259C154.202 194.937 120.028 218.922 113.07 227.021V227.031Z" fill="#1F00CE"/>
</g>
<g style="mix-blend-mode:soft-light">
<path d="M132.072 262.102C109.936 303.497 136.415 282.289 148.998 254.558C161.591 226.827 137.677 251.62 132.072 262.102Z" fill="#1F00CE"/>
</g>
<g style="mix-blend-mode:soft-light">
<path d="M41.136 209.035C29.987 232.726 87.1858 144.626 99.2032 128.66C111.221 112.684 69.9575 147.797 41.136 209.035Z" fill="#1F00CE"/>
</g>
<g style="mix-blend-mode:soft-light">
<path d="M213.539 348.93C213.539 348.93 284.462 352.363 314.505 320.32C344.549 288.277 351.285 263.313 351.285 263.313C351.285 263.313 324.18 337.932 213.539 348.93Z" fill="#1F00CE"/>
</g>
<g style="mix-blend-mode:soft-light">
<path d="M248.281 336.067C248.281 336.067 313.155 322.736 332.342 288.654C351.53 254.571 351.298 252.904 351.298 252.904C351.298 252.904 315.559 315.445 248.281 336.067Z" fill="#1F00CE"/>
</g>
<g style="mix-blend-mode:soft-light">
<path d="M76.9258 88.8193C76.9258 88.8193 141.224 42.3352 193.919 34.0644C246.614 25.7936 141.072 11.817 76.9258 88.8193Z" fill="#1F00CE"/>
</g>
<g style="mix-blend-mode:soft-light">
<path d="M140.668 73.177C127.591 81.7911 167.45 70.7432 169.379 69.2991C171.298 67.855 161.34 59.5539 140.668 73.177Z" fill="#1F00CE"/>
</g>
<defs>
<radialGradient id="paint0_radial_1399_2237" cx="0" cy="0" r="1" gradientUnits="userSpaceOnUse" gradientTransform="translate(235.893 105.31) scale(272.916 272.916)">
<stop stop-color="white"/>
<stop offset="0.19" stop-color="#FCFCFC"/>
<stop offset="0.32" stop-color="#F3F2F6"/>
<stop offset="0.44" stop-color="#E5E3EB"/>
<stop offset="0.54" stop-color="#D1CDDC"/>
<stop offset="0.64" stop-color="#B7B0C8"/>
<stop offset="0.74" stop-color="#978DAF"/>
<stop offset="0.83" stop-color="#706392"/>
<stop offset="0.92" stop-color="#453471"/>
<stop offset="1" stop-color="#16004D"/>
</radialGradient>
<linearGradient id="paint1_linear_1399_2237" x1="203.897" y1="281.279" x2="203.897" y2="263.263" gradientUnits="userSpaceOnUse">
<stop stop-color="#110015"/>
<stop offset="0.07" stop-color="#100012"/>
<stop offset="0.44" stop-color="#100009"/>
<stop offset="1" stop-color="#100007"/>
</linearGradient>
<radialGradient id="paint2_radial_1399_2237" cx="0" cy="0" r="1" gradientUnits="userSpaceOnUse" gradientTransform="translate(176.018 184.604) rotate(-90) scale(229.745 229.745)">
<stop/>
<stop offset="0.27" stop-color="#010002"/>
<stop offset="0.41" stop-color="#050009"/>
<stop offset="0.52" stop-color="#0C0017"/>
<stop offset="0.61" stop-color="#17002A"/>
<stop offset="0.69" stop-color="#240042"/>
<stop offset="0.77" stop-color="#350060"/>
<stop offset="0.84" stop-color="#480084"/>
<stop offset="0.9" stop-color="#5F00AE"/>
<stop offset="0.96" stop-color="#7800DB"/>
<stop offset="1" stop-color="#8C00FF"/>
</radialGradient>
</defs>
</svg>
